<svg enable-background="new 0 0 3087 771" viewBox="0 0 3087 771" xmlns="http://www.w3.org/2000/svg"><path d="m4.4 8.8h739.2v752h-739.2z" fill="#fff" stroke="#000" stroke-miterlimit="10" stroke-width="8"/><path d="m4.4 8.2h740.5v119.6h-740.5z" fill="#fec64e" stroke="#000" stroke-miterlimit="10" stroke-width="8"/><path d="m97.1 178.4v9.3h-15.8v43.4h-10.4v-43.4h-15.7v-9.3z"/><path d="m114.2 231.1h-9.8v-26.2h-4.8v-8.3h14.6zm-5.4-52.7c3.5 0 6.3 2.9 6.3 6.3 0 3.5-2.8 6.3-6.3 6.3s-6.3-2.7-6.3-6.3c.1-3.4 2.9-6.3 6.3-6.3z"/><path d="m135 183.5v13.1h7.5v8.3h-7.5v15.6c0 2.2 1.7 2.5 3.2 2.5 2.5 0 4.5-.2 4.5-.2v8.4s-4.7.5-7.6.5c-4.9 0-9.9-.8-9.9-7.8v-18.9h-5.4v-8.3h5.4v-13.1h9.8z"/><path d="m158.9 231.1h-9.7v-52.7h9.7z"/><path d="m201.2 216.8h-25.7c.5 3.8 3.5 6.9 7.9 6.9 2.9 0 5.6-1.2 6.9-3.5l10.2 1.1c-3.1 7.4-9.6 10.8-17.3 10.8-10.3 0-18.1-7.6-18.1-18.2 0-10.5 7.6-18.2 17.9-18.2 9.5 0 18.1 6.2 18.1 20.6v.5zm-25.9-6.6h15.4c-.5-3.5-3.5-6.3-7.6-6.3s-7.1 2.6-7.8 6.3z"/><path d="m70 327h-10.4v-52.7h17.9c12.4 0 19 7.8 19 17.3s-6.6 17.6-19 17.6h-7.5zm0-43.7v16.9h5.9c5.7 0 9.9-2.7 9.9-8.6s-4.1-8.3-9.9-8.3z"/><path d="m101.2 314.3v-21.8h9.8v20c0 4.7 3.2 6.6 6.6 6.6 3.5 0 6.6-1.9 6.6-6.6v-20h9.7v21.8c0 7.2-5.7 13.6-16.3 13.6-10.5 0-16.4-6.4-16.4-13.6z"/><path d="m151.7 340.1h-9.8v-47.7h9.8v1.7c0 1.7-.2 2.4-.2 2.8 1.7-2.9 5.7-5.3 10.9-5.3 9.5 0 16.7 7.6 16.7 18.2 0 10.5-7.3 18.2-16.8 18.2-4.9 0-9-2.3-10.7-5.3v17.4zm-.2-30.4c0 5.3 3.6 9.5 8.8 9.5s8.8-4.2 8.8-9.5-3.6-9.4-8.8-9.4-8.8 4.1-8.8 9.4z"/><path d="m197.3 327h-9.8v-26.2h-4.8v-8.3h14.6zm-5.3-52.8c3.5 0 6.3 2.9 6.3 6.3 0 3.5-2.8 6.3-6.3 6.3s-6.3-2.7-6.3-6.3c0-3.4 2.8-6.3 6.3-6.3z"/><path d="m215.5 327h-9.7v-52.7h9.7z"/><path d="m235.1 274.2h8.8v1.2c-6.6 7.8-11.5 18.8-11.5 30.3s4.8 23.8 11.5 31.6v1.1h-8.8c-7.6-9.3-12.8-20.8-12.8-32.8 0-11.9 5.2-22 12.8-31.4z"/><path d="m267.5 303c-2.8-2.7-6.3-3.5-8.5-3.5-2.6 0-3.5 1.3-3.5 2.3 0 1.2.8 2 2.6 2.6l5.7 1.8c7.1 2.3 9.5 6.2 9.5 10.7 0 5-4.3 10.9-13.7 10.9-7.6 0-12.4-2.9-15.2-5.4l5.2-6.8c2.5 2.3 6.9 4.3 10.2 4.3 2.3 0 3.8-1.2 3.8-2.6 0-1.7-1.1-2.5-3.9-3.3l-5.9-1.7c-5.6-1.8-8-5.6-8-10.1 0-5.7 5.1-10.7 13.4-10.7 4.5 0 9.9 1.4 13.9 5.1z"/><path d="m292 279.3v13.1h7.5v8.3h-7.5v15.6c0 2.2 1.7 2.5 3.2 2.5 2.5 0 4.5-.2 4.5-.2v8.4s-4.7.5-7.6.5c-4.9 0-9.9-.8-9.9-7.8v-18.9h-5.4v-8.3h5.4v-13.1h9.8z"/><path d="m327.4 302.1h-4.1c-5 0-7.2 2.3-7.2 8.4v16.5h-9.8v-34.5h9.5v5.5c1.4-3.7 4.7-6 9-6 .9 0 1.8.1 2.7.3v9.8z"/><path d="m344.7 327h-9.8v-26.2h-4.8v-8.3h14.6zm-5.4-52.8c3.5 0 6.3 2.9 6.3 6.3 0 3.5-2.8 6.3-6.3 6.3s-6.3-2.7-6.3-6.3c.1-3.4 2.9-6.3 6.3-6.3z"/><path d="m373.1 291.5c7.5 0 12.8 4.7 12.8 12.8v22.7h-9.8v-20.1c0-4.4-2.8-6.2-5.9-6.2-2.9 0-5.4 1.6-7.3 3.9v22.4h-9.8v-34.5h9.6v1.4c0 1.2-.2 2.7-.2 2.7 2.7-3.3 6.6-5.1 10.6-5.1z"/><path d="m428.9 292.4v37.1c0 5.4-2.7 10.6-11.1 10.6h-15v-8.3h12.6c1.7 0 3.7-.5 3.7-3.1v-6.6c-1.7 2.8-5.8 5.2-10.7 5.2-9.3 0-16.6-7.1-16.6-17.9s7.2-17.9 16.5-17.9c5.2 0 9.2 2.4 10.9 5.3 0-.4-.2-1.1-.2-2.9v-1.6h9.9zm-18.3 26.5c5.2 0 8.7-3.8 8.7-9.4s-3.5-9.5-8.7-9.5c-5.1 0-8.7 3.8-8.7 9.5 0 5.5 3.6 9.4 8.7 9.4z"/><path d="m443.2 338.5h-8.8v-1.1c6.6-7.8 11.5-20.2 11.5-31.6 0-11.5-4.8-22.4-11.5-30.3v-1.2h8.8c7.6 9.4 12.8 19.5 12.8 31.5 0 11.9-5.2 23.4-12.8 32.7z"/><path d="m84 414c7 0 12.4-3.8 14.3-10h11.5c-3.1 12.4-13.9 19.7-25.8 19.7-15.5 0-27.5-11.4-27.5-27.3s12-27.3 27.5-27.3c11.9 0 22.8 7.2 25.8 19.7h-11.4c-2-6.3-7.3-10-14.3-10-9.9 0-16.6 7.5-16.6 17.6s6.6 17.6 16.5 17.6z"/><path d="m135 399.8c0-2.5-2-4.1-5.7-4.1-3.5 0-7.8 1.7-10.4 3.2l-3.8-7.4s6.4-4.2 14.8-4.2c7.8 0 15 3.6 15 12.7v22.7h-9.9v-3.2c-1.8 2.7-5.7 4.1-9.6 4.1-7.3 0-12.1-5.2-12.1-10.8 0-6.6 4.8-10.6 12.5-10.6h6.8c1.7 0 2.4-.8 2.4-2zm0 10.6v-2.5c-.6.6-1.7.8-3 .8h-3.7c-3.1 0-4.9 1.4-4.9 3.8 0 2.3 1.9 4.1 4.9 4.1 3.6-.1 6.7-1.9 6.7-6.2z"/><path d="m173.2 398.8c-2.8-2.7-6.3-3.5-8.5-3.5-2.6 0-3.5 1.3-3.5 2.3 0 1.2.8 2 2.6 2.6l5.7 1.8c7.1 2.3 9.5 6.2 9.5 10.7 0 5-4.3 10.9-13.7 10.9-7.6 0-12.4-2.9-15.2-5.4l5.2-6.8c2.5 2.3 6.9 4.3 10.2 4.3 2.3 0 3.8-1.2 3.8-2.6 0-1.7-1.1-2.5-3.9-3.3l-5.9-1.7c-5.6-1.8-8-5.6-8-10.1 0-5.7 5.1-10.7 13.4-10.7 4.5 0 9.9 1.4 13.9 5.1z"/><path d="m197.6 375.1v13.1h7.5v8.3h-7.5v15.6c0 2.2 1.7 2.5 3.2 2.5 2.5 0 4.5-.2 4.5-.2v8.4s-4.7.5-7.6.5c-4.9 0-9.9-.8-9.9-7.8v-18.9h-5.4v-8.3h5.4v-13.1h9.8z"/><path d="m247.7 370 10.1 37.7h.1l8.4-37.7h10.7l-12.9 52.7h-12.1l-9.9-37.9-9.7 37.9h-12.1l-13-52.7h11.3l8.1 37.7h.1l10.1-37.7z"/><path d="m294.5 422.8h-9.8v-26.2h-4.8v-8.3h14.6zm-5.3-52.8c3.5 0 6.3 2.9 6.3 6.3 0 3.5-2.8 6.3-6.3 6.3s-6.3-2.7-6.3-6.3c0-3.4 2.8-6.3 6.3-6.3z"/><path d="m322.9 387.3c7.5 0 12.8 4.7 12.8 12.8v22.6h-9.8v-20.1c0-4.4-2.8-6.2-5.9-6.2-2.9 0-5.4 1.6-7.3 3.9v22.4h-9.7v-34.5h9.6v1.4c0 1.2-.2 2.7-.2 2.7 2.6-3.2 6.5-5 10.5-5z"/><path d="m369.2 418.4c-1.7 2.9-5.8 5.3-10.8 5.3-9.5 0-16.7-7.6-16.7-18.2 0-10.5 7.2-18.2 16.6-18.2 5.3 0 9.3 2.4 11 5.3 0-1.1-.2-4-.2-6.6v-16h9.8v52.7h-9.8v-4.3zm-17.4-12.9c0 5.3 3.6 9.5 8.8 9.5s8.8-4.2 8.8-9.5-3.6-9.4-8.8-9.4-8.8 4.1-8.8 9.4z"/><path d="m415.8 384c-3.2-3.2-7.5-5.4-11.1-5.4-3.5 0-6.6 1.8-6.6 5 0 2.4 1.5 4.3 5.7 6.3l4.4 2c8.4 3.9 13.4 8.3 13.4 16.2s-6.7 15.6-18.3 15.6c-8 0-13.9-3.1-18.9-7.9l5.8-7.8c3.9 4 8.9 6.3 12.9 6.3 4.5 0 7.3-2.5 7.3-5.7 0-3.6-3.2-5.6-8.3-8l-3.7-1.7c-7.1-3.3-11.5-8.1-11.5-14.8 0-9.3 8.3-14.8 17.6-14.8 6.1 0 12.4 3 17.4 7.4z"/><path d="m440.1 375.1v13.1h7.5v8.3h-7.5v15.6c0 2.2 1.7 2.5 3.2 2.5 2.5 0 4.5-.2 4.5-.2v8.4s-4.7.5-7.6.5c-4.9 0-9.9-.8-9.9-7.8v-18.9h-5.4v-8.3h5.4v-13.1h9.8z"/><path d="m452.1 405.5c0-10.5 8.2-18.2 18.5-18.2s18.4 7.7 18.4 18.2-8.2 18.2-18.5 18.2-18.4-7.7-18.4-18.2zm9.8 0c0 5.3 3.5 9.4 8.7 9.4 5 0 8.6-4.1 8.6-9.4 0-5.4-3.5-9.4-8.6-9.4-5.2 0-8.7 4-8.7 9.4z"/><path d="m516.4 397.9h-4.1c-5 0-7.2 2.3-7.2 8.4v16.5h-9.8v-34.5h9.5v5.5c1.4-3.7 4.7-6 9-6 .9 0 1.8.1 2.7.3v9.8z"/><path d="m567.3 402.5c0-4.2-2.7-6-5.7-6-2.8 0-5.3 1.6-7.2 3.9v22.4h-9.8v-20.3c0-4.1-2.6-6-5.7-6-2.8 0-5.3 1.6-7.2 3.9v22.4h-9.8v-34.5h9.6v1.4c0 1.2-.2 2.7-.2 2.7 2.6-3.2 6.4-5 10.3-5 5.1 0 9.1 2.2 11.1 6.3 2.9-4 6.8-6.3 11.6-6.3 7.5 0 12.7 4.7 12.7 12.8v22.6h-9.8v-20.3z"/><path d="m596.3 370h8.8v1.2c-6.6 7.8-11.5 18.8-11.5 30.3s4.8 23.8 11.5 31.6v1.1h-8.8c-7.6-9.3-12.8-20.8-12.8-32.8 0-11.9 5.2-22 12.8-31.4z"/><path d="m616.5 434.3h-8.8v-1.1c6.6-7.8 11.5-20.2 11.5-31.6 0-11.5-4.8-22.4-11.5-30.3v-1.3h8.8c7.6 9.4 12.8 19.5 12.8 31.5s-5.2 23.5-12.8 32.8z"/><path d="m70 92.2h-10.4v-52.7h17.9c12.4 0 19 7.8 19 17.3s-6.6 17.6-19 17.6h-7.5zm0-43.7v16.9h5.9c5.7 0 9.9-2.7 9.9-8.6s-4.1-8.3-9.9-8.3z"/><path d="m101.2 79.6v-21.9h9.8v20c0 4.7 3.2 6.6 6.6 6.6 3.5 0 6.6-1.9 6.6-6.6v-20h9.7v21.8c0 7.2-5.7 13.6-16.3 13.6-10.5 0-16.4-6.3-16.4-13.5z"/><path d="m151.7 105.4h-9.8v-47.7h9.8v1.7c0 1.7-.2 2.4-.2 2.8 1.7-2.9 5.7-5.3 10.9-5.3 9.5 0 16.7 7.6 16.7 18.2 0 10.5-7.3 18.2-16.8 18.2-4.9 0-9-2.3-10.7-5.3v17.4zm-.2-30.4c0 5.3 3.6 9.5 8.8 9.5s8.8-4.2 8.8-9.5-3.6-9.4-8.8-9.4-8.8 4-8.8 9.4z"/><path d="m197.3 92.2h-9.8v-26.2h-4.8v-8.3h14.6zm-5.3-52.7c3.5 0 6.3 2.9 6.3 6.3 0 3.5-2.8 6.3-6.3 6.3s-6.3-2.7-6.3-6.3c0-3.4 2.8-6.3 6.3-6.3z"/><path d="m215.5 92.2h-9.7v-52.7h9.7z"/><path d="m1153 17.8h730v743.1h-730z" fill="#fff" stroke="#000" stroke-miterlimit="10" stroke-width="8"/><path d="m1153.2 8.2h729.1v119.6h-729.1z" fill="#71efc3" stroke="#000" stroke-miterlimit="10" stroke-width="8"/><path d="m1245.9 178.4v9.3h-15.7v43.4h-10.4v-43.4h-15.8v-9.3z" fill="#b3b3b3"/><path d="m1263 231.1h-9.8v-26.2h-4.8v-8.3h14.6zm-5.3-52.7c3.5 0 6.3 2.9 6.3 6.3 0 3.5-2.8 6.3-6.3 6.3s-6.3-2.7-6.3-6.3c0-3.4 2.8-6.3 6.3-6.3z" fill="#b3b3b3"/><path d="m1283.8 183.5v13.1h7.5v8.3h-7.5v15.6c0 2.2 1.7 2.5 3.2 2.5 2.5 0 4.5-.2 4.5-.2v8.4s-4.7.5-7.6.5c-4.9 0-9.9-.8-9.9-7.8v-18.9h-5.4v-8.3h5.4v-13.1h9.8z" fill="#b3b3b3"/><path d="m1307.8 231.1h-9.7v-52.7h9.7z" fill="#b3b3b3"/><path d="m1350 216.8h-25.7c.5 3.8 3.5 6.9 7.9 6.9 2.9 0 5.6-1.2 6.9-3.5l10.2 1.1c-3.1 7.4-9.6 10.8-17.3 10.8-10.3 0-18.1-7.6-18.1-18.2 0-10.5 7.6-18.2 17.9-18.2 9.5 0 18.1 6.2 18.1 20.6v.5zm-25.9-6.6h15.4c-.5-3.5-3.5-6.3-7.6-6.3s-7 2.6-7.8 6.3z" fill="#b3b3b3"/><path d="m1229.1 315.7-10.4-26v37.3h-10.2v-52.7h14.8l11.5 29.9 11.8-29.9h14.1v52.7h-10.4v-37.3l-10.1 26z"/><path d="m1288.8 304c0-2.5-2-4.1-5.7-4.1-3.5 0-7.8 1.7-10.4 3.2l-3.8-7.4s6.4-4.2 14.8-4.2c7.8 0 15 3.6 15 12.7v22.8h-9.8v-3.2c-1.8 2.7-5.7 4.1-9.6 4.1-7.3 0-12.1-5.2-12.1-10.8 0-6.6 4.8-10.6 12.5-10.6h6.8c1.7 0 2.4-.8 2.4-2v-.5zm0 10.6v-2.5c-.6.6-1.7.8-3 .8h-3.7c-3.1 0-4.9 1.4-4.9 3.8 0 2.3 1.9 4.1 4.9 4.1 3.5-.1 6.7-1.9 6.7-6.2z"/><path d="m1341.6 292.4v37.1c0 5.4-2.7 10.6-11.1 10.6h-15v-8.3h12.6c1.7 0 3.7-.5 3.7-3.1v-6.6c-1.7 2.8-5.8 5.2-10.7 5.2-9.3 0-16.6-7.1-16.6-17.9s7.2-17.9 16.5-17.9c5.2 0 9.2 2.4 10.9 5.3 0-.4-.2-1.1-.2-2.9v-1.6h9.9zm-18.3 26.5c5.2 0 8.7-3.8 8.7-9.4s-3.5-9.5-8.7-9.5c-5.1 0-8.7 3.8-8.7 9.5 0 5.5 3.6 9.4 8.7 9.4z"/><path d="m1383.9 312.6h-25.7c.5 3.8 3.5 6.9 7.9 6.9 2.9 0 5.6-1.2 6.9-3.5l10.2 1.1c-3.1 7.4-9.6 10.8-17.3 10.8-10.3 0-18.1-7.6-18.1-18.2 0-10.5 7.6-18.2 17.9-18.2 9.5 0 18.1 6.2 18.1 20.6v.5zm-26-6.6h15.4c-.5-3.5-3.5-6.3-7.6-6.3s-7 2.6-7.8 6.3z"/><path d="m1400.8 274.2h8.8v1.2c-6.6 7.8-11.5 18.8-11.5 30.3s4.8 23.8 11.5 31.6v1.1h-8.8c-7.6-9.3-12.8-20.8-12.8-32.8 0-11.9 5.2-22 12.8-31.4z"/><path d="m1433.3 303c-2.8-2.7-6.3-3.5-8.5-3.5-2.6 0-3.5 1.3-3.5 2.3 0 1.2.8 2 2.6 2.6l5.7 1.8c7.1 2.3 9.5 6.2 9.5 10.7 0 5-4.3 10.9-13.7 10.9-7.6 0-12.4-2.9-15.2-5.4l5.2-6.8c2.5 2.3 6.9 4.3 10.2 4.3 2.3 0 3.8-1.2 3.8-2.6 0-1.7-1.1-2.5-3.9-3.3l-5.9-1.7c-5.6-1.8-8-5.6-8-10.1 0-5.7 5.1-10.7 13.4-10.7 4.5 0 9.9 1.4 13.9 5.1z"/><path d="m1457.7 279.3v13.1h7.5v8.3h-7.5v15.6c0 2.2 1.7 2.5 3.2 2.5 2.5 0 4.5-.2 4.5-.2v8.4s-4.7.5-7.6.5c-4.9 0-9.9-.8-9.9-7.8v-18.9h-5.4v-8.3h5.4v-13.1h9.8z"/><path d="m1493.1 302.1h-4.1c-5 0-7.2 2.3-7.2 8.4v16.5h-9.8v-34.5h9.5v5.5c1.4-3.7 4.7-6 9-6 .9 0 1.8.1 2.7.3v9.8z"/><path d="m1510.4 327h-9.8v-26.2h-4.8v-8.3h14.6zm-5.3-52.8c3.5 0 6.3 2.9 6.3 6.3 0 3.5-2.8 6.3-6.3 6.3s-6.3-2.7-6.3-6.3c0-3.4 2.8-6.3 6.3-6.3z"/><path d="m1538.8 291.5c7.5 0 12.8 4.7 12.8 12.8v22.7h-9.8v-20.1c0-4.4-2.8-6.2-5.9-6.2-2.9 0-5.4 1.6-7.3 3.9v22.4h-9.8v-34.5h9.6v1.4c0 1.2-.2 2.7-.2 2.7 2.7-3.3 6.6-5.1 10.6-5.1z"/><path d="m1594.6 292.4v37.1c0 5.4-2.7 10.6-11.1 10.6h-15v-8.3h12.6c1.7 0 3.7-.5 3.7-3.1v-6.6c-1.7 2.8-5.8 5.2-10.7 5.2-9.3 0-16.6-7.1-16.6-17.9s7.2-17.9 16.5-17.9c5.2 0 9.2 2.4 10.9 5.3 0-.4-.2-1.1-.2-2.9v-1.6h9.9zm-18.3 26.5c5.2 0 8.7-3.8 8.7-9.4s-3.5-9.5-8.7-9.5c-5.1 0-8.7 3.8-8.7 9.5.1 5.5 3.6 9.4 8.7 9.4z"/><path d="m1608.9 338.5h-8.8v-1.1c6.6-7.8 11.5-20.2 11.5-31.6 0-11.5-4.8-22.4-11.5-30.3v-1.2h8.8c7.6 9.4 12.8 19.5 12.8 31.5 0 11.9-5.2 23.4-12.8 32.7z"/><g fill="#b3b3b3"><path d="m1232.9 414c7 0 12.4-3.8 14.3-10h11.5c-3.1 12.4-13.9 19.7-25.8 19.7-15.5 0-27.5-11.4-27.5-27.3s12-27.3 27.5-27.3c11.9 0 22.8 7.2 25.8 19.7h-11.5c-2-6.3-7.3-10-14.3-10-9.9 0-16.6 7.5-16.6 17.6s6.7 17.6 16.6 17.6z"/><path d="m1283.9 399.8c0-2.5-2-4.1-5.7-4.1-3.5 0-7.8 1.7-10.4 3.2l-3.8-7.4s6.4-4.2 14.8-4.2c7.8 0 15 3.6 15 12.7v22.7h-9.8v-3.2c-1.8 2.7-5.7 4.1-9.6 4.1-7.3 0-12.1-5.2-12.1-10.8 0-6.6 4.8-10.6 12.5-10.6h6.8c1.7 0 2.4-.8 2.4-2v-.4zm0 10.6v-2.5c-.6.6-1.7.8-3 .8h-3.7c-3.1 0-4.9 1.4-4.9 3.8 0 2.3 1.9 4.1 4.9 4.1 3.5-.1 6.7-1.9 6.7-6.2z"/><path d="m1322.1 398.8c-2.8-2.7-6.3-3.5-8.5-3.5-2.6 0-3.5 1.3-3.5 2.3 0 1.2.8 2 2.6 2.6l5.7 1.8c7.1 2.3 9.5 6.2 9.5 10.7 0 5-4.3 10.9-13.7 10.9-7.6 0-12.4-2.9-15.2-5.4l5.2-6.8c2.5 2.3 6.9 4.3 10.2 4.3 2.3 0 3.8-1.2 3.8-2.6 0-1.7-1.1-2.5-3.9-3.3l-5.9-1.7c-5.6-1.8-8-5.6-8-10.1 0-5.7 5.1-10.7 13.4-10.7 4.5 0 9.9 1.4 13.9 5.1z"/><path d="m1346.5 375.1v13.1h7.5v8.3h-7.5v15.6c0 2.2 1.7 2.5 3.2 2.5 2.5 0 4.5-.2 4.5-.2v8.4s-4.7.5-7.6.5c-4.9 0-9.9-.8-9.9-7.8v-18.9h-5.4v-8.3h5.4v-13.1h9.8z"/><path d="m1396.6 370 10.1 37.7h.1l8.4-37.7h10.7l-12.9 52.7h-12.1l-9.9-37.9-9.7 37.9h-12.1l-13-52.7h11.3l8.1 37.7h.1l10.1-37.7z"/><path d="m1443.4 422.8h-9.8v-26.2h-4.8v-8.3h14.6zm-5.4-52.8c3.5 0 6.3 2.9 6.3 6.3 0 3.5-2.8 6.3-6.3 6.3s-6.3-2.7-6.3-6.3c.1-3.4 2.9-6.3 6.3-6.3z"/><path d="m1471.8 387.3c7.5 0 12.8 4.7 12.8 12.8v22.6h-9.8v-20.1c0-4.4-2.8-6.2-5.9-6.2-2.9 0-5.4 1.6-7.3 3.9v22.4h-9.8v-34.5h9.6v1.4c0 1.2-.2 2.7-.2 2.7 2.7-3.2 6.6-5 10.6-5z"/><path d="m1518 418.4c-1.7 2.9-5.8 5.3-10.8 5.3-9.5 0-16.7-7.6-16.7-18.2 0-10.5 7.2-18.2 16.6-18.2 5.3 0 9.3 2.4 11 5.3 0-1.1-.2-4-.2-6.6v-16h9.8v52.7h-9.8v-4.3zm-17.4-12.9c0 5.3 3.6 9.5 8.8 9.5s8.8-4.2 8.8-9.5-3.6-9.4-8.8-9.4-8.8 4.1-8.8 9.4z"/><path d="m1564.7 384c-3.2-3.2-7.5-5.4-11.1-5.4-3.5 0-6.6 1.8-6.6 5 0 2.4 1.5 4.3 5.7 6.3l4.4 2c8.4 3.9 13.4 8.3 13.4 16.2s-6.7 15.6-18.3 15.6c-8 0-13.9-3.1-18.9-7.9l5.8-7.8c3.9 4 8.9 6.3 12.9 6.3 4.5 0 7.3-2.5 7.3-5.7 0-3.6-3.2-5.6-8.3-8l-3.7-1.7c-7.1-3.3-11.5-8.1-11.5-14.8 0-9.3 8.3-14.8 17.6-14.8 6.1 0 12.4 3 17.4 7.4z"/><path d="m1588.9 375.1v13.1h7.5v8.3h-7.5v15.6c0 2.2 1.7 2.5 3.2 2.5 2.5 0 4.5-.2 4.5-.2v8.4s-4.7.5-7.6.5c-4.9 0-9.9-.8-9.9-7.8v-18.9h-5.4v-8.3h5.4v-13.1h9.8z"/><path d="m1601 405.5c0-10.5 8.2-18.2 18.5-18.2s18.5 7.6 18.5 18.2c0 10.5-8.2 18.2-18.5 18.2s-18.5-7.7-18.5-18.2zm9.8 0c0 5.3 3.5 9.4 8.7 9.4 5 0 8.6-4.1 8.6-9.4 0-5.4-3.5-9.4-8.6-9.4-5.2 0-8.7 4-8.7 9.4z"/><path d="m1665.3 397.9h-4.1c-5 0-7.2 2.3-7.2 8.4v16.5h-9.8v-34.5h9.5v5.5c1.4-3.7 4.7-6 9-6 .9 0 1.8.1 2.7.3v9.8z"/><path d="m1716.1 402.5c0-4.2-2.7-6-5.7-6-2.8 0-5.3 1.6-7.2 3.9v22.4h-9.8v-20.3c0-4.1-2.6-6-5.7-6-2.8 0-5.3 1.6-7.2 3.9v22.4h-9.8v-34.5h9.6v1.4c0 1.2-.2 2.7-.2 2.7 2.6-3.2 6.4-5 10.3-5 5.1 0 9.1 2.2 11.1 6.3 2.9-4 6.8-6.3 11.6-6.3 7.5 0 12.7 4.7 12.7 12.8v22.6h-9.8v-20.3z"/><path d="m1745.1 370h8.8v1.2c-6.6 7.8-11.5 18.8-11.5 30.3s4.8 23.8 11.5 31.6v1.1h-8.8c-7.6-9.3-12.8-20.8-12.8-32.8 0-11.9 5.2-22 12.8-31.4z"/><path d="m1765.3 434.3h-8.8v-1.1c6.6-7.8 11.5-20.2 11.5-31.6 0-11.5-4.8-22.4-11.5-30.3v-1.3h8.8c7.6 9.4 12.8 19.5 12.8 31.5s-5.2 23.5-12.8 32.8z"/></g><path d="m1232.9 509.8c7 0 12.4-3.8 14.3-10h11.5c-3.1 12.4-13.9 19.7-25.8 19.7-15.5 0-27.5-11.4-27.5-27.3s12-27.3 27.5-27.3c11.9 0 22.8 7.2 25.8 19.7h-11.5c-2-6.3-7.3-10-14.3-10-9.9 0-16.6 7.5-16.6 17.6s6.7 17.6 16.6 17.6z"/><path d="m1283.9 495.6c0-2.5-2-4.1-5.7-4.1-3.5 0-7.8 1.7-10.4 3.2l-3.8-7.4s6.4-4.2 14.8-4.2c7.8 0 15 3.6 15 12.7v22.7h-9.8v-3.2c-1.8 2.7-5.7 4.1-9.6 4.1-7.3 0-12.1-5.2-12.1-10.8 0-6.6 4.8-10.6 12.5-10.6h6.8c1.7 0 2.4-.8 2.4-2v-.4zm0 10.6v-2.5c-.6.6-1.7.8-3 .8h-3.7c-3.1 0-4.9 1.4-4.9 3.8 0 2.3 1.9 4.1 4.9 4.1 3.5-.1 6.7-1.9 6.7-6.2z"/><path d="m1322.1 494.6c-2.8-2.7-6.3-3.5-8.5-3.5-2.6 0-3.5 1.3-3.5 2.3 0 1.2.8 2 2.6 2.6l5.7 1.8c7.1 2.3 9.5 6.2 9.5 10.7 0 5-4.3 10.9-13.7 10.9-7.6 0-12.4-2.9-15.2-5.4l5.2-6.8c2.5 2.3 6.9 4.3 10.2 4.3 2.3 0 3.8-1.2 3.8-2.6 0-1.7-1.1-2.5-3.9-3.3l-5.9-1.7c-5.6-1.8-8-5.6-8-10.1 0-5.7 5.1-10.7 13.4-10.7 4.5 0 9.9 1.4 13.9 5.1z"/><path d="m1346.5 470.9v13.1h7.5v8.3h-7.5v15.6c0 2.2 1.7 2.5 3.2 2.5 2.5 0 4.5-.2 4.5-.2v8.4s-4.7.5-7.6.5c-4.9 0-9.9-.8-9.9-7.8v-18.9h-5.4v-8.3h5.4v-13.1h9.8z"/><path d="m1379.5 498.3h-7.4v20.3h-10.5v-52.7h19.8c11.5 0 18.3 6.9 18.3 16 0 5-2 11.3-10 14.5l13.5 22.2h-12.1zm.6-23.4h-8v14.3h8c5.8 0 9.2-2.7 9.2-7.2 0-4.7-3.4-7.1-9.2-7.1z"/><path d="m1426.4 495.6c0-2.5-2-4.1-5.7-4.1-3.5 0-7.8 1.7-10.4 3.2l-3.8-7.4s6.4-4.2 14.8-4.2c7.8 0 15 3.6 15 12.7v22.7h-9.8v-3.2c-1.8 2.7-5.7 4.1-9.6 4.1-7.3 0-12.1-5.2-12.1-10.8 0-6.6 4.8-10.6 12.5-10.6h6.8c1.7 0 2.4-.8 2.4-2v-.4zm0 10.6v-2.5c-.6.6-1.7.8-3 .8h-3.7c-3.1 0-4.9 1.4-4.9 3.8 0 2.3 1.9 4.1 4.9 4.1 3.6-.1 6.7-1.9 6.7-6.2z"/><path d="m1456.1 518.6h-9.8v-26.2h-4.8v-8.3h14.6zm-5.3-52.8c3.5 0 6.3 2.9 6.3 6.3 0 3.5-2.8 6.3-6.3 6.3s-6.3-2.7-6.3-6.3c0-3.4 2.8-6.3 6.3-6.3z"/><path d="m1484.5 483.1c7.5 0 12.8 4.7 12.8 12.8v22.6h-9.8v-20.1c0-4.4-2.8-6.2-5.9-6.2-2.9 0-5.4 1.6-7.3 3.9v22.4h-9.8v-34.5h9.6v1.4c0 1.2-.2 2.7-.2 2.7 2.7-3.2 6.6-5 10.6-5z"/><path d="m1533.2 479.8c-3.2-3.2-7.5-5.4-11.1-5.4-3.5 0-6.6 1.8-6.6 5 0 2.4 1.5 4.3 5.7 6.3l4.4 2c8.4 3.9 13.4 8.3 13.4 16.2s-6.7 15.6-18.3 15.6c-8 0-13.9-3.1-18.9-7.9l5.8-7.8c3.9 4 8.9 6.3 12.9 6.3 4.5 0 7.3-2.5 7.3-5.7 0-3.6-3.2-5.6-8.3-8l-3.7-1.7c-7.1-3.3-11.5-8.1-11.5-14.8 0-9.3 8.3-14.8 17.6-14.8 6.1 0 12.4 3 17.4 7.4z"/><path d="m1557.5 470.9v13.1h7.5v8.3h-7.5v15.6c0 2.2 1.7 2.5 3.2 2.5 2.5 0 4.5-.2 4.5-.2v8.4s-4.7.5-7.6.5c-4.9 0-9.9-.8-9.9-7.8v-18.9h-5.4v-8.3h5.4v-13.1h9.8z"/><path d="m1569.5 501.3c0-10.5 8.2-18.2 18.5-18.2s18.5 7.6 18.5 18.2c0 10.5-8.2 18.2-18.5 18.2s-18.5-7.7-18.5-18.2zm9.8 0c0 5.3 3.5 9.4 8.7 9.4 5 0 8.6-4.1 8.6-9.4 0-5.4-3.5-9.4-8.6-9.4s-8.7 4-8.7 9.4z"/><path d="m1633.9 493.7h-4.1c-5 0-7.2 2.3-7.2 8.4v16.5h-9.8v-34.5h9.5v5.5c1.4-3.7 4.7-6 9-6 .9 0 1.8.1 2.7.3v9.8z"/><path d="m1684.7 498.3c0-4.2-2.7-6-5.7-6-2.8 0-5.3 1.6-7.2 3.9v22.4h-9.8v-20.3c0-4.1-2.6-6-5.7-6-2.8 0-5.3 1.6-7.2 3.9v22.4h-9.8v-34.5h9.6v1.4c0 1.2-.2 2.7-.2 2.7 2.6-3.2 6.4-5 10.3-5 5.1 0 9.1 2.2 11.1 6.3 2.9-4 6.8-6.3 11.6-6.3 7.5 0 12.7 4.7 12.7 12.8v22.6h-9.8v-20.3z"/><path d="m1713.7 465.8h8.8v1.2c-6.6 7.8-11.5 18.8-11.5 30.3s4.8 23.8 11.5 31.6v1.1h-8.8c-7.6-9.3-12.8-20.8-12.8-32.8 0-11.9 5.2-22 12.8-31.4z"/><path d="m1733.9 530.1h-8.8v-1.1c6.6-7.8 11.5-20.2 11.5-31.6 0-11.5-4.8-22.4-11.5-30.3v-1.2h8.8c7.6 9.4 12.8 19.5 12.8 31.5 0 11.9-5.2 23.4-12.8 32.7z"/><path d="m1229.1 80.9-10.4-26v37.3h-10.2v-52.7h14.8l11.5 29.9 11.8-29.9h14.1v52.7h-10.4v-37.2l-10.1 26h-11.1z"/><path d="m1288.8 69.3c0-2.5-2-4.1-5.7-4.1-3.5 0-7.8 1.7-10.4 3.2l-3.8-7.4s6.4-4.2 14.8-4.2c7.8 0 15 3.6 15 12.7v22.7h-9.8v-3.2c-1.8 2.7-5.7 4.1-9.6 4.1-7.3 0-12.1-5.2-12.1-10.8 0-6.6 4.8-10.6 12.5-10.6h6.8c1.7 0 2.4-.8 2.4-2v-.4zm0 10.6v-2.5c-.6.6-1.7.8-3 .8h-3.7c-3.1 0-4.9 1.4-4.9 3.8 0 2.3 1.9 4.1 4.9 4.1 3.5-.1 6.7-1.9 6.7-6.2z"/><path d="m1341.6 57.7v37.1c0 5.4-2.7 10.6-11.1 10.6h-15v-8.3h12.6c1.7 0 3.7-.5 3.7-3.1v-6.6c-1.7 2.8-5.8 5.2-10.7 5.2-9.3 0-16.6-7.1-16.6-17.9s7.2-17.9 16.5-17.9c5.2 0 9.2 2.4 10.9 5.3 0-.4-.2-1.1-.2-2.9v-1.6h9.9zm-18.3 26.5c5.2 0 8.7-3.8 8.7-9.4s-3.5-9.5-8.7-9.5c-5.1 0-8.7 3.8-8.7 9.5 0 5.5 3.6 9.4 8.7 9.4z"/><path d="m1383.9 77.9h-25.7c.5 3.8 3.5 6.9 7.9 6.9 2.9 0 5.6-1.2 6.9-3.5l10.2 1.1c-3.1 7.4-9.6 10.8-17.3 10.8-10.3 0-18.1-7.6-18.1-18.2 0-10.5 7.6-18.2 17.9-18.2 9.5 0 18.1 6.2 18.1 20.6v.5zm-26-6.6h15.4c-.5-3.5-3.5-6.3-7.6-6.3s-7 2.6-7.8 6.3z"/><path d="m2277.9 17.8h804.5v743.1h-804.5z" fill="#fff" stroke="#000" stroke-miterlimit="10" stroke-width="8"/><path d="m2277.9 8.2h804.5v119.6h-804.5z" fill="#fd92f3" stroke="#000" stroke-miterlimit="10" stroke-width="8"/><path d="m2370.6 178.4v9.3h-15.7v43.4h-10.4v-43.4h-15.7v-9.3z" fill="#b3b3b3"/><path d="m2387.7 231.1h-9.8v-26.2h-4.8v-8.3h14.6zm-5.3-52.7c3.5 0 6.3 2.9 6.3 6.3 0 3.5-2.8 6.3-6.3 6.3s-6.3-2.7-6.3-6.3c0-3.4 2.8-6.3 6.3-6.3z" fill="#b3b3b3"/><path d="m2408.5 183.5v13.1h7.5v8.3h-7.5v15.6c0 2.2 1.7 2.5 3.2 2.5 2.5 0 4.5-.2 4.5-.2v8.4s-4.7.5-7.6.5c-4.9 0-9.9-.8-9.9-7.8v-18.9h-5.4v-8.3h5.4v-13.1h9.8z" fill="#b3b3b3"/><path d="m2432.5 231.1h-9.7v-52.7h9.7z" fill="#b3b3b3"/><path d="m2474.7 216.8h-25.7c.5 3.8 3.5 6.9 7.9 6.9 2.9 0 5.6-1.2 6.9-3.5l10.2 1.1c-3.1 7.4-9.6 10.8-17.3 10.8-10.3 0-18.1-7.6-18.1-18.2 0-10.5 7.6-18.2 17.9-18.2 9.5 0 18.1 6.2 18.1 20.6v.5zm-25.9-6.6h15.4c-.5-3.5-3.5-6.3-7.6-6.3s-7 2.6-7.8 6.3z" fill="#b3b3b3"/><path d="m2375.5 327h-11.3l-4.5-14.4h-15.9l-4.2 14.4h-11l17-52.7h12.5zm-23.8-41.5h-.2l-5.3 18.1h10.8z"/><path d="m2401.4 302.1h-4.1c-5 0-7.2 2.3-7.2 8.4v16.5h-9.8v-34.5h9.5v5.5c1.4-3.7 4.7-6 9-6 .9 0 1.8.1 2.7.3v9.8z"/><path d="m2414.2 309.7c0 5.4 3.5 9.4 8.7 9.4 3.6 0 6.3-2 7.6-5.3l9.2 2.9c-2.3 6.9-9 11.1-16.9 11.1-10.2 0-18.4-7.6-18.4-18.2 0-10.5 8.1-18.2 18.4-18.2 7.8 0 14.6 4.4 16.9 11.2l-9.2 2.8c-1.3-3.2-4-5.3-7.6-5.3-5.2.2-8.7 4.2-8.7 9.6z"/><path d="m2465.4 291.5c7.5 0 12.8 4.7 12.8 12.8v22.7h-9.8v-20.1c0-4.4-2.8-6.2-5.9-6.2-2.9 0-5.4 1.6-7.3 3.9v22.4h-9.8v-52.7h9.6v19.6c0 1.2-.2 2.7-.2 2.7 2.8-3.3 6.7-5.1 10.6-5.1z"/><path d="m2531.6 306.7c0-4.2-2.7-6-5.7-6-2.8 0-5.3 1.6-7.2 3.9v22.4h-9.8v-20.3c0-4.1-2.6-6-5.7-6-2.8 0-5.3 1.6-7.2 3.9v22.4h-9.8v-34.5h9.6v1.4c0 1.2-.2 2.7-.2 2.7 2.6-3.2 6.4-5 10.3-5 5.1 0 9.1 2.2 11.1 6.3 2.9-4 6.8-6.3 11.6-6.3 7.5 0 12.7 4.7 12.7 12.8v22.6h-9.8v-20.3z"/><path d="m2568.6 304c0-2.5-2-4.1-5.7-4.1-3.5 0-7.8 1.7-10.4 3.2l-3.8-7.4s6.4-4.2 14.8-4.2c7.8 0 15 3.6 15 12.7v22.8h-9.8v-3.2c-1.8 2.7-5.7 4.1-9.6 4.1-7.3 0-12.1-5.2-12.1-10.8 0-6.6 4.8-10.6 12.5-10.6h6.8c1.7 0 2.4-.8 2.4-2v-.5zm0 10.6v-2.5c-.6.6-1.7.8-3 .8h-3.7c-3.1 0-4.9 1.4-4.9 3.8 0 2.3 1.9 4.1 4.9 4.1 3.5-.1 6.7-1.9 6.7-6.2z"/><path d="m2621.4 292.4v37.1c0 5.4-2.7 10.6-11.1 10.6h-15v-8.3h12.6c1.7 0 3.7-.5 3.7-3.1v-6.6c-1.7 2.8-5.8 5.2-10.7 5.2-9.3 0-16.6-7.1-16.6-17.9s7.2-17.9 16.5-17.9c5.2 0 9.2 2.4 10.9 5.3 0-.4-.2-1.1-.2-2.9v-1.6h9.9zm-18.3 26.5c5.2 0 8.7-3.8 8.7-9.4s-3.5-9.5-8.7-9.5c-5.1 0-8.7 3.8-8.7 9.5 0 5.5 3.6 9.4 8.7 9.4z"/><path d="m2663.7 312.6h-25.7c.5 3.8 3.5 6.9 7.9 6.9 2.9 0 5.6-1.2 6.9-3.5l10.2 1.1c-3.1 7.4-9.6 10.8-17.3 10.8-10.3 0-18.1-7.6-18.1-18.2 0-10.5 7.6-18.2 17.9-18.2 9.5 0 18.1 6.2 18.1 20.6v.5zm-25.9-6.6h15.4c-.5-3.5-3.5-6.3-7.6-6.3-4.2 0-7.1 2.6-7.8 6.3z"/><path d="m2680.6 274.2h8.8v1.2c-6.6 7.8-11.5 18.8-11.5 30.3s4.8 23.8 11.5 31.6v1.1h-8.8c-7.6-9.3-12.8-20.8-12.8-32.8 0-11.9 5.2-22 12.8-31.4z"/><path d="m2713.1 303c-2.8-2.7-6.3-3.5-8.5-3.5-2.6 0-3.5 1.3-3.5 2.3 0 1.2.8 2 2.6 2.6l5.7 1.8c7.1 2.3 9.5 6.2 9.5 10.7 0 5-4.3 10.9-13.7 10.9-7.6 0-12.4-2.9-15.2-5.4l5.2-6.8c2.5 2.3 6.9 4.3 10.2 4.3 2.3 0 3.8-1.2 3.8-2.6 0-1.7-1.1-2.5-3.9-3.3l-5.9-1.7c-5.6-1.8-8-5.6-8-10.1 0-5.7 5.1-10.7 13.4-10.7 4.5 0 9.9 1.4 13.9 5.1z"/><path d="m2737.5 279.3v13.1h7.5v8.3h-7.5v15.6c0 2.2 1.7 2.5 3.2 2.5 2.5 0 4.5-.2 4.5-.2v8.4s-4.7.5-7.6.5c-4.9 0-9.9-.8-9.9-7.8v-18.9h-5.4v-8.3h5.4v-13.1h9.8z"/><path d="m2772.9 302.1h-4.1c-5 0-7.2 2.3-7.2 8.4v16.5h-9.8v-34.5h9.5v5.5c1.4-3.7 4.7-6 9-6 .9 0 1.8.1 2.7.3v9.8z"/><path d="m2790.2 327h-9.8v-26.2h-4.8v-8.3h14.6zm-5.3-52.8c3.5 0 6.3 2.9 6.3 6.3 0 3.5-2.8 6.3-6.3 6.3s-6.3-2.7-6.3-6.3c0-3.4 2.8-6.3 6.3-6.3z"/><path d="m2818.6 291.5c7.5 0 12.8 4.7 12.8 12.8v22.7h-9.8v-20.1c0-4.4-2.8-6.2-5.9-6.2-2.9 0-5.4 1.6-7.3 3.9v22.4h-9.8v-34.5h9.6v1.4c0 1.2-.2 2.7-.2 2.7 2.7-3.3 6.6-5.1 10.6-5.1z"/><path d="m2874.4 292.4v37.1c0 5.4-2.7 10.6-11.1 10.6h-15v-8.3h12.6c1.7 0 3.7-.5 3.7-3.1v-6.6c-1.7 2.8-5.8 5.2-10.7 5.2-9.3 0-16.6-7.1-16.6-17.9s7.2-17.9 16.5-17.9c5.2 0 9.2 2.4 10.9 5.3 0-.4-.2-1.1-.2-2.9v-1.6h9.9zm-18.3 26.5c5.2 0 8.7-3.8 8.7-9.4s-3.5-9.5-8.7-9.5c-5.1 0-8.7 3.8-8.7 9.5.1 5.5 3.6 9.4 8.7 9.4z"/><path d="m2888.8 338.5h-8.8v-1.1c6.6-7.8 11.5-20.2 11.5-31.6 0-11.5-4.8-22.4-11.5-30.3v-1.2h8.8c7.6 9.4 12.8 19.5 12.8 31.5 0 11.9-5.2 23.4-12.8 32.7z"/><path d="m2357.6 414c7 0 12.4-3.8 14.3-10h11.5c-3.1 12.4-13.9 19.7-25.8 19.7-15.5 0-27.5-11.4-27.5-27.3s12-27.3 27.5-27.3c11.9 0 22.8 7.2 25.8 19.7h-11.5c-2-6.3-7.3-10-14.3-10-9.9 0-16.6 7.5-16.6 17.6s6.7 17.6 16.6 17.6z" fill="#b3b3b3"/><path d="m2408.6 399.8c0-2.5-2-4.1-5.7-4.1-3.5 0-7.8 1.7-10.4 3.2l-3.8-7.4s6.4-4.2 14.8-4.2c7.8 0 15 3.6 15 12.7v22.7h-9.8v-3.2c-1.8 2.7-5.7 4.1-9.6 4.1-7.3 0-12.1-5.2-12.1-10.8 0-6.6 4.8-10.6 12.5-10.6h6.8c1.7 0 2.4-.8 2.4-2v-.4zm0 10.6v-2.5c-.6.6-1.7.8-3 .8h-3.7c-3.1 0-4.9 1.4-4.9 3.8 0 2.3 1.9 4.1 4.9 4.1 3.5-.1 6.7-1.9 6.7-6.2z" fill="#b3b3b3"/><path d="m2446.8 398.8c-2.8-2.7-6.3-3.5-8.5-3.5-2.6 0-3.5 1.3-3.5 2.3 0 1.2.8 2 2.6 2.6l5.7 1.8c7.1 2.3 9.5 6.2 9.5 10.7 0 5-4.3 10.9-13.7 10.9-7.6 0-12.4-2.9-15.2-5.4l5.2-6.8c2.5 2.3 6.9 4.3 10.2 4.3 2.3 0 3.8-1.2 3.8-2.6 0-1.7-1.1-2.5-3.9-3.3l-5.9-1.7c-5.6-1.8-8-5.6-8-10.1 0-5.7 5.1-10.7 13.4-10.7 4.5 0 9.9 1.4 13.9 5.1z" fill="#b3b3b3"/><path d="m2471.2 375.1v13.1h7.5v8.3h-7.5v15.6c0 2.2 1.7 2.5 3.2 2.5 2.5 0 4.5-.2 4.5-.2v8.4s-4.7.5-7.6.5c-4.9 0-9.9-.8-9.9-7.8v-18.9h-5.4v-8.3h5.4v-13.1h9.8z" fill="#b3b3b3"/><path d="m2521.3 370 10.1 37.7h.1l8.4-37.7h10.7l-12.9 52.7h-12.1l-9.9-37.9-9.7 37.9h-12.1l-13-52.7h11.3l8.1 37.7h.1l10.1-37.7z" fill="#b3b3b3"/><path d="m2568.1 422.8h-9.8v-26.2h-4.8v-8.3h14.6zm-5.4-52.8c3.5 0 6.3 2.9 6.3 6.3 0 3.5-2.8 6.3-6.3 6.3s-6.3-2.7-6.3-6.3c.1-3.4 2.9-6.3 6.3-6.3z" fill="#b3b3b3"/><path d="m2596.5 387.3c7.5 0 12.8 4.7 12.8 12.8v22.6h-9.8v-20.1c0-4.4-2.8-6.2-5.9-6.2-2.9 0-5.4 1.6-7.3 3.9v22.4h-9.8v-34.5h9.6v1.4c0 1.2-.2 2.7-.2 2.7 2.7-3.2 6.6-5 10.6-5z" fill="#b3b3b3"/><path d="m2642.7 418.4c-1.7 2.9-5.8 5.3-10.8 5.3-9.5 0-16.7-7.6-16.7-18.2 0-10.5 7.2-18.2 16.6-18.2 5.3 0 9.3 2.4 11 5.3 0-1.1-.2-4-.2-6.6v-16h9.8v52.7h-9.8v-4.3zm-17.4-12.9c0 5.3 3.6 9.5 8.8 9.5s8.8-4.2 8.8-9.5-3.6-9.4-8.8-9.4-8.8 4.1-8.8 9.4z" fill="#b3b3b3"/><path d="m2689.4 384c-3.2-3.2-7.5-5.4-11.1-5.4-3.5 0-6.6 1.8-6.6 5 0 2.4 1.5 4.3 5.7 6.3l4.4 2c8.4 3.9 13.4 8.3 13.4 16.2s-6.7 15.6-18.3 15.6c-8 0-13.9-3.1-18.9-7.9l5.8-7.8c3.9 4 8.9 6.3 12.9 6.3 4.5 0 7.3-2.5 7.3-5.7 0-3.6-3.2-5.6-8.3-8l-3.7-1.7c-7.1-3.3-11.5-8.1-11.5-14.8 0-9.3 8.3-14.8 17.6-14.8 6.1 0 12.4 3 17.4 7.4z" fill="#b3b3b3"/><path d="m2713.6 375.1v13.1h7.5v8.3h-7.5v15.6c0 2.2 1.7 2.5 3.2 2.5 2.5 0 4.5-.2 4.5-.2v8.4s-4.7.5-7.6.5c-4.9 0-9.9-.8-9.9-7.8v-18.9h-5.4v-8.3h5.4v-13.1h9.8z" fill="#b3b3b3"/><path d="m2725.7 405.5c0-10.5 8.2-18.2 18.5-18.2s18.5 7.6 18.5 18.2c0 10.5-8.2 18.2-18.5 18.2s-18.5-7.7-18.5-18.2zm9.8 0c0 5.3 3.5 9.4 8.7 9.4 5 0 8.6-4.1 8.6-9.4 0-5.4-3.5-9.4-8.6-9.4-5.2 0-8.7 4-8.7 9.4z" fill="#b3b3b3"/><path d="m2790 397.9h-4.1c-5 0-7.2 2.3-7.2 8.4v16.5h-9.8v-34.5h9.5v5.5c1.4-3.7 4.7-6 9-6 .9 0 1.8.1 2.7.3v9.8z" fill="#b3b3b3"/><path d="m2840.8 402.5c0-4.2-2.7-6-5.7-6-2.8 0-5.3 1.6-7.2 3.9v22.4h-9.8v-20.3c0-4.1-2.6-6-5.7-6-2.8 0-5.3 1.6-7.2 3.9v22.4h-9.8v-34.5h9.6v1.4c0 1.2-.2 2.7-.2 2.7 2.6-3.2 6.4-5 10.3-5 5.1 0 9.1 2.2 11.1 6.3 2.9-4 6.8-6.3 11.6-6.3 7.5 0 12.7 4.7 12.7 12.8v22.6h-9.8v-20.3z" fill="#b3b3b3"/><path d="m2869.8 370h8.8v1.2c-6.6 7.8-11.5 18.8-11.5 30.3s4.8 23.8 11.5 31.6v1.1h-8.8c-7.6-9.3-12.8-20.8-12.8-32.8 0-11.9 5.2-22 12.8-31.4z" fill="#b3b3b3"/><path d="m2890 434.3h-8.8v-1.1c6.6-7.8 11.5-20.2 11.5-31.6 0-11.5-4.8-22.4-11.5-30.3v-1.3h8.8c7.6 9.4 12.8 19.5 12.8 31.5s-5.2 23.5-12.8 32.8z" fill="#b3b3b3"/><path d="m2357.6 509.8c7 0 12.4-3.8 14.3-10h11.5c-3.1 12.4-13.9 19.7-25.8 19.7-15.5 0-27.5-11.4-27.5-27.3s12-27.3 27.5-27.3c11.9 0 22.8 7.2 25.8 19.7h-11.5c-2-6.3-7.3-10-14.3-10-9.9 0-16.6 7.5-16.6 17.6s6.7 17.6 16.6 17.6z"/><path d="m2408.6 495.6c0-2.5-2-4.1-5.7-4.1-3.5 0-7.8 1.7-10.4 3.2l-3.8-7.4s6.4-4.2 14.8-4.2c7.8 0 15 3.6 15 12.7v22.7h-9.8v-3.2c-1.8 2.7-5.7 4.1-9.6 4.1-7.3 0-12.1-5.2-12.1-10.8 0-6.6 4.8-10.6 12.5-10.6h6.8c1.7 0 2.4-.8 2.4-2v-.4zm0 10.6v-2.5c-.6.6-1.7.8-3 .8h-3.7c-3.1 0-4.9 1.4-4.9 3.8 0 2.3 1.9 4.1 4.9 4.1 3.5-.1 6.7-1.9 6.7-6.2z"/><path d="m2446.8 494.6c-2.8-2.7-6.3-3.5-8.5-3.5-2.6 0-3.5 1.3-3.5 2.3 0 1.2.8 2 2.6 2.6l5.7 1.8c7.1 2.3 9.5 6.2 9.5 10.7 0 5-4.3 10.9-13.7 10.9-7.6 0-12.4-2.9-15.2-5.4l5.2-6.8c2.5 2.3 6.9 4.3 10.2 4.3 2.3 0 3.8-1.2 3.8-2.6 0-1.7-1.1-2.5-3.9-3.3l-5.9-1.7c-5.6-1.8-8-5.6-8-10.1 0-5.7 5.1-10.7 13.4-10.7 4.5 0 9.9 1.4 13.9 5.1z"/><path d="m2471.2 470.9v13.1h7.5v8.3h-7.5v15.6c0 2.2 1.7 2.5 3.2 2.5 2.5 0 4.5-.2 4.5-.2v8.4s-4.7.5-7.6.5c-4.9 0-9.9-.8-9.9-7.8v-18.9h-5.4v-8.3h5.4v-13.1h9.8z"/><path d="m2504.2 498.3h-7.4v20.3h-10.5v-52.7h19.8c11.5 0 18.3 6.9 18.3 16 0 5-2 11.3-10 14.5l13.5 22.2h-12.1zm.6-23.4h-8v14.3h8c5.8 0 9.2-2.7 9.2-7.2 0-4.7-3.4-7.1-9.2-7.1z"/><path d="m2551.1 495.6c0-2.5-2-4.1-5.7-4.1-3.5 0-7.8 1.7-10.4 3.2l-3.8-7.4s6.4-4.2 14.8-4.2c7.8 0 15 3.6 15 12.7v22.7h-9.8v-3.2c-1.8 2.7-5.7 4.1-9.6 4.1-7.3 0-12.1-5.2-12.1-10.8 0-6.6 4.8-10.6 12.5-10.6h6.8c1.7 0 2.4-.8 2.4-2v-.4zm0 10.6v-2.5c-.6.6-1.7.8-3 .8h-3.7c-3.1 0-4.9 1.4-4.9 3.8 0 2.3 1.9 4.1 4.9 4.1 3.6-.1 6.7-1.9 6.7-6.2z"/><path d="m2580.8 518.6h-9.8v-26.2h-4.8v-8.3h14.6zm-5.3-52.8c3.5 0 6.3 2.9 6.3 6.3 0 3.5-2.8 6.3-6.3 6.3s-6.3-2.7-6.3-6.3c0-3.4 2.8-6.3 6.3-6.3z"/><path d="m2609.2 483.1c7.5 0 12.8 4.7 12.8 12.8v22.6h-9.8v-20.1c0-4.4-2.8-6.2-5.9-6.2-2.9 0-5.4 1.6-7.3 3.9v22.4h-9.8v-34.5h9.6v1.4c0 1.2-.2 2.7-.2 2.7 2.7-3.2 6.6-5 10.6-5z"/><path d="m2657.9 479.8c-3.2-3.2-7.5-5.4-11.1-5.4-3.5 0-6.6 1.8-6.6 5 0 2.4 1.5 4.3 5.7 6.3l4.4 2c8.4 3.9 13.4 8.3 13.4 16.2s-6.7 15.6-18.3 15.6c-8 0-13.9-3.1-18.9-7.9l5.8-7.8c3.9 4 8.9 6.3 12.9 6.3 4.5 0 7.3-2.5 7.3-5.7 0-3.6-3.2-5.6-8.3-8l-3.7-1.7c-7.1-3.3-11.5-8.1-11.5-14.8 0-9.3 8.3-14.8 17.6-14.8 6.1 0 12.4 3 17.4 7.4z"/><path d="m2682.2 470.9v13.1h7.5v8.3h-7.5v15.6c0 2.2 1.7 2.5 3.2 2.5 2.5 0 4.5-.2 4.5-.2v8.4s-4.7.5-7.6.5c-4.9 0-9.9-.8-9.9-7.8v-18.9h-5.4v-8.3h5.4v-13.1h9.8z"/><path d="m2694.3 501.3c0-10.5 8.2-18.2 18.5-18.2s18.5 7.6 18.5 18.2c0 10.5-8.2 18.2-18.5 18.2s-18.5-7.7-18.5-18.2zm9.7 0c0 5.3 3.5 9.4 8.7 9.4 5 0 8.6-4.1 8.6-9.4 0-5.4-3.5-9.4-8.6-9.4s-8.7 4-8.7 9.4z"/><path d="m2758.6 493.7h-4.1c-5 0-7.2 2.3-7.2 8.4v16.5h-9.8v-34.5h9.5v5.5c1.4-3.7 4.7-6 9-6 .9 0 1.8.1 2.7.3v9.8z"/><path d="m2809.4 498.3c0-4.2-2.7-6-5.7-6-2.8 0-5.3 1.6-7.2 3.9v22.4h-9.8v-20.3c0-4.1-2.6-6-5.7-6-2.8 0-5.3 1.6-7.2 3.9v22.4h-9.8v-34.5h9.6v1.4c0 1.2-.2 2.7-.2 2.7 2.6-3.2 6.4-5 10.3-5 5.1 0 9.1 2.2 11.1 6.3 2.9-4 6.8-6.3 11.6-6.3 7.5 0 12.7 4.7 12.7 12.8v22.6h-9.8v-20.3z"/><path d="m2838.4 465.8h8.8v1.2c-6.6 7.8-11.5 18.8-11.5 30.3s4.8 23.8 11.5 31.6v1.1h-8.8c-7.6-9.3-12.8-20.8-12.8-32.8 0-11.9 5.2-22 12.8-31.4z"/><path d="m2858.6 530.1h-8.8v-1.1c6.6-7.8 11.5-20.2 11.5-31.6 0-11.5-4.8-22.4-11.5-30.3v-1.2h8.8c7.6 9.4 12.8 19.5 12.8 31.5 0 11.9-5.2 23.4-12.8 32.7z"/><path d="m2357.6 605.6c7 0 12.4-3.8 14.3-10h11.5c-3.1 12.4-13.9 19.7-25.8 19.7-15.5 0-27.5-11.4-27.5-27.3s12-27.3 27.5-27.3c11.9 0 22.8 7.2 25.8 19.7h-11.5c-2-6.3-7.3-10-14.3-10-9.9 0-16.6 7.5-16.6 17.6s6.7 17.6 16.6 17.6z"/><path d="m2408.6 591.4c0-2.5-2-4.1-5.7-4.1-3.5 0-7.8 1.7-10.4 3.2l-3.8-7.4s6.4-4.2 14.8-4.2c7.8 0 15 3.6 15 12.7v22.7h-9.8v-3.2c-1.8 2.7-5.7 4.1-9.6 4.1-7.3 0-12.1-5.2-12.1-10.8 0-6.6 4.8-10.6 12.5-10.6h6.8c1.7 0 2.4-.8 2.4-2v-.4zm0 10.6v-2.5c-.6.6-1.7.8-3 .8h-3.7c-3.1 0-4.9 1.4-4.9 3.8 0 2.3 1.9 4.1 4.9 4.1 3.5-.1 6.7-1.9 6.7-6.2z"/><path d="m2446.8 590.4c-2.8-2.7-6.3-3.5-8.5-3.5-2.6 0-3.5 1.3-3.5 2.3 0 1.2.8 2 2.6 2.6l5.7 1.8c7.1 2.3 9.5 6.2 9.5 10.7 0 5-4.3 10.9-13.7 10.9-7.6 0-12.4-2.9-15.2-5.4l5.2-6.8c2.5 2.3 6.9 4.3 10.2 4.3 2.3 0 3.8-1.2 3.8-2.6 0-1.7-1.1-2.5-3.9-3.3l-5.9-1.7c-5.6-1.8-8-5.6-8-10.1 0-5.7 5.1-10.7 13.4-10.7 4.5 0 9.9 1.4 13.9 5.1z"/><path d="m2471.2 566.7v13.1h7.5v8.3h-7.5v15.6c0 2.2 1.7 2.5 3.2 2.5 2.5 0 4.5-.2 4.5-.2v8.4s-4.7.5-7.6.5c-4.9 0-9.9-.8-9.9-7.8v-18.9h-5.4v-8.3h5.4v-13.1h9.8z"/><path d="m2486.3 614.4v-52.7h10.5v43.8h22.4v9h-32.9z"/><path d="m2535.4 614.4h-9.8v-26.2h-4.8v-8.3h14.6zm-5.4-52.8c3.5 0 6.3 2.9 6.3 6.3 0 3.5-2.8 6.3-6.3 6.3s-6.3-2.7-6.3-6.3c.1-3.4 2.9-6.3 6.3-6.3z"/><path d="m2578.8 579.9v37.1c0 5.4-2.7 10.6-11.1 10.6h-15v-8.3h12.6c1.7 0 3.7-.5 3.7-3.1v-6.6c-1.7 2.8-5.8 5.2-10.7 5.2-9.3 0-16.6-7.1-16.6-17.9s7.2-17.9 16.5-17.9c5.2 0 9.2 2.4 10.9 5.3 0-.4-.2-1.1-.2-2.9v-1.6h9.9zm-18.3 26.4c5.2 0 8.7-3.8 8.7-9.4s-3.5-9.5-8.7-9.5c-5.1 0-8.7 3.8-8.7 9.5 0 5.6 3.5 9.4 8.7 9.4z"/><path d="m2607.2 578.9c7.5 0 12.8 4.7 12.8 12.8v22.6h-9.8v-20.1c0-4.4-2.8-6.2-5.9-6.2-2.9 0-5.4 1.6-7.3 3.9v22.4h-9.8v-52.7h9.6v19.6c0 1.2-.2 2.7-.2 2.7 2.7-3.2 6.7-5 10.6-5z"/><path d="m2640.4 566.7v13.1h7.5v8.3h-7.5v15.6c0 2.2 1.7 2.5 3.2 2.5 2.5 0 4.5-.2 4.5-.2v8.4s-4.7.5-7.6.5c-4.9 0-9.9-.8-9.9-7.8v-18.9h-5.4v-8.3h5.4v-13.1h9.8z"/><path d="m2674.6 578.9c7.5 0 12.8 4.7 12.8 12.8v22.6h-9.8v-20.1c0-4.4-2.8-6.2-5.9-6.2-2.9 0-5.4 1.6-7.3 3.9v22.4h-9.8v-34.5h9.6v1.4c0 1.2-.2 2.7-.2 2.7 2.7-3.2 6.6-5 10.6-5z"/><path d="m2707.3 614.4h-9.8v-26.2h-4.8v-8.3h14.6zm-5.4-52.8c3.5 0 6.3 2.9 6.3 6.3 0 3.5-2.8 6.3-6.3 6.3s-6.3-2.7-6.3-6.3c.1-3.4 2.9-6.3 6.3-6.3z"/><path d="m2735.7 578.9c7.5 0 12.8 4.7 12.8 12.8v22.6h-9.8v-20.1c0-4.4-2.8-6.2-5.9-6.2-2.9 0-5.4 1.6-7.3 3.9v22.4h-9.8v-34.5h9.6v1.4c0 1.2-.2 2.7-.2 2.7 2.7-3.2 6.6-5 10.6-5z"/><path d="m2791.5 579.9v37.1c0 5.4-2.7 10.6-11.1 10.6h-15v-8.3h12.6c1.7 0 3.7-.5 3.7-3.1v-6.6c-1.7 2.8-5.8 5.2-10.7 5.2-9.3 0-16.6-7.1-16.6-17.9s7.2-17.9 16.5-17.9c5.2 0 9.2 2.4 10.9 5.3 0-.4-.2-1.1-.2-2.9v-1.6h9.9zm-18.3 26.4c5.2 0 8.7-3.8 8.7-9.4s-3.5-9.5-8.7-9.5c-5.1 0-8.7 3.8-8.7 9.5 0 5.6 3.6 9.4 8.7 9.4z"/><path d="m2827.9 575.6c-3.2-3.2-7.5-5.4-11.1-5.4-3.5 0-6.6 1.8-6.6 5 0 2.4 1.5 4.3 5.7 6.3l4.4 2c8.4 3.9 13.4 8.3 13.4 16.2s-6.7 15.6-18.3 15.6c-8 0-13.9-3.1-18.9-7.9l5.8-7.8c3.9 4 8.9 6.3 12.9 6.3 4.5 0 7.3-2.5 7.3-5.7 0-3.6-3.2-5.6-8.3-8l-3.7-1.7c-7.1-3.3-11.5-8.1-11.5-14.8 0-9.3 8.3-14.8 17.6-14.8 6.1 0 12.4 3 17.4 7.4z"/><path d="m2852.1 566.7v13.1h7.5v8.3h-7.5v15.6c0 2.2 1.7 2.5 3.2 2.5 2.5 0 4.5-.2 4.5-.2v8.4s-4.7.5-7.6.5c-4.9 0-9.9-.8-9.9-7.8v-18.9h-5.4v-8.3h5.4v-13.1h9.8z"/><path d="m2864.2 597.1c0-10.5 8.2-18.2 18.5-18.2s18.5 7.6 18.5 18.2c0 10.5-8.2 18.2-18.5 18.2s-18.5-7.7-18.5-18.2zm9.8 0c0 5.3 3.5 9.4 8.7 9.4 5 0 8.6-4.1 8.6-9.4 0-5.4-3.5-9.4-8.6-9.4-5.2 0-8.7 4-8.7 9.4z"/><path d="m2928.5 589.5h-4.1c-5 0-7.2 2.3-7.2 8.4v16.5h-9.8v-34.5h9.5v5.5c1.4-3.7 4.7-6 9-6 .9 0 1.8.1 2.7.3v9.8z"/><path d="m2979.4 594.1c0-4.2-2.7-6-5.7-6-2.8 0-5.3 1.6-7.2 3.9v22.4h-9.8v-20.3c0-4.1-2.6-6-5.7-6-2.8 0-5.3 1.6-7.2 3.9v22.4h-9.8v-34.5h9.6v1.4c0 1.2-.2 2.7-.2 2.7 2.6-3.2 6.4-5 10.3-5 5.1 0 9.1 2.2 11.1 6.3 2.9-4 6.8-6.3 11.6-6.3 7.5 0 12.7 4.7 12.7 12.8v22.6h-9.8v-20.3z"/><path d="m3008.4 561.6h8.8v1.2c-6.6 7.8-11.5 18.8-11.5 30.3s4.8 23.8 11.5 31.6v1.1h-8.8c-7.6-9.3-12.8-20.8-12.8-32.8 0-11.9 5.2-22 12.8-31.4z"/><path d="m3028.6 625.9h-8.8v-1.1c6.6-7.8 11.5-20.2 11.5-31.6 0-11.5-4.8-22.4-11.5-30.3v-1.2h8.8c7.6 9.4 12.8 19.5 12.8 31.5 0 11.9-5.2 23.4-12.8 32.7z"/><path d="m2375.5 92.2h-11.3l-4.5-14.4h-15.9l-4.2 14.4h-11l17-52.7h12.5zm-23.8-41.4h-.2l-5.3 18.1h10.8z"/><path d="m2401.4 67.4h-4.1c-5 0-7.2 2.3-7.2 8.4v16.5h-9.8v-34.6h9.5v5.5c1.4-3.7 4.7-6 9-6 .9 0 1.8.1 2.7.3v9.9z"/><path d="m2414.2 75c0 5.4 3.5 9.4 8.7 9.4 3.6 0 6.3-2 7.6-5.3l9.2 2.9c-2.3 6.9-9 11.1-16.9 11.1-10.2 0-18.4-7.6-18.4-18.2 0-10.5 8.1-18.2 18.4-18.2 7.8 0 14.6 4.4 16.9 11.2l-9.2 2.8c-1.3-3.2-4-5.3-7.6-5.3-5.2.2-8.7 4.2-8.7 9.6z"/><path d="m2465.4 56.8c7.5 0 12.8 4.7 12.8 12.8v22.6h-9.8v-20.1c0-4.4-2.8-6.2-5.9-6.2-2.9 0-5.4 1.6-7.3 3.9v22.4h-9.8v-52.7h9.6v19.6c0 1.2-.2 2.7-.2 2.7 2.8-3.2 6.7-5 10.6-5z"/><path d="m2531.6 72c0-4.2-2.7-6-5.7-6-2.8 0-5.3 1.6-7.2 3.9v22.4h-9.8v-20.3c0-4.1-2.6-6-5.7-6-2.8 0-5.3 1.6-7.2 3.9v22.4h-9.8v-34.6h9.6v1.4c0 1.2-.2 2.7-.2 2.7 2.6-3.2 6.4-5 10.3-5 5.1 0 9.1 2.2 11.1 6.3 2.9-4 6.8-6.3 11.6-6.3 7.5 0 12.7 4.7 12.7 12.8v22.6h-9.8v-20.2z"/><path d="m2568.6 69.3c0-2.5-2-4.1-5.7-4.1-3.5 0-7.8 1.7-10.4 3.2l-3.8-7.4s6.4-4.2 14.8-4.2c7.8 0 15 3.6 15 12.7v22.7h-9.8v-3.2c-1.8 2.7-5.7 4.1-9.6 4.1-7.3 0-12.1-5.2-12.1-10.8 0-6.6 4.8-10.6 12.5-10.6h6.8c1.7 0 2.4-.8 2.4-2v-.4zm0 10.6v-2.5c-.6.6-1.7.8-3 .8h-3.7c-3.1 0-4.9 1.4-4.9 3.8 0 2.3 1.9 4.1 4.9 4.1 3.5-.1 6.7-1.9 6.7-6.2z"/><path d="m2621.4 57.7v37.1c0 5.4-2.7 10.6-11.1 10.6h-15v-8.3h12.6c1.7 0 3.7-.5 3.7-3.1v-6.6c-1.7 2.8-5.8 5.2-10.7 5.2-9.3 0-16.6-7.1-16.6-17.9s7.2-17.9 16.5-17.9c5.2 0 9.2 2.4 10.9 5.3 0-.4-.2-1.1-.2-2.9v-1.6h9.9zm-18.3 26.5c5.2 0 8.7-3.8 8.7-9.4s-3.5-9.5-8.7-9.5c-5.1 0-8.7 3.8-8.7 9.5 0 5.5 3.6 9.4 8.7 9.4z"/><path d="m2663.7 77.9h-25.7c.5 3.8 3.5 6.9 7.9 6.9 2.9 0 5.6-1.2 6.9-3.5l10.2 1.1c-3.1 7.4-9.6 10.8-17.3 10.8-10.3 0-18.1-7.6-18.1-18.2 0-10.5 7.6-18.2 17.9-18.2 9.5 0 18.1 6.2 18.1 20.6v.5zm-25.9-6.6h15.4c-.5-3.5-3.5-6.3-7.6-6.3-4.2 0-7.1 2.6-7.8 6.3z"/><path d="m2113.9 482.1 69.5-69.5-69.5-69.5" fill="none" stroke="#000" stroke-miterlimit="10" stroke-width="8"/><path d="m1958 412.9h221.3" fill="none" stroke="#000" stroke-miterlimit="10" stroke-width="8"/><path d="m984.7 482.1 69.5-69.5-69.5-69.5" fill="none" stroke="#000" stroke-miterlimit="10" stroke-width="8"/><path d="m828.8 412.9h221.2" fill="none" stroke="#000" stroke-miterlimit="10" stroke-width="8"/><path d="m1412.9 59.7c3.7 0 6.6 2.9 6.6 6.6 0 3.6-2.9 6.6-6.6 6.6-3.6 0-6.6-2.9-6.6-6.6.1-3.7 3-6.6 6.6-6.6zm0 22.3c3.7 0 6.6 2.9 6.6 6.6s-2.9 6.6-6.6 6.6c-3.6 0-6.6-2.9-6.6-6.6.1-3.7 3-6.6 6.6-6.6z"/><path d="m1454.9 94.2h-10.4v-52.7h17.9c12.4 0 19 7.8 19 17.3s-6.6 17.6-19 17.6h-7.5zm0-43.7v16.9h5.9c5.7 0 9.9-2.7 9.9-8.6s-4.1-8.3-9.9-8.3z"/><path d="m1486.1 81.5v-21.8h9.8v20c0 4.7 3.2 6.6 6.6 6.6 3.5 0 6.6-1.9 6.6-6.6v-20h9.7v21.8c0 7.2-5.7 13.6-16.3 13.6-10.5 0-16.4-6.3-16.4-13.6z"/><path d="m1536.6 107.4h-9.8v-47.7h9.8v1.7c0 1.7-.2 2.4-.2 2.8 1.7-2.9 5.7-5.3 10.9-5.3 9.5 0 16.7 7.6 16.7 18.2 0 10.5-7.3 18.2-16.8 18.2-4.9 0-9-2.3-10.7-5.3v17.4zm-.3-30.5c0 5.3 3.6 9.5 8.8 9.5s8.8-4.2 8.8-9.5-3.6-9.4-8.8-9.4-8.8 4.1-8.8 9.4z"/><path d="m1582.2 94.2h-9.8v-26.2h-4.8v-8.3h14.6zm-5.3-52.7c3.5 0 6.3 2.9 6.3 6.3 0 3.5-2.8 6.3-6.3 6.3s-6.3-2.7-6.3-6.3c0-3.5 2.8-6.3 6.3-6.3z"/><path d="m1600.4 94.2h-9.7v-52.7h9.7z"/><path d="m2695.4 59.7c3.7 0 6.6 2.9 6.6 6.6 0 3.6-2.9 6.6-6.6 6.6-3.6 0-6.6-2.9-6.6-6.6s3-6.6 6.6-6.6zm0 22.3c3.7 0 6.6 2.9 6.6 6.6s-2.9 6.6-6.6 6.6c-3.6 0-6.6-2.9-6.6-6.6s3-6.6 6.6-6.6z"/><path d="m2747.5 82.9-10.4-26v37.3h-10.2v-52.7h14.8l11.5 29.9 11.8-29.9h14.1v52.7h-10.4v-37.3l-10.1 26z"/><path d="m2807.2 71.2c0-2.5-2-4.1-5.7-4.1-3.5 0-7.8 1.7-10.4 3.2l-3.8-7.4s6.4-4.2 14.8-4.2c7.8 0 15 3.6 15 12.7v22.7h-9.8v-3.1c-1.8 2.7-5.7 4.1-9.6 4.1-7.3 0-12.1-5.2-12.1-10.8 0-6.6 4.8-10.6 12.5-10.6h6.8c1.7 0 2.4-.8 2.4-2v-.5zm0 10.6v-2.5c-.6.6-1.7.8-3 .8h-3.7c-3.1 0-4.9 1.4-4.9 3.8 0 2.3 1.9 4.1 4.9 4.1 3.6-.1 6.7-1.9 6.7-6.2z"/><path d="m2860.1 59.7v37.1c0 5.4-2.7 10.6-11.1 10.6h-15v-8.3h12.6c1.7 0 3.7-.5 3.7-3.1v-6.6c-1.7 2.8-5.8 5.2-10.7 5.2-9.3 0-16.6-7.1-16.6-17.9s7.2-17.9 16.5-17.9c5.2 0 9.2 2.4 10.9 5.3 0-.4-.2-1.1-.2-2.9v-1.6h9.9zm-18.4 26.4c5.2 0 8.7-3.8 8.7-9.4s-3.5-9.5-8.7-9.5c-5.1 0-8.7 3.8-8.7 9.5.1 5.6 3.6 9.4 8.7 9.4z"/><path d="m2902.3 79.8h-25.7c.5 3.8 3.5 6.9 7.9 6.9 2.9 0 5.6-1.2 6.9-3.5l10.2 1.1c-3.1 7.4-9.6 10.8-17.3 10.8-10.3 0-18.1-7.6-18.1-18.2 0-10.5 7.6-18.2 17.9-18.2 9.5 0 18.1 6.2 18.1 20.6v.5zm-25.9-6.5h15.4c-.5-3.5-3.5-6.3-7.6-6.3-4.1-.1-7 2.6-7.8 6.3z"/></svg>