<?xml version="1.0" encoding="utf-8"?>
<!-- Generator: Adobe Illustrator 23.0.3, SVG Export Plug-In . SVG Version: 6.00 Build 0)  -->
<svg version="1.1" id="Layer_1" xmlns="http://www.w3.org/2000/svg" xmlns:xlink="http://www.w3.org/1999/xlink" x="0px" y="0px"
	 viewBox="0 0 2489.8 2931.5" style="enable-background:new 0 0 2489.8 2931.5;" xml:space="preserve">
<style type="text/css">
	.st0{fill:#FFFFFF;stroke:#000000;stroke-width:8;stroke-miterlimit:10;}
	.st1{fill:#FEC64E;stroke:#000000;stroke-width:8;stroke-miterlimit:10;}
	.st2{fill:#EF9A6A;stroke:#000000;stroke-width:8;stroke-miterlimit:10;}
	.st3{fill:#71EFC3;stroke:#000000;stroke-width:8;stroke-miterlimit:10;}
	.st4{fill:#B3B3B3;}
	.st5{fill:#FD92F3;stroke:#000000;stroke-width:8;stroke-miterlimit:10;}
	.st6{fill:#CCCCCC;}
	.st7{fill:none;stroke:#000000;stroke-width:8;stroke-miterlimit:10;}
</style>
<rect x="717.5" y="785.6" class="st0" width="1068" height="870.4"/>
<rect x="717.5" y="20.3" class="st0" width="1069.4" height="567.5"/>
<rect x="717.7" y="779.2" class="st1" width="1068.1" height="119.6"/>
<g>
	<path d="M815.2,1001.1h-11.3l-4.5-14.4h-15.9l-4.2,14.4h-11l17-52.7h12.5L815.2,1001.1z M791.5,959.7h-0.2l-5.3,18.1h10.8
		L791.5,959.7z"/>
	<path d="M818.8,988.5v-21.9h9.8v20c0,4.7,3.2,6.6,6.6,6.6c3.5,0,6.6-1.9,6.6-6.6v-20h9.7v21.8c0,7.2-5.7,13.6-16.3,13.6
		C824.7,1002,818.8,995.7,818.8,988.5z"/>
	<path d="M871.8,953.5v13.1h7.5v8.3h-7.5v15.6c0,2.2,1.7,2.5,3.2,2.5c2.5,0,4.5-0.2,4.5-0.2v8.4c0,0-4.7,0.5-7.6,0.5
		c-4.9,0-9.9-0.8-9.9-7.8V975h-5.4v-8.3h5.4v-13.1L871.8,953.5L871.8,953.5z"/>
	<path d="M906,965.7c7.5,0,12.8,4.7,12.8,12.8v22.6H909V981c0-4.4-2.8-6.2-5.9-6.2c-2.9,0-5.4,1.6-7.3,3.9v22.4H886v-52.7h9.6V968
		c0,1.2-0.2,2.7-0.2,2.7C898.2,967.5,902.1,965.7,906,965.7z"/>
	<path d="M924.7,983.9c0-10.5,8.2-18.2,18.5-18.2s18.5,7.6,18.5,18.2s-8.2,18.2-18.5,18.2S924.7,994.4,924.7,983.9z M934.5,983.9
		c0,5.3,3.5,9.4,8.7,9.4c5,0,8.6-4.1,8.6-9.4c0-5.4-3.5-9.4-8.6-9.4C938,974.5,934.5,978.5,934.5,983.9z"/>
	<path d="M989,976.3h-4.1c-5,0-7.2,2.3-7.2,8.4v16.5h-9.8v-34.6h9.5v5.5c1.4-3.7,4.7-6,9-6c0.9,0,1.8,0.1,2.7,0.3v9.9H989z"/>
	<path d="M810.4,1044.2v9.3h-15.7v43.4h-10.4v-43.4h-15.7v-9.3H810.4z"/>
	<path d="M827.5,1096.9h-9.8v-26.2h-4.8v-8.3h14.6V1096.9z M822.2,1044.2c3.5,0,6.3,2.9,6.3,6.3c0,3.5-2.8,6.3-6.3,6.3
		s-6.3-2.7-6.3-6.3C815.9,1047.1,818.7,1044.2,822.2,1044.2z"/>
	<path d="M848.3,1049.3v13.1h7.5v8.3h-7.5v15.6c0,2.2,1.7,2.5,3.2,2.5c2.5,0,4.5-0.2,4.5-0.2v8.4c0,0-4.7,0.5-7.6,0.5
		c-4.9,0-9.9-0.8-9.9-7.8v-18.9h-5.4v-8.3h5.4v-13.1L848.3,1049.3L848.3,1049.3z"/>
	<path d="M872.3,1096.9h-9.7v-52.7h9.7V1096.9z"/>
	<path d="M914.5,1082.6h-25.7c0.5,3.8,3.5,6.9,7.9,6.9c2.9,0,5.6-1.2,6.9-3.5l10.2,1.1c-3.1,7.4-9.6,10.8-17.3,10.8
		c-10.3,0-18.1-7.6-18.1-18.2c0-10.5,7.6-18.2,17.9-18.2c9.5,0,18.1,6.2,18.1,20.6L914.5,1082.6L914.5,1082.6z M888.6,1076H904
		c-0.5-3.5-3.5-6.3-7.6-6.3C892.3,1069.7,889.4,1072.3,888.6,1076z"/>
	<path d="M799.3,1164.4v0.2c6.1,2.5,9.8,6.9,9.8,13c0,8.4-6.3,15.1-17.4,15.1H773V1140h17c10.8,0,16.3,6.7,16.3,13.5
		C806.3,1158.1,804,1162.2,799.3,1164.4z M783.4,1148.9v11.8h5.3c3.8,0,6.9-1.9,6.9-6s-3.2-5.8-6.9-5.8H783.4z M783.4,1183.9h5.4
		c6.3,0,9.3-2.9,9.3-7.2c0-4.4-3.7-6.7-8.8-6.7h-6L783.4,1183.9L783.4,1183.9z"/>
	<path d="M813.4,1175.5c0-10.5,8.2-18.2,18.5-18.2s18.5,7.6,18.5,18.2c0,10.5-8.2,18.2-18.5,18.2S813.4,1186,813.4,1175.5z
		 M823.2,1175.5c0,5.3,3.5,9.4,8.7,9.4c5,0,8.6-4.1,8.6-9.4c0-5.4-3.5-9.4-8.6-9.4C826.8,1166.1,823.2,1170.1,823.2,1175.5z"/>
	<path d="M854.4,1175.5c0-10.5,8.2-18.2,18.5-18.2s18.5,7.6,18.5,18.2c0,10.5-8.2,18.2-18.5,18.2S854.4,1186,854.4,1175.5z
		 M864.2,1175.5c0,5.3,3.5,9.4,8.7,9.4c5,0,8.6-4.1,8.6-9.4c0-5.4-3.5-9.4-8.6-9.4C867.7,1166.1,864.2,1170.1,864.2,1175.5z"/>
	<path d="M907.3,1170.2h2.3l9.5-12h11.8l-13.3,15.8l13.7,18.7h-11.8l-9.9-14.2h-2.3v14.2h-9.7V1140h9.7V1170.2z"/>
	<path d="M946.9,1140h8.8v1.2c-6.6,7.8-11.5,18.8-11.5,30.3s4.8,23.8,11.5,31.6v1.1h-8.8c-7.6-9.3-12.8-20.8-12.8-32.8
		C934.1,1159.5,939.3,1149.4,946.9,1140z"/>
	<path d="M979.4,1168.8c-2.8-2.7-6.3-3.5-8.5-3.5c-2.6,0-3.5,1.3-3.5,2.3c0,1.2,0.8,2,2.6,2.6l5.7,1.8c7.1,2.3,9.5,6.2,9.5,10.7
		c0,5-4.3,10.9-13.7,10.9c-7.6,0-12.4-2.9-15.2-5.4l5.2-6.8c2.5,2.3,6.9,4.3,10.2,4.3c2.3,0,3.8-1.2,3.8-2.6c0-1.7-1.1-2.5-3.9-3.3
		l-5.9-1.7c-5.6-1.8-8-5.6-8-10.1c0-5.7,5.1-10.7,13.4-10.7c4.5,0,9.9,1.4,13.9,5.1L979.4,1168.8z"/>
	<path d="M1003.8,1145.1v13.1h7.5v8.3h-7.5v15.6c0,2.2,1.7,2.5,3.2,2.5c2.5,0,4.5-0.2,4.5-0.2v8.4c0,0-4.7,0.5-7.6,0.5
		c-4.9,0-9.9-0.8-9.9-7.8v-18.9h-5.4v-8.3h5.4v-13.1L1003.8,1145.1L1003.8,1145.1z"/>
	<path d="M1039.2,1167.9h-4.1c-5,0-7.2,2.3-7.2,8.4v16.5h-9.8v-34.5h9.5v5.5c1.4-3.7,4.7-6,9-6c0.9,0,1.8,0.1,2.7,0.3v9.8H1039.2z"
		/>
	<path d="M1056.5,1192.7h-9.8v-26.2h-4.8v-8.3h14.6L1056.5,1192.7L1056.5,1192.7z M1051.2,1140c3.5,0,6.3,2.9,6.3,6.3
		c0,3.5-2.8,6.3-6.3,6.3s-6.3-2.7-6.3-6.3C1044.9,1142.9,1047.7,1140,1051.2,1140z"/>
	<path d="M1084.9,1157.3c7.5,0,12.8,4.7,12.8,12.8v22.6h-9.8v-20.1c0-4.4-2.8-6.2-5.9-6.2c-2.9,0-5.4,1.6-7.3,3.9v22.4h-9.8v-34.5
		h9.6v1.4c0,1.2-0.2,2.7-0.2,2.7C1077,1159.1,1080.9,1157.3,1084.9,1157.3z"/>
	<path d="M1140.7,1158.2v37.1c0,5.4-2.7,10.6-11.1,10.6h-15v-8.3h12.6c1.7,0,3.7-0.5,3.7-3.1v-6.6c-1.7,2.8-5.8,5.2-10.7,5.2
		c-9.3,0-16.6-7.1-16.6-17.9s7.2-17.9,16.5-17.9c5.2,0,9.2,2.4,10.9,5.3c0-0.4-0.2-1.1-0.2-2.9v-1.6h9.9V1158.2z M1122.4,1184.7
		c5.2,0,8.7-3.8,8.7-9.4c0-5.7-3.5-9.5-8.7-9.5c-5.1,0-8.7,3.8-8.7,9.5C1113.8,1180.8,1117.3,1184.7,1122.4,1184.7z"/>
	<path d="M1155.1,1180.6c3.8,0,6.8,2.9,6.8,6.6c0,1.1-0.5,2.8-1,3.8l-6,11.1h-7.9l4.3-9.5c-1.7-1.1-2.8-3.1-2.8-5.3
		C1148.6,1183.5,1151.4,1180.6,1155.1,1180.6z"/>
	<path d="M1205.1,1168.8c-2.8-2.7-6.3-3.5-8.5-3.5c-2.6,0-3.5,1.3-3.5,2.3c0,1.2,0.8,2,2.6,2.6l5.7,1.8c7.1,2.3,9.5,6.2,9.5,10.7
		c0,5-4.3,10.9-13.7,10.9c-7.6,0-12.4-2.9-15.2-5.4l5.2-6.8c2.5,2.3,6.9,4.3,10.2,4.3c2.3,0,3.8-1.2,3.8-2.6c0-1.7-1.1-2.5-3.9-3.3
		l-5.9-1.7c-5.6-1.8-8-5.6-8-10.1c0-5.7,5.1-10.7,13.4-10.7c4.5,0,9.9,1.4,13.9,5.1L1205.1,1168.8z"/>
	<path d="M1229.6,1145.1v13.1h7.5v8.3h-7.5v15.6c0,2.2,1.7,2.5,3.2,2.5c2.5,0,4.5-0.2,4.5-0.2v8.4c0,0-4.7,0.5-7.6,0.5
		c-4.9,0-9.9-0.8-9.9-7.8v-18.9h-5.4v-8.3h5.4v-13.1L1229.6,1145.1L1229.6,1145.1z"/>
	<path d="M1265,1167.9h-4.1c-5,0-7.2,2.3-7.2,8.4v16.5h-9.8v-34.5h9.5v5.5c1.4-3.7,4.7-6,9-6c0.9,0,1.8,0.1,2.7,0.3L1265,1167.9
		L1265,1167.9z"/>
	<path d="M1282.3,1192.7h-9.8v-26.2h-4.8v-8.3h14.6L1282.3,1192.7L1282.3,1192.7z M1276.9,1140c3.5,0,6.3,2.9,6.3,6.3
		c0,3.5-2.8,6.3-6.3,6.3s-6.3-2.7-6.3-6.3C1270.7,1142.9,1273.5,1140,1276.9,1140z"/>
	<path d="M1310.7,1157.3c7.5,0,12.8,4.7,12.8,12.8v22.6h-9.8v-20.1c0-4.4-2.8-6.2-5.9-6.2c-2.9,0-5.4,1.6-7.3,3.9v22.4h-9.8v-34.5
		h9.6v1.4c0,1.2-0.2,2.7-0.2,2.7C1302.8,1159.1,1306.7,1157.3,1310.7,1157.3z"/>
	<path d="M1366.5,1158.2v37.1c0,5.4-2.7,10.6-11.1,10.6h-15v-8.3h12.6c1.7,0,3.7-0.5,3.7-3.1v-6.6c-1.7,2.8-5.8,5.2-10.7,5.2
		c-9.3,0-16.6-7.1-16.6-17.9s7.2-17.9,16.5-17.9c5.2,0,9.2,2.4,10.9,5.3c0-0.4-0.2-1.1-0.2-2.9v-1.6h9.9V1158.2z M1348.2,1184.7
		c5.2,0,8.7-3.8,8.7-9.4c0-5.7-3.5-9.5-8.7-9.5c-5.1,0-8.7,3.8-8.7,9.5C1339.5,1180.8,1343.1,1184.7,1348.2,1184.7z"/>
	<path d="M1380.8,1204.3h-8.8v-1.1c6.6-7.8,11.5-20.2,11.5-31.6s-4.8-22.4-11.5-30.3v-1.2h8.8c7.6,9.4,12.8,19.5,12.8,31.5
		C1393.6,1183.5,1388.4,1195,1380.8,1204.3z"/>
	<path d="M800.1,1249.8c-3.2-3.2-7.5-5.4-11.1-5.4c-3.5,0-6.6,1.8-6.6,5c0,2.4,1.5,4.3,5.7,6.3l4.4,2c8.4,3.9,13.4,8.3,13.4,16.2
		c0,7.9-6.7,15.6-18.3,15.6c-8,0-13.9-3.1-18.9-7.9l5.8-7.8c3.9,4,8.9,6.3,12.9,6.3c4.5,0,7.3-2.5,7.3-5.7c0-3.6-3.2-5.6-8.3-8
		l-3.7-1.7c-7.1-3.3-11.5-8.1-11.5-14.8c0-9.3,8.3-14.8,17.6-14.8c6.1,0,12.4,3,17.4,7.4L800.1,1249.8z"/>
	<path d="M824.4,1240.9v13.1h7.5v8.3h-7.5v15.6c0,2.2,1.7,2.5,3.2,2.5c2.5,0,4.5-0.2,4.5-0.2v8.4c0,0-4.7,0.5-7.6,0.5
		c-4.9,0-9.9-0.8-9.9-7.8v-18.9h-5.4v-8.3h5.4V1241L824.4,1240.9L824.4,1240.9z"/>
	<path d="M859.8,1263.7h-4.1c-5,0-7.2,2.3-7.2,8.4v16.5h-9.8v-34.5h9.5v5.5c1.4-3.7,4.7-6,9-6c0.9,0,1.8,0.1,2.7,0.3v9.8H859.8z"/>
	<path d="M877.1,1288.5h-9.8v-26.2h-4.8v-8.3h14.6V1288.5z M871.7,1235.8c3.5,0,6.3,2.9,6.3,6.3c0,3.5-2.8,6.3-6.3,6.3
		s-6.3-2.7-6.3-6.3C865.5,1238.7,868.3,1235.8,871.7,1235.8z"/>
	<path d="M905.5,1253.1c7.5,0,12.8,4.7,12.8,12.8v22.6h-9.8v-20.1c0-4.4-2.8-6.2-5.9-6.2c-2.9,0-5.4,1.6-7.3,3.9v22.4h-9.8V1254h9.6
		v1.4c0,1.2-0.2,2.7-0.2,2.7C897.6,1254.9,901.5,1253.1,905.5,1253.1z"/>
	<path d="M961.3,1254v37.1c0,5.4-2.7,10.6-11.1,10.6h-15v-8.3h12.6c1.7,0,3.7-0.5,3.7-3.1v-6.6c-1.7,2.8-5.8,5.2-10.7,5.2
		c-9.3,0-16.6-7.1-16.6-17.9s7.2-17.9,16.5-17.9c5.2,0,9.2,2.4,10.9,5.3c0-0.4-0.2-1.1-0.2-2.9v-1.6h9.9V1254z M943,1280.5
		c5.2,0,8.7-3.8,8.7-9.4s-3.5-9.5-8.7-9.5c-5.1,0-8.7,3.8-8.7,9.5C934.3,1276.6,937.9,1280.5,943,1280.5z"/>
	<path d="M981.6,1288.5h-9.8v-26.2H967v-8.3h14.6V1288.5z M976.2,1235.8c3.5,0,6.3,2.9,6.3,6.3c0,3.5-2.8,6.3-6.3,6.3
		s-6.3-2.7-6.3-6.3C970,1238.7,972.8,1235.8,976.2,1235.8z"/>
	<path d="M992.3,1244.2c0-6.8,4.5-9.1,9.8-9.1c2.6,0,7.2,0.5,7.2,0.5v9c0,0-3-0.4-4.1-0.4c-1.9,0-3.1,0.5-3.1,2.9v7h6.6v8.3h-6.6
		v26.2h-9.8v-26.2h-5.4v-8.3h5.4L992.3,1244.2L992.3,1244.2z"/>
	<path d="M1025.2,1288.5h-2.5l-11.8-34.5h10.9l7.3,24.6l7.4-24.6h10.6l-13.8,39.9c-1.7,5-4.4,7.8-10.8,7.8h-6.8v-8.2h4.8
		c2,0,3.2-0.8,3.8-2.7L1025.2,1288.5z"/>
	<path d="M1063.2,1235.8h8.8v1.2c-6.6,7.8-11.5,18.8-11.5,30.3s4.8,23.8,11.5,31.6v1.1h-8.8c-7.6-9.3-12.8-20.8-12.8-32.8
		S1055.6,1245.2,1063.2,1235.8z"/>
	<path d="M1083.4,1300.1h-8.8v-1.1c6.6-7.8,11.5-20.2,11.5-31.6s-4.8-22.4-11.5-30.3v-1.2h8.8c7.6,9.4,12.8,19.5,12.8,31.5
		S1091,1290.8,1083.4,1300.1z"/>
</g>
<g>
	<path d="M799.3,834.9v0.2c6.1,2.5,9.8,6.9,9.8,13c0,8.4-6.3,15.1-17.4,15.1H773v-52.7h17c10.8,0,16.3,6.7,16.3,13.5
		C806.3,828.6,804,832.7,799.3,834.9z M783.4,819.4v11.8h5.3c3.8,0,6.9-1.9,6.9-6s-3.2-5.8-6.9-5.8H783.4z M783.4,854.4h5.4
		c6.3,0,9.3-2.9,9.3-7.2c0-4.4-3.7-6.7-8.8-6.7h-6L783.4,854.4L783.4,854.4z"/>
	<path d="M813.4,846c0-10.5,8.2-18.2,18.5-18.2s18.5,7.6,18.5,18.2s-8.2,18.2-18.5,18.2S813.4,856.5,813.4,846z M823.2,846
		c0,5.3,3.5,9.4,8.7,9.4c5,0,8.6-4.1,8.6-9.4c0-5.4-3.5-9.4-8.6-9.4C826.8,836.6,823.2,840.6,823.2,846z"/>
	<path d="M854.4,846c0-10.5,8.2-18.2,18.5-18.2s18.5,7.6,18.5,18.2s-8.2,18.2-18.5,18.2S854.4,856.5,854.4,846z M864.2,846
		c0,5.3,3.5,9.4,8.7,9.4c5,0,8.6-4.1,8.6-9.4c0-5.4-3.5-9.4-8.6-9.4C867.7,836.6,864.2,840.6,864.2,846z"/>
	<path d="M907.3,840.7h2.3l9.5-12h11.8l-13.3,15.8l13.7,18.7h-11.8l-9.9-14.2h-2.3v14.2h-9.7v-52.7h9.7V840.7z"/>
</g>
<g>
	<rect x="717" y="16.6" class="st2" width="1069.5" height="119.6"/>
	<g>
		<path d="M796.7,229.8c7,0,12.4-3.8,14.3-10h11.5c-3.1,12.4-13.9,19.7-25.8,19.7c-15.5,0-27.5-11.4-27.5-27.3s12-27.3,27.5-27.3
			c11.9,0,22.8,7.2,25.8,19.7H811c-2-6.3-7.3-10-14.3-10c-9.9,0-16.6,7.5-16.6,17.6S786.7,229.8,796.7,229.8z"/>
		<path d="M828,225.9v-21.8h9.8v20c0,4.7,3.2,6.6,6.6,6.6c3.5,0,6.6-1.9,6.6-6.6v-20h9.7v21.8c0,7.2-5.7,13.6-16.3,13.6
			C833.9,239.5,828,233.1,828,225.9z"/>
		<path d="M889.8,213.7h-4.1c-5,0-7.2,2.3-7.2,8.4v16.5h-9.8v-34.5h9.5v5.5c1.4-3.7,4.7-6,9-6c0.9,0,1.8,0.1,2.7,0.3v9.8H889.8z"/>
		<path d="M916.5,213.7h-4.1c-5,0-7.2,2.3-7.2,8.4v16.5h-9.8v-34.5h9.5v5.5c1.4-3.7,4.7-6,9-6c0.9,0,1.8,0.1,2.7,0.3v9.8H916.5z"/>
		<path d="M955.5,224.2h-25.7c0.5,3.8,3.5,6.9,7.9,6.9c2.9,0,5.6-1.2,6.9-3.5l10.2,1.1c-3.1,7.4-9.6,10.8-17.3,10.8
			c-10.3,0-18.1-7.6-18.1-18.2c0-10.5,7.6-18.2,17.9-18.2c9.5,0,18.1,6.2,18.1,20.6L955.5,224.2L955.5,224.2z M929.5,217.6H945
			c-0.5-3.5-3.5-6.3-7.6-6.3C933.2,211.3,930.3,213.9,929.5,217.6z"/>
		<path d="M981.2,203.1c7.5,0,12.8,4.7,12.8,12.8v22.6h-9.8v-20.1c0-4.4-2.8-6.2-5.9-6.2c-2.9,0-5.4,1.6-7.3,3.9v22.4h-9.8V204h9.6
			v1.4c0,1.2-0.2,2.7-0.2,2.7C973.3,204.9,977.2,203.1,981.2,203.1z"/>
		<path d="M1014.4,190.9V204h7.5v8.3h-7.5v15.6c0,2.2,1.7,2.5,3.2,2.5c2.5,0,4.5-0.2,4.5-0.2v8.4c0,0-4.7,0.5-7.6,0.5
			c-4.9,0-9.9-0.8-9.9-7.8v-18.9h-5.4v-8.3h5.4V191h9.8V190.9z"/>
		<path d="M1040,238.6h-10.4v-52.7h17.9c12.4,0,19,7.8,19,17.3s-6.6,17.6-19,17.6h-7.5V238.6z M1040,194.9v16.8h5.9
			c5.7,0,9.9-2.7,9.9-8.6s-4.1-8.3-9.9-8.3h-5.9V194.9z"/>
		<path d="M1090.1,215.6c0-2.5-2-4.1-5.7-4.1c-3.5,0-7.8,1.7-10.4,3.2l-3.8-7.4c0,0,6.4-4.2,14.8-4.2c7.8,0,15,3.6,15,12.7v22.7
			h-9.8v-3.2c-1.8,2.7-5.7,4.1-9.6,4.1c-7.3,0-12.1-5.2-12.1-10.8c0-6.6,4.8-10.6,12.5-10.6h6.8c1.7,0,2.4-0.8,2.4-2v-0.4H1090.1z
			 M1090.1,226.2v-2.5c-0.6,0.6-1.7,0.8-3,0.8h-3.7c-3.1,0-4.9,1.4-4.9,3.8c0,2.3,1.9,4.1,4.9,4.1
			C1087,232.3,1090.1,230.5,1090.1,226.2z"/>
		<path d="M1143,204.1v37.1c0,5.4-2.7,10.6-11.1,10.6h-15v-8.3h12.6c1.7,0,3.7-0.5,3.7-3.1v-6.7c-1.7,2.8-5.8,5.2-10.7,5.2
			c-9.3,0-16.6-7.1-16.6-17.9c0-10.8,7.2-17.9,16.5-17.9c5.2,0,9.2,2.4,10.9,5.3c0-0.4-0.2-1.1-0.2-2.9v-1.6h9.9V204.1z
			 M1124.6,230.5c5.2,0,8.7-3.8,8.7-9.4c0-5.6-3.5-9.5-8.7-9.5c-5.1,0-8.7,3.8-8.7,9.5C1116,226.7,1119.5,230.5,1124.6,230.5z"/>
		<path d="M1185.2,224.2h-25.7c0.5,3.8,3.5,6.9,7.9,6.9c2.9,0,5.6-1.2,6.9-3.5l10.2,1.1c-3.1,7.4-9.6,10.8-17.3,10.8
			c-10.3,0-18.1-7.6-18.1-18.2c0-10.5,7.6-18.2,17.9-18.2c9.5,0,18.1,6.2,18.1,20.6L1185.2,224.2L1185.2,224.2z M1159.3,217.6h15.4
			c-0.5-3.5-3.5-6.3-7.6-6.3C1163,211.3,1160.1,213.9,1159.3,217.6z"/>
		<path d="M782.7,313.4v20.9h-10.5v-52.7h38.2v9h-27.7v13.7H803v9h-20.3V313.4z"/>
		<path d="M825.1,334.4h-9.7v-52.7h9.7V334.4z"/>
		<path d="M845.4,334.4h-9.8v-26.2h-4.8v-8.3h14.6V334.4z M840.1,281.6c3.5,0,6.3,2.9,6.3,6.3c0,3.5-2.8,6.3-6.3,6.3
			s-6.3-2.7-6.3-6.3C833.8,284.5,836.6,281.6,840.1,281.6z"/>
		<path d="M863.6,347.5h-9.8v-47.7h9.8v1.7c0,1.7-0.2,2.4-0.2,2.8c1.7-2.9,5.7-5.3,10.9-5.3c9.5,0,16.7,7.6,16.7,18.2
			c0,10.5-7.3,18.2-16.8,18.2c-4.9,0-9-2.3-10.7-5.3L863.6,347.5L863.6,347.5z M863.4,317.1c0,5.3,3.6,9.5,8.8,9.5s8.8-4.2,8.8-9.5
			s-3.6-9.4-8.8-9.4S863.4,311.8,863.4,317.1z"/>
		<path d="M908.6,281.6h8.8v1.2c-6.6,7.9-11.4,18.9-11.4,30.3c0,11.5,4.8,23.8,11.5,31.6v1.1h-8.8c-7.6-9.3-12.8-20.8-12.8-32.8
			C895.8,301.1,901,291,908.6,281.6z"/>
		<path d="M928.8,345.9H920v-1.1c6.6-7.8,11.5-20.2,11.5-31.6c0-11.5-4.8-22.4-11.5-30.3v-1.2h8.8c7.6,9.4,12.8,19.5,12.8,31.5
			C941.6,325.1,936.4,336.6,928.8,345.9z"/>
	</g>
	<g>
		<path d="M772.3,47.9h10.5v52.7h-10.5V47.9z"/>
		<path d="M804.2,79.7v20.9h-10.5V47.9h38.2v9h-27.7v13.8h20.3v9H804.2z"/>
		<path d="M846.6,100.6h-9.7V47.9h9.7V100.6z"/>
		<path d="M866.9,100.6h-9.8V74.4h-4.8v-8.3h14.6V100.6z M861.5,47.9c3.5,0,6.3,2.9,6.3,6.3c0,3.5-2.8,6.3-6.3,6.3s-6.3-2.7-6.3-6.3
			C855.3,50.8,858.1,47.9,861.5,47.9z"/>
		<path d="M885.1,113.8h-9.8V66.1h9.8v1.7c0,1.7-0.2,2.4-0.2,2.8c1.7-2.9,5.7-5.3,10.9-5.3c9.5,0,16.7,7.6,16.7,18.2
			c0,10.5-7.3,18.2-16.8,18.2c-4.9,0-9-2.3-10.7-5.3L885.1,113.8L885.1,113.8z M884.9,83.4c0,5.3,3.6,9.5,8.8,9.5s8.8-4.2,8.8-9.5
			s-3.6-9.4-8.8-9.4S884.9,78,884.9,83.4z"/>
		<path d="M928.7,113.8h-9.8V66.1h9.8v1.7c0,1.7-0.2,2.4-0.2,2.8c1.7-2.9,5.7-5.3,10.9-5.3c9.5,0,16.7,7.6,16.7,18.2
			c0,10.5-7.3,18.2-16.8,18.2c-4.9,0-9-2.3-10.7-5.3L928.7,113.8L928.7,113.8z M928.5,83.4c0,5.3,3.6,9.5,8.8,9.5s8.8-4.2,8.8-9.5
			s-3.6-9.4-8.8-9.4S928.5,78,928.5,83.4z"/>
		<path d="M981.7,77.7c0-2.5-2-4.1-5.7-4.1c-3.5,0-7.8,1.7-10.4,3.2l-3.8-7.4c0,0,6.4-4.2,14.8-4.2c7.8,0,15,3.6,15,12.7v22.7h-9.8
			v-3.2c-1.8,2.7-5.7,4.1-9.6,4.1c-7.3,0-12.1-5.2-12.1-10.8c0-6.6,4.8-10.6,12.5-10.6h6.8c1.7,0,2.4-0.8,2.4-2v-0.4H981.7z
			 M981.7,88.3v-2.5c-0.6,0.6-1.7,0.8-3,0.8H975c-3.1,0-4.9,1.4-4.9,3.8c0,2.3,1.9,4.1,4.9,4.1C978.5,94.4,981.7,92.6,981.7,88.3z"
			/>
		<path d="M1009.3,100.6h-9.8V47.9h9.8v17c0,2.3-0.2,4.7-0.2,5.7c1.7-2.9,5.7-5.3,10.9-5.3c9.5,0,16.7,7.6,16.7,18.2
			c0,10.5-7.3,18.2-16.8,18.2c-4.9,0-9-2.3-10.7-5.3v4.2H1009.3z M1009.1,83.4c0,5.3,3.6,9.5,8.8,9.5s8.8-4.2,8.8-9.5
			s-3.6-9.4-8.8-9.4S1009.1,78,1009.1,83.4z"/>
		<path d="M1052.9,100.6h-9.7V47.9h9.7V100.6z"/>
		<path d="M1095.1,86.3h-25.7c0.5,3.8,3.5,6.9,7.9,6.9c2.9,0,5.6-1.2,6.9-3.5l10.2,1.1c-3.1,7.4-9.6,10.8-17.3,10.8
			c-10.3,0-18.1-7.6-18.1-18.2c0-10.5,7.6-18.2,17.9-18.2c9.5,0,18.1,6.2,18.1,20.6L1095.1,86.3L1095.1,86.3z M1069.2,79.7h15.4
			c-0.5-3.5-3.5-6.3-7.6-6.3S1070,76,1069.2,79.7z"/>
	</g>
</g>
<g>
	<rect x="1413.1" y="2045.8" class="st0" width="1066.4" height="870.4"/>
	<rect x="1413.4" y="2035.1" class="st3" width="1066" height="119.6"/>
	<g>
		<path class="st4" d="M1510.9,2257h-11.3l-4.5-14.4h-15.9l-4.2,14.4h-11l17-52.7h12.5L1510.9,2257z M1487.1,2215.6h-0.2l-5.3,18.1
			h10.8L1487.1,2215.6z"/>
		<path class="st4" d="M1514.4,2244.4v-21.8h9.8v20c0,4.7,3.2,6.6,6.6,6.6c3.5,0,6.6-1.9,6.6-6.6v-20h9.7v21.8
			c0,7.2-5.7,13.6-16.3,13.6C1520.3,2257.9,1514.4,2251.6,1514.4,2244.4z"/>
		<path class="st4" d="M1567.4,2209.4v13.1h7.5v8.3h-7.5v15.6c0,2.2,1.7,2.5,3.2,2.5c2.5,0,4.5-0.2,4.5-0.2v8.4c0,0-4.7,0.5-7.6,0.5
			c-4.9,0-9.9-0.8-9.9-7.8v-18.9h-5.4v-8.3h5.4v-13.1h9.8V2209.4z"/>
		<path class="st4" d="M1601.6,2221.6c7.5,0,12.8,4.7,12.8,12.8v22.6h-9.8v-20.1c0-4.4-2.8-6.2-5.9-6.2c-2.9,0-5.4,1.6-7.3,3.9v22.4
			h-9.8v-52.7h9.6v19.6c0,1.2-0.2,2.7-0.2,2.7C1593.8,2223.4,1597.7,2221.6,1601.6,2221.6z"/>
		<path class="st4" d="M1620.3,2239.8c0-10.5,8.2-18.2,18.5-18.2s18.5,7.6,18.5,18.2c0,10.5-8.2,18.2-18.5,18.2
			S1620.3,2250.3,1620.3,2239.8z M1630.1,2239.8c0,5.3,3.5,9.4,8.7,9.4c5,0,8.6-4.1,8.6-9.4c0-5.4-3.5-9.4-8.6-9.4
			S1630.1,2234.4,1630.1,2239.8z"/>
		<path class="st4" d="M1684.7,2232.2h-4.1c-5,0-7.2,2.3-7.2,8.4v16.5h-9.8v-34.5h9.5v5.5c1.4-3.7,4.7-6,9-6c0.9,0,1.8,0.1,2.7,0.3
			L1684.7,2232.2L1684.7,2232.2z"/>
		<path class="st4" d="M1506.1,2300.1v9.3h-15.7v43.4H1480v-43.4h-15.7v-9.3H1506.1z"/>
		<path class="st4" d="M1523.2,2352.8h-9.8v-26.2h-4.8v-8.3h14.6L1523.2,2352.8L1523.2,2352.8z M1517.8,2300.1
			c3.5,0,6.3,2.9,6.3,6.3c0,3.5-2.8,6.3-6.3,6.3s-6.3-2.7-6.3-6.3C1511.5,2303,1514.3,2300.1,1517.8,2300.1z"/>
		<path class="st4" d="M1543.9,2305.2v13.1h7.5v8.3h-7.5v15.6c0,2.2,1.7,2.5,3.2,2.5c2.5,0,4.5-0.2,4.5-0.2v8.4c0,0-4.7,0.5-7.6,0.5
			c-4.9,0-9.9-0.8-9.9-7.8v-19h-5.4v-8.3h5.4v-13.1L1543.9,2305.2L1543.9,2305.2z"/>
		<path class="st4" d="M1567.9,2352.8h-9.7v-52.7h9.7V2352.8z"/>
		<path class="st4" d="M1610.2,2338.5h-25.7c0.5,3.8,3.5,6.9,7.9,6.9c2.9,0,5.6-1.2,6.9-3.5l10.2,1.1c-3.1,7.4-9.6,10.8-17.3,10.8
			c-10.3,0-18.1-7.6-18.1-18.2s7.6-18.2,17.9-18.2c9.5,0,18.1,6.2,18.1,20.6L1610.2,2338.5L1610.2,2338.5z M1584.2,2331.9h15.4
			c-0.5-3.5-3.5-6.3-7.6-6.3S1585,2328.2,1584.2,2331.9z"/>
		<path d="M1493,2439.9c7,0,12.4-3.8,14.3-10h11.5c-3.1,12.4-13.9,19.7-25.8,19.7c-15.5,0-27.5-11.4-27.5-27.3s12-27.3,27.5-27.3
			c11.9,0,22.8,7.2,25.8,19.7h-11.5c-2-6.3-7.3-10-14.3-10c-9.9,0-16.6,7.5-16.6,17.6S1483.1,2439.9,1493,2439.9z"/>
		<path d="M1524.4,2436v-21.8h9.8v20c0,4.7,3.2,6.6,6.6,6.6c3.5,0,6.6-1.9,6.6-6.6v-20h9.7v21.8c0,7.2-5.7,13.6-16.3,13.6
			C1530.2,2449.6,1524.4,2443.2,1524.4,2436z"/>
		<path d="M1586.2,2423.8h-4.1c-5,0-7.2,2.3-7.2,8.4v16.5h-9.8v-34.5h9.5v5.5c1.4-3.7,4.7-6,9-6c0.9,0,1.8,0.1,2.7,0.3
			L1586.2,2423.8L1586.2,2423.8z"/>
		<path d="M1612.9,2423.8h-4.1c-5,0-7.2,2.3-7.2,8.4v16.5h-9.8v-34.5h9.5v5.5c1.4-3.7,4.7-6,9-6c0.9,0,1.8,0.1,2.7,0.3
			L1612.9,2423.8L1612.9,2423.8z"/>
		<path d="M1651.8,2434.3h-25.7c0.5,3.8,3.5,6.9,7.9,6.9c2.9,0,5.6-1.2,6.9-3.5l10.2,1.1c-3.1,7.4-9.6,10.8-17.3,10.8
			c-10.3,0-18.1-7.6-18.1-18.2s7.6-18.2,17.9-18.2c9.5,0,18.1,6.2,18.1,20.6L1651.8,2434.3L1651.8,2434.3z M1625.9,2427.7h15.4
			c-0.5-3.5-3.5-6.3-7.6-6.3C1629.6,2421.4,1626.7,2424,1625.9,2427.7z"/>
		<path d="M1677.6,2413.2c7.5,0,12.8,4.7,12.8,12.8v22.6h-9.8v-20.1c0-4.4-2.8-6.2-5.9-6.2c-2.9,0-5.4,1.6-7.3,3.9v22.4h-9.8v-34.5
			h9.6v1.4c0,1.2-0.2,2.7-0.2,2.7C1669.7,2415,1673.6,2413.2,1677.6,2413.2z"/>
		<path d="M1710.8,2401v13.1h7.5v8.3h-7.5v15.6c0,2.2,1.7,2.5,3.2,2.5c2.5,0,4.5-0.2,4.5-0.2v8.4c0,0-4.7,0.5-7.6,0.5
			c-4.9,0-9.9-0.8-9.9-7.8v-18.9h-5.4v-8.3h5.4v-13.1h9.8V2401z"/>
		<path d="M1736.3,2448.6h-10.4v-52.7h17.9c12.4,0,19,7.8,19,17.3s-6.6,17.6-19,17.6h-7.5V2448.6z M1736.3,2405v16.9h5.9
			c5.7,0,9.9-2.7,9.9-8.6c0-5.9-4.1-8.3-9.9-8.3L1736.3,2405L1736.3,2405z"/>
		<path d="M1786.5,2425.7c0-2.5-2-4.1-5.7-4.1c-3.5,0-7.8,1.7-10.4,3.2l-3.8-7.4c0,0,6.4-4.2,14.8-4.2c7.8,0,15,3.6,15,12.7v22.7
			h-9.8v-3.2c-1.8,2.7-5.7,4.1-9.6,4.1c-7.3,0-12.1-5.2-12.1-10.8c0-6.6,4.8-10.6,12.5-10.6h6.8c1.7,0,2.4-0.8,2.4-2v-0.4H1786.5z
			 M1786.5,2436.3v-2.5c-0.6,0.6-1.7,0.8-3,0.8h-3.7c-3.1,0-4.9,1.4-4.9,3.8c0,2.3,1.9,4.1,4.9,4.1
			C1783.3,2442.4,1786.5,2440.6,1786.5,2436.3z"/>
		<path d="M1839.3,2414.1v37.1c0,5.4-2.7,10.6-11.1,10.6h-15v-8.3h12.6c1.7,0,3.7-0.5,3.7-3.1v-6.6c-1.7,2.8-5.8,5.2-10.7,5.2
			c-9.3,0-16.6-7.1-16.6-17.9c0-10.8,7.2-17.9,16.5-17.9c5.2,0,9.2,2.4,10.9,5.3c0-0.4-0.2-1.1-0.2-2.9v-1.6L1839.3,2414.1
			L1839.3,2414.1z M1821,2440.6c5.2,0,8.7-3.8,8.7-9.4c0-5.6-3.5-9.5-8.7-9.5c-5.1,0-8.7,3.8-8.7,9.5
			C1812.3,2436.7,1815.9,2440.6,1821,2440.6z"/>
		<path d="M1881.6,2434.3h-25.7c0.5,3.8,3.5,6.9,7.9,6.9c2.9,0,5.6-1.2,6.9-3.5l10.2,1.1c-3.1,7.4-9.6,10.8-17.3,10.8
			c-10.3,0-18.1-7.6-18.1-18.2s7.6-18.2,17.9-18.2c9.5,0,18.1,6.2,18.1,20.6L1881.6,2434.3L1881.6,2434.3z M1855.7,2427.7h15.4
			c-0.5-3.5-3.5-6.3-7.6-6.3C1859.3,2421.4,1856.4,2424,1855.7,2427.7z"/>
		<path d="M1486.7,2544.4h-18.1v-52.7h18.1c17.3,0,27.3,10.7,27.3,26.4C1514,2533.7,1503.9,2544.4,1486.7,2544.4z M1486.3,2500.7
			h-7.2v34.9h7.2c9.6,0,17-5.7,17-17.5C1503.3,2506.4,1496,2500.7,1486.3,2500.7z"/>
		<path d="M1532.6,2544.4h-9.8v-26.2h-4.8v-8.3h14.6L1532.6,2544.4L1532.6,2544.4z M1527.3,2491.7c3.5,0,6.3,2.9,6.3,6.3
			c0,3.5-2.8,6.3-6.3,6.3s-6.3-2.7-6.3-6.3C1521,2494.6,1523.8,2491.7,1527.3,2491.7z"/>
		<path d="M1560.2,2521.5c0-2.5-2-4.1-5.7-4.1c-3.5,0-7.8,1.7-10.4,3.2l-3.8-7.4c0,0,6.4-4.2,14.8-4.2c7.8,0,15,3.6,15,12.7v22.7
			h-9.8v-3.2c-1.8,2.7-5.7,4.1-9.6,4.1c-7.3,0-12.1-5.2-12.1-10.8c0-6.6,4.8-10.6,12.5-10.6h6.8c1.7,0,2.4-0.8,2.4-2v-0.4H1560.2z
			 M1560.2,2532.1v-2.5c-0.6,0.6-1.7,0.8-3,0.8h-3.7c-3.1,0-4.9,1.4-4.9,3.8c0,2.3,1.9,4.1,4.9,4.1
			C1557,2538.2,1560.2,2536.4,1560.2,2532.1z"/>
		<path d="M1599.2,2519.6h-4.1c-5,0-7.2,2.3-7.2,8.4v16.5h-9.8V2510h9.5v5.5c1.4-3.7,4.7-6,9-6c0.9,0,1.8,0.1,2.7,0.3L1599.2,2519.6
			L1599.2,2519.6z"/>
		<path d="M1615.7,2544.4h-2.5l-11.8-34.5h10.9l7.3,24.6l7.4-24.6h10.6l-13.8,39.9c-1.7,5-4.4,7.8-10.8,7.8h-6.8v-8.2h4.8
			c2,0,3.2-0.8,3.8-2.7L1615.7,2544.4z"/>
		<path d="M1653.7,2491.7h8.8v1.2c-6.6,7.8-11.5,18.8-11.5,30.3s4.8,23.8,11.5,31.6v1.1h-8.8c-7.6-9.3-12.8-20.8-12.8-32.8
			C1640.9,2511.2,1646.1,2501.1,1653.7,2491.7z"/>
		<path d="M1679.8,2544.4h-9.8v-26.2h-4.8v-8.3h14.6L1679.8,2544.4L1679.8,2544.4z M1674.5,2491.7c3.5,0,6.3,2.9,6.3,6.3
			c0,3.5-2.8,6.3-6.3,6.3s-6.3-2.7-6.3-6.3C1668.2,2494.6,1671,2491.7,1674.5,2491.7z"/>
		<path d="M1708.2,2509c7.5,0,12.8,4.7,12.8,12.8v22.6h-9.8v-20.1c0-4.4-2.8-6.2-5.9-6.2c-2.9,0-5.4,1.6-7.3,3.9v22.4h-9.8v-34.5
			h9.6v1.4c0,1.2-0.2,2.7-0.2,2.7C1700.3,2510.8,1704.2,2509,1708.2,2509z"/>
		<path d="M1741.5,2496.8v13.1h7.5v8.3h-7.5v15.6c0,2.2,1.7,2.5,3.2,2.5c2.5,0,4.5-0.2,4.5-0.2v8.4c0,0-4.7,0.5-7.6,0.5
			c-4.9,0-9.9-0.8-9.9-7.8v-18.9h-5.4v-8.3h5.4v-13.1h9.8V2496.8z"/>
		<path d="M1760.4,2556h-8.8v-1.1c6.6-7.8,11.5-20.2,11.5-31.6c0-11.4-4.8-22.4-11.5-30.3v-1.2h8.8c7.6,9.4,12.8,19.5,12.8,31.5
			C1773.2,2535.2,1768,2546.7,1760.4,2556z"/>
		<path d="M1479.1,2619.3v20.9h-10.5v-52.7h38.2v9h-27.7v13.7h20.3v9h-20.3V2619.3z"/>
		<path d="M1521.5,2640.2h-9.7v-52.7h9.7V2640.2z"/>
		<path d="M1541.8,2640.2h-9.8V2614h-4.8v-8.3h14.6L1541.8,2640.2L1541.8,2640.2z M1536.4,2587.5c3.5,0,6.3,2.9,6.3,6.3
			c0,3.5-2.8,6.3-6.3,6.3s-6.3-2.7-6.3-6.3C1530.2,2590.4,1532.9,2587.5,1536.4,2587.5z"/>
		<path d="M1560,2653.4h-9.8v-47.7h9.8v1.7c0,1.7-0.2,2.4-0.2,2.8c1.7-2.9,5.7-5.3,10.9-5.3c9.5,0,16.7,7.6,16.7,18.2
			c0,10.5-7.3,18.2-16.8,18.2c-4.9,0-9-2.3-10.7-5.3L1560,2653.4L1560,2653.4z M1559.8,2623c0,5.3,3.6,9.5,8.8,9.5s8.8-4.2,8.8-9.5
			s-3.6-9.4-8.8-9.4S1559.8,2617.6,1559.8,2623z"/>
		<path d="M1605,2587.5h8.8v1.2c-6.6,7.8-11.5,18.8-11.5,30.3s4.8,23.8,11.5,31.6v1.1h-8.8c-7.6-9.3-12.8-20.8-12.8-32.8
			C1592.2,2607,1597.3,2596.9,1605,2587.5z"/>
		<path d="M1625.1,2651.8h-8.8v-1.1c6.6-7.8,11.5-20.2,11.5-31.6c0-11.4-4.8-22.4-11.5-30.3v-1.2h8.8c7.6,9.4,12.8,19.5,12.8,31.5
			C1638,2631,1632.8,2642.5,1625.1,2651.8z"/>
		<path d="M1495.7,2697.3c-3.2-3.2-7.5-5.4-11.1-5.4c-3.5,0-6.6,1.8-6.6,5c0,2.4,1.5,4.3,5.7,6.3l4.4,2c8.4,3.9,13.4,8.3,13.4,16.2
			s-6.7,15.6-18.3,15.6c-8,0-13.9-3.1-18.9-7.9l5.8-7.8c3.9,4,8.9,6.3,12.9,6.3c4.5,0,7.3-2.5,7.3-5.7c0-3.6-3.2-5.6-8.3-8l-3.7-1.7
			c-7.1-3.3-11.5-8.1-11.5-14.8c0-9.3,8.3-14.8,17.6-14.8c6.1,0,12.4,3,17.4,7.4L1495.7,2697.3z"/>
		<path d="M1520,2688.4v13.1h7.5v8.3h-7.5v15.6c0,2.2,1.7,2.5,3.2,2.5c2.5,0,4.5-0.2,4.5-0.2v8.4c0,0-4.7,0.5-7.6,0.5
			c-4.9,0-9.9-0.8-9.9-7.8v-18.9h-5.4v-8.3h5.4v-13.1h9.8V2688.4z"/>
		<path d="M1555.4,2711.2h-4.1c-5,0-7.2,2.3-7.2,8.4v16.5h-9.8v-34.5h9.5v5.5c1.4-3.7,4.7-6,9-6c0.9,0,1.8,0.1,2.7,0.3
			L1555.4,2711.2L1555.4,2711.2z"/>
		<path d="M1572.7,2736.1h-9.8v-26.2h-4.8v-8.3h14.6L1572.7,2736.1L1572.7,2736.1z M1567.4,2683.3c3.5,0,6.3,2.9,6.3,6.3
			c0,3.5-2.8,6.3-6.3,6.3s-6.3-2.7-6.3-6.3C1561.1,2686.2,1563.9,2683.3,1567.4,2683.3z"/>
		<path d="M1601.1,2700.6c7.5,0,12.8,4.7,12.8,12.8v22.6h-9.8v-20.1c0-4.4-2.8-6.2-5.9-6.2c-2.9,0-5.4,1.6-7.3,3.9v22.4h-9.8v-34.5
			h9.6v1.4c0,1.2-0.2,2.7-0.2,2.7C1593.2,2702.4,1597.1,2700.6,1601.1,2700.6z"/>
		<path d="M1656.9,2701.5v37.1c0,5.4-2.7,10.6-11.1,10.6h-15v-8.3h12.6c1.7,0,3.7-0.5,3.7-3.1v-6.6c-1.7,2.8-5.8,5.2-10.7,5.2
			c-9.3,0-16.6-7.1-16.6-17.9c0-10.8,7.2-17.9,16.5-17.9c5.2,0,9.2,2.4,10.9,5.3c0-0.4-0.2-1.1-0.2-2.9v-1.6L1656.9,2701.5
			L1656.9,2701.5z M1638.6,2728c5.2,0,8.7-3.8,8.7-9.4c0-5.6-3.5-9.5-8.7-9.5c-5.1,0-8.7,3.8-8.7,9.5
			C1630,2724.1,1633.5,2728,1638.6,2728z"/>
		<path d="M1677.2,2736.1h-9.8v-26.2h-4.8v-8.3h14.6L1677.2,2736.1L1677.2,2736.1z M1671.9,2683.3c3.5,0,6.3,2.9,6.3,6.3
			c0,3.5-2.8,6.3-6.3,6.3s-6.3-2.7-6.3-6.3C1665.6,2686.2,1668.4,2683.3,1671.9,2683.3z"/>
		<path d="M1688,2691.8c0-6.8,4.5-9.1,9.8-9.1c2.6,0,7.2,0.5,7.2,0.5v9c0,0-3-0.4-4.1-0.4c-1.9,0-3.1,0.5-3.1,2.9v7h6.6v8.3h-6.6
			v26.2h-9.8V2710h-5.4v-8.3h5.4V2691.8z"/>
		<path d="M1720.8,2736.1h-2.5l-11.8-34.5h10.9l7.3,24.6l7.4-24.6h10.6l-13.8,39.9c-1.7,5-4.4,7.8-10.8,7.8h-6.8v-8.2h4.8
			c2,0,3.2-0.8,3.8-2.7L1720.8,2736.1z"/>
		<path d="M1758.9,2683.3h8.8v1.2c-6.6,7.8-11.5,18.8-11.5,30.3s4.8,23.8,11.5,31.6v1.1h-8.8c-7.6-9.3-12.8-20.8-12.8-32.8
			S1751.2,2692.7,1758.9,2683.3z"/>
		<path d="M1779,2747.6h-8.8v-1.1c6.6-7.8,11.5-20.2,11.5-31.6s-4.8-22.4-11.5-30.3v-1.2h8.8c7.6,9.4,12.8,19.5,12.8,31.5
			S1786.7,2738.3,1779,2747.6z"/>
		<path d="M1495.7,2793.1c-3.2-3.2-7.5-5.4-11.1-5.4c-3.5,0-6.6,1.8-6.6,5c0,2.4,1.5,4.3,5.7,6.3l4.4,2c8.4,3.9,13.4,8.3,13.4,16.2
			s-6.7,15.6-18.3,15.6c-8,0-13.9-3.1-18.9-7.9l5.8-7.8c3.9,4,8.9,6.3,12.9,6.3c4.5,0,7.3-2.5,7.3-5.7c0-3.6-3.2-5.7-8.3-8l-3.7-1.7
			c-7.1-3.3-11.5-8.1-11.5-14.8c0-9.3,8.3-14.8,17.6-14.8c6.1,0,12.4,3,17.4,7.4L1495.7,2793.1z"/>
		<path d="M1517.3,2845h-9.8v-47.7h9.8v1.7c0,1.7-0.2,2.4-0.2,2.8c1.7-2.9,5.7-5.3,10.9-5.3c9.5,0,16.7,7.6,16.7,18.2
			c0,10.5-7.3,18.2-16.8,18.2c-4.9,0-9-2.3-10.7-5.3L1517.3,2845L1517.3,2845z M1517.1,2814.6c0,5.3,3.6,9.5,8.8,9.5
			s8.8-4.2,8.8-9.5s-3.6-9.4-8.8-9.4S1517.1,2809.3,1517.1,2814.6z"/>
		<path d="M1563,2831.9h-9.8v-26.3h-4.8v-8.3h14.6L1563,2831.9L1563,2831.9z M1557.7,2779.1c3.5,0,6.3,2.9,6.3,6.3
			c0,3.5-2.8,6.3-6.3,6.3s-6.3-2.7-6.3-6.3C1551.4,2782,1554.2,2779.1,1557.7,2779.1z"/>
		<path d="M1581.2,2831.9h-9.7v-52.7h9.7V2831.9z"/>
		<path d="M1599.3,2831.9h-9.7v-52.7h9.7V2831.9z"/>
		<path d="M1636.1,2793.1c-3.2-3.2-7.5-5.4-11.1-5.4c-3.5,0-6.6,1.8-6.6,5c0,2.4,1.5,4.3,5.7,6.3l4.4,2c8.4,3.9,13.4,8.3,13.4,16.2
			s-6.7,15.6-18.3,15.6c-8,0-13.9-3.1-18.9-7.9l5.8-7.8c3.9,4,8.9,6.3,12.9,6.3c4.5,0,7.3-2.5,7.3-5.7c0-3.6-3.2-5.7-8.3-8l-3.7-1.7
			c-7.1-3.3-11.5-8.1-11.5-14.8c0-9.3,8.3-14.8,17.6-14.8c6.1,0,12.4,3,17.4,7.4L1636.1,2793.1z"/>
		<path d="M1682.1,2817.5h-25.7c0.5,3.8,3.5,6.9,7.9,6.9c2.9,0,5.6-1.2,6.9-3.5l10.2,1.1c-3.1,7.4-9.6,10.8-17.3,10.8
			c-10.3,0-18.1-7.6-18.1-18.2c0-10.5,7.6-18.2,17.9-18.2c9.5,0,18.1,6.2,18.1,20.6L1682.1,2817.5L1682.1,2817.5z M1656.2,2810.9
			h15.4c-0.5-3.5-3.5-6.3-7.6-6.3S1656.9,2807.2,1656.2,2810.9z"/>
		<path d="M1695.5,2814.6c0,5.4,3.5,9.4,8.7,9.4c3.6,0,6.3-2,7.6-5.3l9.2,2.9c-2.3,6.9-9,11.1-16.9,11.1c-10.2,0-18.4-7.6-18.4-18.2
			c0-10.5,8.1-18.2,18.4-18.2c7.8,0,14.6,4.4,16.9,11.2l-9.2,2.8c-1.3-3.2-4-5.3-7.6-5.3C1699,2805.2,1695.5,2809.2,1695.5,2814.6z"
			/>
		<path d="M1747.9,2807h-4.1c-5,0-7.2,2.3-7.2,8.4v16.5h-9.8v-34.5h9.5v5.5c1.4-3.7,4.7-6,9-6c0.9,0,1.8,0.1,2.7,0.3L1747.9,2807
			L1747.9,2807z"/>
		<path d="M1786.9,2817.5h-25.7c0.5,3.8,3.5,6.9,7.9,6.9c2.9,0,5.6-1.2,6.9-3.5l10.2,1.1c-3.1,7.4-9.6,10.8-17.3,10.8
			c-10.3,0-18.1-7.6-18.1-18.2c0-10.5,7.6-18.2,17.9-18.2c9.5,0,18.1,6.2,18.1,20.6L1786.9,2817.5L1786.9,2817.5z M1761,2810.9h15.4
			c-0.5-3.5-3.5-6.3-7.6-6.3C1764.7,2804.6,1761.7,2807.2,1761,2810.9z"/>
		<path d="M1805,2784.2v13.1h7.5v8.3h-7.5v15.6c0,2.2,1.7,2.5,3.2,2.5c2.5,0,4.5-0.2,4.5-0.2v8.4c0,0-4.7,0.5-7.6,0.5
			c-4.9,0-9.9-0.8-9.9-7.8v-19h-5.4v-8.3h5.4v-13.1L1805,2784.2L1805,2784.2z"/>
		<path d="M1830.4,2779.1h8.8v1.2c-6.6,7.8-11.5,18.8-11.5,30.3s4.8,23.8,11.5,31.6v1.1h-8.8c-7.6-9.3-12.8-20.8-12.8-32.8
			C1817.6,2798.6,1822.8,2788.5,1830.4,2779.1z"/>
		<path d="M1850.6,2843.4h-8.8v-1.1c6.6-7.8,11.5-20.2,11.5-31.6c0-11.4-4.8-22.4-11.5-30.3v-1.2h8.8c7.6,9.4,12.8,19.5,12.8,31.5
			C1863.4,2822.6,1858.2,2834.1,1850.6,2843.4z"/>
	</g>
	<g>
		<path d="M1486.7,2119.1h-18.1v-52.7h18.1c17.3,0,27.3,10.7,27.3,26.4C1514,2108.4,1503.9,2119.1,1486.7,2119.1z M1486.3,2075.4
			h-7.2v34.9h7.2c9.6,0,17-5.6,17-17.5C1503.3,2081.1,1496,2075.4,1486.3,2075.4z"/>
		<path d="M1532.6,2119.1h-9.8v-26.2h-4.8v-8.3h14.6L1532.6,2119.1L1532.6,2119.1z M1527.3,2066.4c3.5,0,6.3,2.9,6.3,6.3
			c0,3.5-2.8,6.3-6.3,6.3s-6.3-2.7-6.3-6.3C1521,2069.3,1523.8,2066.4,1527.3,2066.4z"/>
		<path d="M1560.2,2096.2c0-2.5-2-4.1-5.7-4.1c-3.5,0-7.8,1.7-10.4,3.2l-3.8-7.4c0,0,6.4-4.2,14.8-4.2c7.8,0,15,3.6,15,12.7v22.7
			h-9.8v-3.2c-1.8,2.7-5.7,4.1-9.6,4.1c-7.3,0-12.1-5.2-12.1-10.8c0-6.6,4.8-10.6,12.5-10.6h6.8c1.7,0,2.4-0.8,2.4-2v-0.4H1560.2z
			 M1560.2,2106.8v-2.5c-0.6,0.6-1.7,0.8-3,0.8h-3.7c-3.1,0-4.9,1.4-4.9,3.8c0,2.3,1.9,4.1,4.9,4.1
			C1557,2112.9,1560.2,2111.1,1560.2,2106.8z"/>
		<path d="M1599.2,2094.3h-4.1c-5,0-7.2,2.3-7.2,8.4v16.5h-9.8v-34.6h9.5v5.5c1.4-3.7,4.7-6,9-6c0.9,0,1.8,0.1,2.7,0.3
			L1599.2,2094.3L1599.2,2094.3z"/>
		<path d="M1615.7,2119.1h-2.5l-11.8-34.5h10.9l7.3,24.6l7.4-24.6h10.6l-13.8,39.9c-1.7,5-4.4,7.8-10.8,7.8h-6.8v-8.2h4.8
			c2,0,3.2-0.8,3.8-2.7L1615.7,2119.1z"/>
		<path d="M1662.6,2084.6c3.7,0,6.6,2.9,6.6,6.6c0,3.6-2.9,6.6-6.6,6.6c-3.6,0-6.6-2.9-6.6-6.6
			C1656,2087.6,1659,2084.6,1662.6,2084.6z M1662.6,2106.9c3.7,0,6.6,2.9,6.6,6.6c0,3.7-2.9,6.6-6.6,6.6c-3.6,0-6.6-2.9-6.6-6.6
			C1656,2109.9,1659,2106.9,1662.6,2106.9z"/>
		<path d="M1720.5,2090.8v0.2c6.1,2.5,9.8,6.9,9.8,13c0,8.4-6.3,15.1-17.4,15.1h-18.8v-52.7h17c10.8,0,16.3,6.7,16.3,13.5
			C1727.4,2084.5,1725.2,2088.6,1720.5,2090.8z M1704.6,2075.3v11.8h5.3c3.8,0,6.9-1.9,6.9-6s-3.2-5.8-6.9-5.8H1704.6z
			 M1704.6,2110.3h5.4c6.3,0,9.3-2.9,9.3-7.2c0-4.4-3.7-6.7-8.8-6.7h-6L1704.6,2110.3L1704.6,2110.3z"/>
		<path d="M1734.6,2101.9c0-10.5,8.2-18.2,18.5-18.2s18.5,7.6,18.5,18.2s-8.2,18.2-18.5,18.2S1734.6,2112.4,1734.6,2101.9z
			 M1744.4,2101.9c0,5.3,3.5,9.4,8.7,9.4c5,0,8.6-4.1,8.6-9.4c0-5.4-3.5-9.4-8.6-9.4C1747.9,2092.5,1744.4,2096.5,1744.4,2101.9z"/>
		<path d="M1775.6,2101.9c0-10.5,8.2-18.2,18.5-18.2s18.5,7.6,18.5,18.2s-8.2,18.2-18.5,18.2S1775.6,2112.4,1775.6,2101.9z
			 M1785.4,2101.9c0,5.3,3.5,9.4,8.7,9.4c5,0,8.6-4.1,8.6-9.4c0-5.4-3.5-9.4-8.6-9.4C1788.9,2092.5,1785.4,2096.5,1785.4,2101.9z"/>
		<path d="M1828.5,2096.6h2.3l9.5-12h11.8l-13.3,15.8l13.7,18.7h-11.8l-9.9-14.2h-2.3v14.2h-9.7v-52.7h9.7L1828.5,2096.6
			L1828.5,2096.6z"/>
		<path d="M1862.9,2107c3.8,0,6.8,2.9,6.8,6.6c0,1.1-0.5,2.8-1,3.8l-6,11.1h-7.9l4.3-9.5c-1.7-1.1-2.8-3.1-2.8-5.3
			C1856.3,2109.9,1859.2,2107,1862.9,2107z"/>
		<path d="M1893.8,2066.4h10.5v52.7h-10.5V2066.4z"/>
		<path d="M1925.8,2098.2v20.9h-10.5v-52.7h38.2v9h-27.7v13.7h20.3v9h-20.3V2098.2z"/>
		<path d="M1968.2,2119.1h-9.7v-52.7h9.7V2119.1z"/>
		<path d="M1988.5,2119.1h-9.8v-26.2h-4.8v-8.3h14.6L1988.5,2119.1L1988.5,2119.1z M1983.1,2066.4c3.5,0,6.3,2.9,6.3,6.3
			c0,3.5-2.8,6.3-6.3,6.3s-6.3-2.7-6.3-6.3C1976.9,2069.3,1979.7,2066.4,1983.1,2066.4z"/>
		<path d="M2006.7,2132.3h-9.8v-47.7h9.8v1.7c0,1.7-0.2,2.4-0.2,2.8c1.7-2.9,5.7-5.3,10.9-5.3c9.5,0,16.7,7.6,16.7,18.2
			s-7.3,18.2-16.8,18.2c-4.9,0-9-2.3-10.7-5.3L2006.7,2132.3L2006.7,2132.3z M2006.5,2101.9c0,5.3,3.6,9.5,8.8,9.5s8.8-4.2,8.8-9.5
			s-3.6-9.4-8.8-9.4S2006.5,2096.5,2006.5,2101.9z"/>
		<path d="M2050.3,2132.3h-9.8v-47.7h9.8v1.7c0,1.7-0.2,2.4-0.2,2.8c1.7-2.9,5.7-5.3,10.9-5.3c9.5,0,16.7,7.6,16.7,18.2
			s-7.3,18.2-16.8,18.2c-4.9,0-9-2.3-10.7-5.3v17.4H2050.3z M2050.1,2101.9c0,5.3,3.6,9.5,8.8,9.5s8.8-4.2,8.8-9.5s-3.6-9.4-8.8-9.4
			S2050.1,2096.5,2050.1,2101.9z"/>
		<path d="M2103.3,2096.2c0-2.5-2-4.1-5.7-4.1c-3.5,0-7.8,1.7-10.4,3.2l-3.8-7.4c0,0,6.4-4.2,14.8-4.2c7.8,0,15,3.6,15,12.7v22.7
			h-9.8v-3.2c-1.8,2.7-5.7,4.1-9.6,4.1c-7.3,0-12.1-5.2-12.1-10.8c0-6.6,4.8-10.6,12.5-10.6h6.8c1.7,0,2.4-0.8,2.4-2L2103.3,2096.2
			L2103.3,2096.2z M2103.3,2106.8v-2.5c-0.6,0.6-1.7,0.8-3,0.8h-3.7c-3.1,0-4.9,1.4-4.9,3.8c0,2.3,1.9,4.1,4.9,4.1
			C2100.1,2112.9,2103.3,2111.1,2103.3,2106.8z"/>
		<path d="M2130.9,2119.1h-9.8v-52.7h9.8v17c0,2.3-0.2,4.7-0.2,5.7c1.7-2.9,5.7-5.3,10.9-5.3c9.5,0,16.7,7.6,16.7,18.2
			s-7.3,18.2-16.8,18.2c-4.9,0-9-2.3-10.7-5.3v4.2H2130.9z M2130.7,2101.9c0,5.3,3.6,9.5,8.8,9.5s8.8-4.2,8.8-9.5s-3.6-9.4-8.8-9.4
			S2130.7,2096.5,2130.7,2101.9z"/>
		<path d="M2174.5,2119.1h-9.7v-52.7h9.7V2119.1z"/>
		<path d="M2216.7,2104.7H2191c0.5,3.8,3.5,6.9,7.9,6.9c2.9,0,5.6-1.2,6.9-3.5l10.2,1.1c-3.1,7.4-9.6,10.8-17.3,10.8
			c-10.3,0-18.1-7.6-18.1-18.2s7.6-18.2,17.9-18.2c9.5,0,18.1,6.2,18.1,20.6v0.5H2216.7z M2190.8,2098.2h15.4
			c-0.5-3.5-3.5-6.3-7.6-6.3C2194.5,2091.9,2191.6,2094.5,2190.8,2098.2z"/>
	</g>
</g>
<g>
	<rect x="22.3" y="2047.8" class="st0" width="1069.7" height="870.4"/>
	<rect x="23" y="2041.6" class="st5" width="1068.7" height="119.6"/>
	<g>
		<path class="st6" d="M120.5,2263.6h-11.3l-4.5-14.4H88.8l-4.2,14.4h-11l17-52.7h12.5L120.5,2263.6z M96.8,2222.2h-0.2l-5.3,18.1
			h10.8L96.8,2222.2z"/>
		<path class="st6" d="M124.1,2250.9v-21.8h9.8v20c0,4.7,3.2,6.6,6.6,6.6c3.5,0,6.6-1.9,6.6-6.6v-20h9.7v21.8
			c0,7.2-5.7,13.6-16.3,13.6C129.9,2264.5,124.1,2258.2,124.1,2250.9z"/>
		<path class="st6" d="M177.1,2216v13.1h7.5v8.3h-7.5v15.6c0,2.2,1.7,2.5,3.2,2.5c2.5,0,4.5-0.2,4.5-0.2v8.4c0,0-4.7,0.5-7.6,0.5
			c-4.9,0-9.9-0.8-9.9-7.8v-18.9h-5.4v-8.3h5.4v-13.1h9.8V2216z"/>
		<path class="st6" d="M211.3,2228.2c7.5,0,12.8,4.7,12.8,12.8v22.6h-9.8v-20.1c0-4.4-2.8-6.2-5.9-6.2c-2.9,0-5.4,1.6-7.3,3.9v22.4
			h-9.8v-52.7h9.6v19.6c0,1.2-0.2,2.7-0.2,2.7C203.5,2229.9,207.4,2228.2,211.3,2228.2z"/>
		<path class="st6" d="M230,2246.3c0-10.5,8.2-18.2,18.5-18.2c10.3,0,18.5,7.6,18.5,18.2s-8.2,18.2-18.5,18.2S230,2256.9,230,2246.3
			z M239.8,2246.3c0,5.3,3.5,9.4,8.7,9.4c5,0,8.6-4.1,8.6-9.4c0-5.4-3.5-9.4-8.6-9.4C243.3,2236.9,239.8,2240.9,239.8,2246.3z"/>
		<path class="st6" d="M294.3,2238.7h-4.1c-5,0-7.2,2.3-7.2,8.4v16.5h-9.8v-34.5h9.5v5.5c1.4-3.7,4.7-6,9-6c0.9,0,1.8,0.1,2.7,0.3
			v9.8H294.3z"/>
		<path class="st6" d="M115.7,2306.7v9.3H100v43.4H89.6V2316H73.8v-9.3H115.7z"/>
		<path class="st6" d="M132.8,2359.4H123v-26.2h-4.8v-8.3h14.6V2359.4z M127.5,2306.7c3.5,0,6.3,2.9,6.3,6.3c0,3.5-2.8,6.3-6.3,6.3
			s-6.3-2.7-6.3-6.3C121.2,2309.5,124,2306.7,127.5,2306.7z"/>
		<path class="st6" d="M153.6,2311.8v13.1h7.5v8.3h-7.5v15.6c0,2.2,1.7,2.5,3.2,2.5c2.5,0,4.5-0.2,4.5-0.2v8.4c0,0-4.7,0.5-7.6,0.5
			c-4.9,0-9.9-0.8-9.9-7.8v-18.9h-5.4v-8.3h5.4v-13.1h9.8V2311.8z"/>
		<path class="st6" d="M177.5,2359.4h-9.7v-52.7h9.7V2359.4z"/>
		<path class="st6" d="M219.8,2345h-25.7c0.5,3.8,3.5,6.9,7.9,6.9c2.9,0,5.6-1.2,6.9-3.5l10.2,1.1c-3.1,7.4-9.6,10.8-17.3,10.8
			c-10.3,0-18.1-7.6-18.1-18.2c0-10.5,7.6-18.2,17.9-18.2c9.5,0,18.1,6.2,18.1,20.6v0.5H219.8z M193.9,2338.5h15.4
			c-0.5-3.5-3.5-6.3-7.6-6.3C197.6,2332.1,194.6,2334.8,193.9,2338.5z"/>
		<path d="M102.7,2446.5c7,0,12.4-3.8,14.3-10h11.5c-3.1,12.4-13.9,19.7-25.8,19.7c-15.5,0-27.5-11.4-27.5-27.3
			c0-15.9,12-27.3,27.5-27.3c11.9,0,22.8,7.2,25.8,19.7H117c-2-6.3-7.3-10-14.3-10c-9.9,0-16.6,7.5-16.6,17.6
			C86.1,2438.9,92.7,2446.5,102.7,2446.5z"/>
		<path d="M134,2442.5v-21.8h9.8v20c0,4.7,3.2,6.6,6.6,6.6c3.5,0,6.6-1.9,6.6-6.6v-20h9.7v21.8c0,7.2-5.7,13.6-16.3,13.6
			C139.9,2456.1,134,2449.8,134,2442.5z"/>
		<path d="M195.9,2430.3h-4.1c-5,0-7.2,2.3-7.2,8.4v16.5h-9.8v-34.5h9.5v5.5c1.4-3.7,4.7-6,9-6c0.9,0,1.8,0.1,2.7,0.3L195.9,2430.3
			L195.9,2430.3z"/>
		<path d="M222.5,2430.3h-4.1c-5,0-7.2,2.3-7.2,8.4v16.5h-9.8v-34.5h9.5v5.5c1.4-3.7,4.7-6,9-6c0.9,0,1.8,0.1,2.7,0.3L222.5,2430.3
			L222.5,2430.3z"/>
		<path d="M261.5,2440.8h-25.7c0.5,3.8,3.5,6.9,7.9,6.9c2.9,0,5.6-1.2,6.9-3.5l10.2,1.1c-3.1,7.4-9.6,10.8-17.3,10.8
			c-10.3,0-18.1-7.6-18.1-18.2c0-10.5,7.6-18.2,17.9-18.2c9.5,0,18.1,6.2,18.1,20.6v0.5H261.5z M235.5,2434.3H251
			c-0.5-3.5-3.5-6.3-7.6-6.3C239.2,2427.9,236.3,2430.6,235.5,2434.3z"/>
		<path d="M287.2,2419.8c7.5,0,12.8,4.7,12.8,12.8v22.6h-9.8v-20.1c0-4.4-2.8-6.2-5.9-6.2c-2.9,0-5.4,1.6-7.3,3.9v22.4h-9.8v-34.5
			h9.6v1.4c0,1.2-0.2,2.7-0.2,2.7C279.3,2421.5,283.2,2419.8,287.2,2419.8z"/>
		<path d="M320.4,2407.6v13.1h7.5v8.3h-7.5v15.6c0,2.2,1.7,2.5,3.2,2.5c2.5,0,4.5-0.2,4.5-0.2v8.4c0,0-4.7,0.5-7.6,0.5
			c-4.9,0-9.9-0.8-9.9-7.8v-18.9h-5.4v-8.3h5.4v-13.2H320.4z"/>
		<path d="M346,2455.2h-10.4v-52.7h17.9c12.4,0,19,7.8,19,17.3s-6.6,17.6-19,17.6H346V2455.2z M346,2411.5v16.9h5.9
			c5.7,0,9.9-2.7,9.9-8.6c0-5.9-4.1-8.3-9.9-8.3L346,2411.5L346,2411.5z"/>
		<path d="M396.2,2432.2c0-2.5-2-4.1-5.7-4.1c-3.5,0-7.8,1.7-10.4,3.2l-3.8-7.4c0,0,6.4-4.2,14.8-4.2c7.8,0,15,3.6,15,12.7v22.7
			h-9.8v-3.2c-1.8,2.7-5.7,4.1-9.6,4.1c-7.3,0-12.1-5.2-12.1-10.8c0-6.6,4.8-10.6,12.5-10.6h6.8c1.7,0,2.4-0.8,2.4-2L396.2,2432.2
			L396.2,2432.2z M396.2,2442.8v-2.5c-0.6,0.6-1.7,0.8-3,0.8h-3.7c-3.1,0-4.9,1.4-4.9,3.8c0,2.3,1.9,4.1,4.9,4.1
			C393,2448.9,396.2,2447.1,396.2,2442.8z"/>
		<path d="M449,2420.7v37.1c0,5.4-2.7,10.6-11.1,10.6h-15v-8.3h12.6c1.7,0,3.7-0.5,3.7-3.1v-6.6c-1.7,2.8-5.8,5.2-10.7,5.2
			c-9.3,0-16.6-7.1-16.6-17.9c0-10.8,7.2-17.9,16.5-17.9c5.2,0,9.2,2.4,10.9,5.3c0-0.4-0.2-1.1-0.2-2.9v-1.6L449,2420.7L449,2420.7z
			 M430.7,2447.1c5.2,0,8.7-3.8,8.7-9.4c0-5.7-3.5-9.5-8.7-9.5c-5.1,0-8.7,3.8-8.7,9.5C422,2443.3,425.5,2447.1,430.7,2447.1z"/>
		<path d="M491.2,2440.8h-25.7c0.5,3.8,3.5,6.9,7.9,6.9c2.9,0,5.6-1.2,6.9-3.5l10.2,1.1c-3.1,7.4-9.6,10.8-17.3,10.8
			c-10.3,0-18.1-7.6-18.1-18.2c0-10.5,7.6-18.2,17.9-18.2c9.5,0,18.1,6.2,18.1,20.6v0.5H491.2z M465.3,2434.3h15.4
			c-0.5-3.5-3.5-6.3-7.6-6.3C469,2427.9,466.1,2430.6,465.3,2434.3z"/>
		<path d="M96.3,2551h-18v-52.7h18.1c17.3,0,27.3,10.7,27.3,26.4C123.7,2540.3,113.6,2551,96.3,2551z M96,2507.2h-7.2v34.9H96
			c9.6,0,17-5.6,17-17.5C113,2513,105.6,2507.2,96,2507.2z"/>
		<path d="M142.3,2551h-9.8v-26.2h-4.8v-8.3h14.6V2551z M136.9,2498.3c3.5,0,6.3,2.9,6.3,6.3c0,3.5-2.8,6.3-6.3,6.3
			s-6.3-2.7-6.3-6.3C130.7,2501.1,133.5,2498.3,136.9,2498.3z"/>
		<path d="M171.1,2527c-2.8-2.7-6.3-3.5-8.5-3.5c-2.6,0-3.5,1.3-3.5,2.3c0,1.2,0.8,2,2.6,2.6l5.7,1.8c7.1,2.3,9.5,6.2,9.5,10.7
			c0,5-4.3,10.9-13.7,10.9c-7.6,0-12.4-2.9-15.2-5.4l5.2-6.8c2.5,2.3,6.9,4.3,10.2,4.3c2.3,0,3.8-1.2,3.8-2.6c0-1.7-1.1-2.5-3.9-3.3
			l-5.9-1.7c-5.6-1.8-8-5.6-8-10.1c0-5.7,5.1-10.7,13.4-10.7c4.5,0,9.9,1.4,13.9,5.1L171.1,2527z"/>
		<path d="M203.5,2527c-2.8-2.7-6.3-3.5-8.5-3.5c-2.6,0-3.5,1.3-3.5,2.3c0,1.2,0.8,2,2.6,2.6l5.7,1.8c7.1,2.3,9.5,6.2,9.5,10.7
			c0,5-4.3,10.9-13.7,10.9c-7.6,0-12.4-2.9-15.2-5.4l5.2-6.8c2.5,2.3,6.9,4.3,10.2,4.3c2.3,0,3.8-1.2,3.8-2.6c0-1.7-1.1-2.5-3.9-3.3
			l-5.9-1.7c-5.6-1.8-8-5.6-8-10.1c0-5.7,5.1-10.7,13.4-10.7c4.5,0,9.9,1.4,13.9,5.1L203.5,2527z"/>
		<path d="M249.3,2536.6h-25.7c0.5,3.8,3.5,6.9,7.9,6.9c2.9,0,5.6-1.2,6.9-3.5l10.2,1.1c-3.1,7.4-9.6,10.8-17.3,10.8
			c-10.3,0-18.1-7.6-18.1-18.2s7.6-18.2,17.9-18.2c9.5,0,18.1,6.2,18.1,20.6v0.5H249.3z M223.4,2530.1h15.4
			c-0.5-3.5-3.5-6.3-7.6-6.3C227.1,2523.7,224.2,2526.4,223.4,2530.1z"/>
		<path d="M276.3,2526.1h-4.1c-5,0-7.2,2.3-7.2,8.4v16.5h-9.8v-34.5h9.5v5.5c1.4-3.7,4.7-6,9-6c0.9,0,1.8,0.1,2.7,0.3L276.3,2526.1
			L276.3,2526.1z"/>
		<path d="M300.6,2528c0-2.5-2-4.1-5.7-4.1c-3.5,0-7.8,1.7-10.4,3.2l-3.8-7.4c0,0,6.4-4.2,14.8-4.2c7.8,0,15,3.6,15,12.7v22.7h-9.8
			v-3.2c-1.8,2.7-5.7,4.1-9.6,4.1c-7.3,0-12.1-5.2-12.1-10.8c0-6.6,4.8-10.6,12.5-10.6h6.8c1.7,0,2.4-0.8,2.4-2L300.6,2528
			L300.6,2528z M300.6,2538.6v-2.5c-0.6,0.6-1.7,0.8-3,0.8h-3.7c-3.1,0-4.9,1.4-4.9,3.8c0,2.3,1.9,4.1,4.9,4.1
			C297.5,2544.7,300.6,2542.9,300.6,2538.6z"/>
		<path d="M330.8,2503.4v13.1h7.5v8.3h-7.5v15.6c0,2.2,1.7,2.5,3.2,2.5c2.5,0,4.5-0.2,4.5-0.2v8.4c0,0-4.7,0.5-7.6,0.5
			c-4.9,0-9.9-0.8-9.9-7.8v-18.9h-5.4v-8.3h5.4v-13.1h9.8V2503.4z"/>
		<path d="M356.9,2551h-9.8v-26.2h-4.8v-8.3h14.6L356.9,2551L356.9,2551z M351.6,2498.3c3.5,0,6.3,2.9,6.3,6.3
			c0,3.5-2.8,6.3-6.3,6.3s-6.3-2.7-6.3-6.3C345.3,2501.1,348.1,2498.3,351.6,2498.3z"/>
		<path d="M363.2,2533.7c0-10.5,8.2-18.2,18.5-18.2s18.5,7.6,18.5,18.2s-8.2,18.2-18.5,18.2S363.2,2544.3,363.2,2533.7z M373,2533.7
			c0,5.3,3.5,9.4,8.7,9.4c5,0,8.6-4.1,8.6-9.4c0-5.4-3.5-9.4-8.6-9.4C376.5,2524.3,373,2528.3,373,2533.7z"/>
		<path d="M426.3,2515.6c7.5,0,12.8,4.7,12.8,12.8v22.6h-9.8v-20.1c0-4.4-2.8-6.2-5.9-6.2c-2.9,0-5.4,1.6-7.3,3.9v22.4h-9.8v-34.5
			h9.6v1.4c0,1.2-0.2,2.7-0.2,2.7C418.4,2517.3,422.3,2515.6,426.3,2515.6z"/>
		<path d="M458.3,2498.3h8.8v1.2c-6.6,7.8-11.5,18.8-11.5,30.3s4.8,23.8,11.5,31.6v1.1h-8.8c-7.6-9.3-12.8-20.8-12.8-32.8
			S450.7,2507.7,458.3,2498.3z"/>
		<path d="M484.4,2551h-9.8v-26.2h-4.8v-8.3h14.6L484.4,2551L484.4,2551z M479.1,2498.3c3.5,0,6.3,2.9,6.3,6.3
			c0,3.5-2.8,6.3-6.3,6.3s-6.3-2.7-6.3-6.3C472.8,2501.1,475.6,2498.3,479.1,2498.3z"/>
		<path d="M512.8,2515.6c7.5,0,12.8,4.7,12.8,12.8v22.6h-9.8v-20.1c0-4.4-2.8-6.2-5.9-6.2c-2.9,0-5.4,1.6-7.3,3.9v22.4h-9.8v-34.5
			h9.6v1.4c0,1.2-0.2,2.7-0.2,2.7C504.9,2517.3,508.8,2515.6,512.8,2515.6z"/>
		<path d="M546.1,2503.4v13.1h7.5v8.3h-7.5v15.6c0,2.2,1.7,2.5,3.2,2.5c2.5,0,4.5-0.2,4.5-0.2v8.4c0,0-4.7,0.5-7.6,0.5
			c-4.9,0-9.9-0.8-9.9-7.8v-18.9h-5.4v-8.3h5.4v-13.1h9.8V2503.4z"/>
		<path d="M565,2562.5h-8.8v-1.1c6.6-7.8,11.5-20.2,11.5-31.6s-4.8-22.4-11.5-30.3v-1.2h8.8c7.6,9.4,12.8,19.5,12.8,31.5
			S572.6,2553.3,565,2562.5z"/>
		<path d="M88.7,2625.9v20.9H78.3v-52.7h38.2v9H88.7v13.7H109v9H88.7V2625.9z"/>
		<path d="M131.1,2646.8h-9.7v-52.7h9.7V2646.8z"/>
		<path d="M151.4,2646.8h-9.8v-26.2h-4.8v-8.3h14.6V2646.8z M146.1,2594.1c3.5,0,6.3,2.9,6.3,6.3c0,3.5-2.8,6.3-6.3,6.3
			s-6.3-2.7-6.3-6.3C139.8,2596.9,142.6,2594.1,146.1,2594.1z"/>
		<path d="M169.6,2660h-9.8v-47.7h9.8v1.7c0,1.7-0.2,2.4-0.2,2.8c1.7-2.9,5.7-5.3,10.9-5.3c9.5,0,16.7,7.6,16.7,18.2
			s-7.3,18.2-16.8,18.2c-4.9,0-9-2.3-10.7-5.3v17.4H169.6z M169.4,2629.5c0,5.3,3.6,9.5,8.8,9.5s8.8-4.2,8.8-9.5s-3.6-9.4-8.8-9.4
			S169.4,2624.2,169.4,2629.5z"/>
		<path d="M214.6,2594.1h8.8v1.2c-6.6,7.8-11.5,18.8-11.5,30.3s4.8,23.8,11.5,31.6v1.1h-8.8c-7.6-9.3-12.8-20.8-12.8-32.8
			S207,2603.5,214.6,2594.1z"/>
		<path d="M234.8,2658.3H226v-1.1c6.6-7.8,11.5-20.2,11.5-31.6s-4.8-22.4-11.5-30.3v-1.2h8.8c7.6,9.4,12.8,19.5,12.8,31.5
			S242.4,2649.1,234.8,2658.3z"/>
		<path d="M105.4,2703.9c-3.2-3.2-7.5-5.4-11.1-5.4c-3.5,0-6.6,1.8-6.6,5c0,2.4,1.5,4.3,5.7,6.3l4.4,2c8.4,3.9,13.4,8.3,13.4,16.2
			s-6.7,15.6-18.3,15.6c-8,0-13.9-3.1-18.9-7.9l5.8-7.8c3.9,4,8.9,6.3,12.9,6.3c4.5,0,7.3-2.5,7.3-5.7c0-3.6-3.2-5.7-8.3-8l-3.7-1.7
			c-7.1-3.3-11.5-8.1-11.5-14.8c0-9.3,8.3-14.8,17.6-14.8c6.1,0,12.4,3,17.4,7.4L105.4,2703.9z"/>
		<path d="M129.6,2695v13.1h7.5v8.3h-7.5v15.6c0,2.2,1.7,2.5,3.2,2.5c2.5,0,4.5-0.2,4.5-0.2v8.4c0,0-4.7,0.5-7.6,0.5
			c-4.9,0-9.9-0.8-9.9-7.8v-18.9h-5.4v-8.3h5.4v-13.1h9.8V2695z"/>
		<path d="M165,2717.7h-4.1c-5,0-7.2,2.3-7.2,8.4v16.5h-9.8v-34.5h9.5v5.5c1.4-3.7,4.7-6,9-6c0.9,0,1.8,0.1,2.7,0.3L165,2717.7
			L165,2717.7z"/>
		<path d="M182.4,2742.6h-9.8v-26.2h-4.8v-8.3h14.6V2742.6z M177,2689.9c3.5,0,6.3,2.9,6.3,6.3c0,3.5-2.8,6.3-6.3,6.3
			s-6.3-2.7-6.3-6.3C170.8,2692.7,173.6,2689.9,177,2689.9z"/>
		<path d="M210.8,2707.2c7.5,0,12.8,4.7,12.8,12.8v22.6h-9.8v-20.1c0-4.4-2.8-6.2-5.9-6.2c-2.9,0-5.4,1.6-7.3,3.9v22.4h-9.8v-34.5
			h9.6v1.4c0,1.2-0.2,2.7-0.2,2.7C202.9,2708.9,206.8,2707.2,210.8,2707.2z"/>
		<path d="M266.6,2708.1v37.1c0,5.4-2.7,10.6-11.1,10.6h-15v-8.3h12.6c1.7,0,3.7-0.5,3.7-3.1v-6.6c-1.7,2.8-5.8,5.2-10.7,5.2
			c-9.3,0-16.6-7.1-16.6-17.9c0-10.8,7.2-17.9,16.5-17.9c5.2,0,9.2,2.4,10.9,5.3c0-0.4-0.2-1.1-0.2-2.9v-1.6L266.6,2708.1
			L266.6,2708.1z M248.3,2734.5c5.2,0,8.7-3.8,8.7-9.4c0-5.7-3.5-9.5-8.7-9.5c-5.1,0-8.7,3.8-8.7,9.5
			C239.6,2730.7,243.2,2734.5,248.3,2734.5z"/>
		<path d="M286.8,2742.6H277v-26.2h-4.8v-8.3h14.6L286.8,2742.6L286.8,2742.6z M281.5,2689.9c3.5,0,6.3,2.9,6.3,6.3
			c0,3.5-2.8,6.3-6.3,6.3s-6.3-2.7-6.3-6.3C275.2,2692.7,278,2689.9,281.5,2689.9z"/>
		<path d="M297.6,2698.3c0-6.8,4.5-9.1,9.8-9.1c2.6,0,7.2,0.5,7.2,0.5v9c0,0-3-0.4-4.1-0.4c-1.9,0-3.1,0.5-3.1,2.9v7h6.6v8.3h-6.6
			v26.2h-9.8v-26.2h-5.4v-8.3h5.4V2698.3z"/>
		<path d="M330.5,2742.6H328l-11.8-34.5h10.9l7.3,24.6l7.4-24.6h10.6l-13.8,39.9c-1.7,5-4.4,7.8-10.8,7.8H321v-8.2h4.8
			c2,0,3.2-0.8,3.8-2.7L330.5,2742.6z"/>
		<path d="M368.5,2689.9h8.8v1.2c-6.6,7.8-11.5,18.8-11.5,30.3s4.8,23.8,11.5,31.6v1.1h-8.8c-7.6-9.3-12.8-20.8-12.8-32.8
			C355.7,2709.4,360.9,2699.3,368.5,2689.9z"/>
		<path d="M388.7,2754.1h-8.8v-1.1c6.6-7.8,11.5-20.2,11.5-31.6c0-11.4-4.8-22.4-11.5-30.3v-1.2h8.8c7.6,9.4,12.8,19.5,12.8,31.5
			C401.5,2733.3,396.3,2744.9,388.7,2754.1z"/>
		<path d="M96.3,2838.4h-18v-52.7h18.1c17.3,0,27.3,10.7,27.3,26.4C123.7,2827.7,113.6,2838.4,96.3,2838.4z M96,2794.6h-7.2v34.9H96
			c9.6,0,17-5.6,17-17.5C113,2800.4,105.6,2794.6,96,2794.6z"/>
		<path d="M163.8,2824h-25.7c0.5,3.8,3.5,6.9,7.9,6.9c2.9,0,5.6-1.2,6.9-3.5l10.2,1.1c-3.1,7.4-9.6,10.8-17.3,10.8
			c-10.3,0-18.1-7.6-18.1-18.2s7.6-18.2,17.9-18.2c9.5,0,18.1,6.2,18.1,20.6v0.5H163.8z M137.8,2817.5h15.4
			c-0.5-3.5-3.5-6.3-7.6-6.3C141.5,2811.1,138.6,2813.8,137.8,2817.5z"/>
		<path d="M203.8,2838.4H194v-26.2h-12.3v26.2h-9.8v-26.2h-5.4v-8.3h5.4v-9.8c0-6.8,4.5-9.1,9.8-9.1c2.6,0,7.2,0.5,7.2,0.5v9
			c0,0-3-0.4-4.1-0.4c-1.9,0-3.1,0.5-3.1,2.9v7h22.1L203.8,2838.4L203.8,2838.4z M198.4,2785.7c3.5,0,6.3,2.9,6.3,6.3
			c0,3.5-2.8,6.3-6.3,6.3s-6.3-2.7-6.3-6.3C192.2,2788.5,194.9,2785.7,198.4,2785.7z"/>
		<path d="M232,2803c7.5,0,12.8,4.7,12.8,12.8v22.6H235v-20.1c0-4.4-2.8-6.2-5.9-6.2c-2.9,0-5.4,1.6-7.3,3.9v22.4H212v-34.5h9.6v1.4
			c0,1.2-0.2,2.7-0.2,2.7C224.1,2804.7,228,2803,232,2803z"/>
		<path d="M286.7,2824H261c0.5,3.8,3.5,6.9,7.9,6.9c2.9,0,5.6-1.2,6.9-3.5l10.2,1.1c-3.1,7.4-9.6,10.8-17.3,10.8
			c-10.3,0-18.1-7.6-18.1-18.2s7.6-18.2,17.9-18.2c9.5,0,18.1,6.2,18.1,20.6v0.5H286.7z M260.8,2817.5h15.4
			c-0.5-3.5-3.5-6.3-7.6-6.3C264.5,2811.1,261.5,2813.8,260.8,2817.5z"/>
		<path d="M303.6,2785.7h8.8v1.2c-6.6,7.8-11.5,18.8-11.5,30.3s4.8,23.8,11.5,31.6v1.1h-8.8c-7.6-9.3-12.8-20.8-12.8-32.8
			S296,2795.1,303.6,2785.7z"/>
		<path d="M323.8,2849.9H315v-1.1c6.6-7.8,11.5-20.2,11.5-31.6s-4.8-22.4-11.5-30.3v-1.2h8.8c7.6,9.4,12.8,19.5,12.8,31.5
			S331.4,2840.7,323.8,2849.9z"/>
	</g>
	<g>
		<path d="M96.3,2125.7h-18V2073h18.1c17.3,0,27.3,10.7,27.3,26.4C123.7,2115,113.6,2125.7,96.3,2125.7z M96,2081.9h-7.2v34.9H96
			c9.6,0,17-5.7,17-17.5C113,2087.6,105.6,2081.9,96,2081.9z"/>
		<path d="M142.3,2125.7h-9.8v-26.2h-4.8v-8.3h14.6V2125.7z M136.9,2073c3.5,0,6.3,2.9,6.3,6.3c0,3.5-2.8,6.3-6.3,6.3
			s-6.3-2.7-6.3-6.3C130.7,2075.8,133.5,2073,136.9,2073z"/>
		<path d="M171.1,2101.7c-2.8-2.7-6.3-3.5-8.5-3.5c-2.6,0-3.5,1.3-3.5,2.3c0,1.2,0.8,2,2.6,2.6l5.7,1.8c7.1,2.3,9.5,6.2,9.5,10.7
			c0,5-4.3,10.9-13.7,10.9c-7.6,0-12.4-2.9-15.2-5.4l5.2-6.8c2.5,2.3,6.9,4.3,10.2,4.3c2.3,0,3.8-1.2,3.8-2.6c0-1.7-1.1-2.5-3.9-3.3
			l-5.9-1.7c-5.6-1.8-8-5.6-8-10.1c0-5.7,5.1-10.7,13.4-10.7c4.5,0,9.9,1.4,13.9,5.1L171.1,2101.7z"/>
		<path d="M203.5,2101.7c-2.8-2.7-6.3-3.5-8.5-3.5c-2.6,0-3.5,1.3-3.5,2.3c0,1.2,0.8,2,2.6,2.6l5.7,1.8c7.1,2.3,9.5,6.2,9.5,10.7
			c0,5-4.3,10.9-13.7,10.9c-7.6,0-12.4-2.9-15.2-5.4l5.2-6.8c2.5,2.3,6.9,4.3,10.2,4.3c2.3,0,3.8-1.2,3.8-2.6c0-1.7-1.1-2.5-3.9-3.3
			l-5.9-1.7c-5.6-1.8-8-5.6-8-10.1c0-5.7,5.1-10.7,13.4-10.7c4.5,0,9.9,1.4,13.9,5.1L203.5,2101.7z"/>
		<path d="M249.3,2111.3h-25.7c0.5,3.8,3.5,6.9,7.9,6.9c2.9,0,5.6-1.2,6.9-3.5l10.2,1.1c-3.1,7.4-9.6,10.8-17.3,10.8
			c-10.3,0-18.1-7.6-18.1-18.2c0-10.5,7.6-18.2,17.9-18.2c9.5,0,18.1,6.2,18.1,20.6v0.5H249.3z M223.4,2104.7h15.4
			c-0.5-3.5-3.5-6.3-7.6-6.3C227.1,2098.4,224.2,2101.1,223.4,2104.7z"/>
		<path d="M276.3,2100.8h-4.1c-5,0-7.2,2.3-7.2,8.4v16.5h-9.8v-34.5h9.5v5.5c1.4-3.7,4.7-6,9-6c0.9,0,1.8,0.1,2.7,0.3L276.3,2100.8
			L276.3,2100.8z"/>
		<path d="M294.2,2078.1v13.1h7.5v8.3h-7.5v15.6c0,2.2,1.7,2.5,3.2,2.5c2.5,0,4.5-0.2,4.5-0.2v8.4c0,0-4.7,0.5-7.6,0.5
			c-4.9,0-9.9-0.8-9.9-7.8v-18.9H279v-8.3h5.4v-13.1h9.8V2078.1z"/>
		<path d="M327.5,2102.7c0-2.5-2-4.1-5.7-4.1c-3.5,0-7.8,1.7-10.4,3.2l-3.8-7.4c0,0,6.4-4.2,14.8-4.2c7.8,0,15,3.6,15,12.7v22.7
			h-9.8v-3.2c-1.8,2.7-5.7,4.1-9.6,4.1c-7.3,0-12.1-5.2-12.1-10.8c0-6.6,4.8-10.6,12.5-10.6h6.8c1.7,0,2.4-0.8,2.4-2L327.5,2102.7
			L327.5,2102.7z M327.5,2113.3v-2.5c-0.6,0.6-1.7,0.8-3,0.8h-3.7c-3.1,0-4.9,1.4-4.9,3.8c0,2.3,1.9,4.1,4.9,4.1
			C324.4,2119.4,327.5,2117.6,327.5,2113.3z"/>
		<path d="M357.7,2078.1v13.1h7.5v8.3h-7.5v15.6c0,2.2,1.7,2.5,3.2,2.5c2.5,0,4.5-0.2,4.5-0.2v8.4c0,0-4.7,0.5-7.6,0.5
			c-4.9,0-9.9-0.8-9.9-7.8v-18.9h-5.4v-8.3h5.4v-13.1h9.8V2078.1z"/>
		<path d="M383.8,2125.7H374v-26.2h-4.8v-8.3h14.6L383.8,2125.7L383.8,2125.7z M378.5,2073c3.5,0,6.3,2.9,6.3,6.3
			c0,3.5-2.8,6.3-6.3,6.3s-6.3-2.7-6.3-6.3C372.2,2075.8,375,2073,378.5,2073z"/>
		<path d="M390.1,2108.4c0-10.5,8.2-18.2,18.5-18.2s18.5,7.6,18.5,18.2c0,10.5-8.2,18.2-18.5,18.2S390.1,2119,390.1,2108.4z
			 M399.8,2108.4c0,5.3,3.5,9.4,8.7,9.4c5,0,8.6-4.1,8.6-9.4c0-5.4-3.5-9.4-8.6-9.4C403.4,2099,399.8,2103,399.8,2108.4z"/>
		<path d="M453.2,2090.3c7.5,0,12.8,4.7,12.8,12.8v22.6h-9.8v-20.1c0-4.4-2.8-6.2-5.9-6.2c-2.9,0-5.4,1.6-7.3,3.9v22.4h-9.8v-34.5
			h9.6v1.4c0,1.2-0.2,2.7-0.2,2.7C445.3,2092,449.2,2090.3,453.2,2090.3z"/>
		<path d="M495.8,2091.2c3.7,0,6.6,2.9,6.6,6.6c0,3.6-2.9,6.6-6.6,6.6c-3.6,0-6.6-2.9-6.6-6.6
			C489.3,2094.1,492.2,2091.2,495.8,2091.2z M495.8,2113.5c3.7,0,6.6,2.9,6.6,6.6c0,3.7-2.9,6.6-6.6,6.6c-3.6,0-6.6-2.9-6.6-6.6
			C489.3,2116.4,492.2,2113.5,495.8,2113.5z"/>
		<path d="M553.7,2097.4v0.2c6.1,2.5,9.8,6.9,9.8,13c0,8.4-6.3,15.1-17.4,15.1h-18.8V2073h17c10.8,0,16.3,6.7,16.3,13.5
			C560.7,2091,558.4,2095.2,553.7,2097.4z M537.9,2081.8v11.8h5.3c3.8,0,6.9-1.9,6.9-6s-3.2-5.8-6.9-5.8H537.9z M537.9,2116.9h5.4
			c6.3,0,9.3-2.9,9.3-7.2c0-4.4-3.7-6.7-8.8-6.7h-6L537.9,2116.9L537.9,2116.9z"/>
		<path d="M567.8,2108.4c0-10.5,8.2-18.2,18.5-18.2s18.5,7.6,18.5,18.2c0,10.5-8.2,18.2-18.5,18.2S567.8,2119,567.8,2108.4z
			 M577.6,2108.4c0,5.3,3.5,9.4,8.7,9.4c5,0,8.6-4.1,8.6-9.4c0-5.4-3.5-9.4-8.6-9.4C581.2,2099,577.6,2103,577.6,2108.4z"/>
		<path d="M608.8,2108.4c0-10.5,8.2-18.2,18.5-18.2s18.5,7.6,18.5,18.2c0,10.5-8.2,18.2-18.5,18.2S608.8,2119,608.8,2108.4z
			 M618.6,2108.4c0,5.3,3.5,9.4,8.7,9.4c5,0,8.6-4.1,8.6-9.4c0-5.4-3.5-9.4-8.6-9.4C622.1,2099,618.6,2103,618.6,2108.4z"/>
		<path d="M661.7,2103.2h2.3l9.5-12h11.8L672,2107l13.7,18.7H674l-9.9-14.2h-2.3v14.2H652V2073h9.7V2103.2z"/>
		<path d="M696.1,2113.6c3.8,0,6.8,2.9,6.8,6.6c0,1.1-0.5,2.8-1,3.8l-6,11.1H688l4.3-9.5c-1.7-1.1-2.8-3.1-2.8-5.3
			C689.6,2116.4,692.4,2113.6,696.1,2113.6z"/>
		<path d="M727.1,2073h10.5v52.7h-10.5V2073z"/>
		<path d="M759,2104.7v20.9h-10.5v-52.7h38.2v9H759v13.7h20.3v9H759V2104.7z"/>
		<path d="M801.4,2125.7h-9.7V2073h9.7V2125.7z"/>
		<path d="M821.7,2125.7h-9.8v-26.2h-4.8v-8.3h14.6V2125.7z M816.3,2073c3.5,0,6.3,2.9,6.3,6.3c0,3.5-2.8,6.3-6.3,6.3
			s-6.3-2.7-6.3-6.3C810.1,2075.8,812.9,2073,816.3,2073z"/>
		<path d="M839.9,2138.9h-9.8v-47.7h9.8v1.7c0,1.7-0.2,2.4-0.2,2.8c1.7-2.9,5.7-5.3,10.9-5.3c9.5,0,16.7,7.6,16.7,18.2
			c0,10.5-7.3,18.2-16.8,18.2c-4.9,0-9-2.3-10.7-5.3L839.9,2138.9L839.9,2138.9z M839.7,2108.4c0,5.3,3.6,9.5,8.8,9.5
			s8.8-4.2,8.8-9.5s-3.6-9.4-8.8-9.4S839.7,2103.1,839.7,2108.4z"/>
		<path d="M883.5,2138.9h-9.8v-47.7h9.8v1.7c0,1.7-0.2,2.4-0.2,2.8c1.7-2.9,5.7-5.3,10.9-5.3c9.5,0,16.7,7.6,16.7,18.2
			c0,10.5-7.3,18.2-16.8,18.2c-4.9,0-9-2.3-10.7-5.3L883.5,2138.9L883.5,2138.9z M883.3,2108.4c0,5.3,3.6,9.5,8.8,9.5
			s8.8-4.2,8.8-9.5s-3.6-9.4-8.8-9.4S883.3,2103.1,883.3,2108.4z"/>
		<path d="M936.5,2102.7c0-2.5-2-4.1-5.7-4.1c-3.5,0-7.8,1.7-10.4,3.2l-3.8-7.4c0,0,6.4-4.2,14.8-4.2c7.8,0,15,3.6,15,12.7v22.7
			h-9.8v-3.2c-1.8,2.7-5.7,4.1-9.6,4.1c-7.3,0-12.1-5.2-12.1-10.8c0-6.6,4.8-10.6,12.5-10.6h6.8c1.7,0,2.4-0.8,2.4-2v-0.4H936.5z
			 M936.5,2113.3v-2.5c-0.6,0.6-1.7,0.8-3,0.8h-3.7c-3.1,0-4.9,1.4-4.9,3.8c0,2.3,1.9,4.1,4.9,4.1
			C933.3,2119.4,936.5,2117.6,936.5,2113.3z"/>
		<path d="M964.1,2125.7h-9.8V2073h9.8v17c0,2.3-0.2,4.7-0.2,5.7c1.7-2.9,5.7-5.3,10.9-5.3c9.5,0,16.7,7.6,16.7,18.2
			c0,10.5-7.3,18.2-16.8,18.2c-4.9,0-9-2.3-10.7-5.3L964.1,2125.7L964.1,2125.7z M963.9,2108.4c0,5.3,3.6,9.5,8.8,9.5
			s8.8-4.2,8.8-9.5s-3.6-9.4-8.8-9.4S963.9,2103.1,963.9,2108.4z"/>
		<path d="M1007.7,2125.7H998V2073h9.7V2125.7z"/>
		<path d="M1049.9,2111.3h-25.7c0.5,3.8,3.5,6.9,7.9,6.9c2.9,0,5.6-1.2,6.9-3.5l10.2,1.1c-3.1,7.4-9.6,10.8-17.3,10.8
			c-10.3,0-18.1-7.6-18.1-18.2c0-10.5,7.6-18.2,17.9-18.2c9.5,0,18.1,6.2,18.1,20.6L1049.9,2111.3L1049.9,2111.3z M1024,2104.7h15.4
			c-0.5-3.5-3.5-6.3-7.6-6.3C1027.7,2098.4,1024.8,2101.1,1024,2104.7z"/>
	</g>
</g>
<g>
	<polyline class="st7" points="839.4,1816.8 839.4,1915.1 937.6,1915.1 	"/>
	<line class="st7" x1="998.6" y1="1755.4" x2="842.1" y2="1911.9"/>
</g>
<g>
	<polyline class="st7" points="1669.5,1816.8 1669.5,1915.1 1571.2,1915.1 	"/>
	<line class="st7" x1="1510.3" y1="1755.4" x2="1666.8" y2="1911.9"/>
</g>
</svg>
