<svg enable-background="new 0 0 2512.1 2023.9" viewBox="0 0 2512.1 2023.9" xmlns="http://www.w3.org/2000/svg"><path d="m62.6 553.5h633.9v838.3h-633.9z" fill="#fff" stroke="#000" stroke-miterlimit="10" stroke-width="8"/><path d="m62.6 542.8h633.9v119.6h-633.9z" fill="#fec64e" stroke="#000" stroke-miterlimit="10" stroke-width="8"/><path d="m154.2 710 10.1 37.7h.1l8.4-37.7h10.7l-12.9 52.7h-12.1l-9.9-37.9-9.7 37.9h-12.1l-13-52.7h11.2l8.1 37.7h.1l10.1-37.7z"/><path d="m209.1 727.4c7.5 0 12.8 4.7 12.8 12.8v22.6h-9.8v-20.1c0-4.4-2.8-6.2-5.9-6.2-2.9 0-5.4 1.6-7.3 3.9v22.4h-9.8v-52.8h9.6v19.6c0 1.2-.2 2.7-.2 2.7 2.8-3.2 6.7-4.9 10.6-4.9z"/><path d="m263.8 748.4h-25.7c.5 3.8 3.5 6.9 7.9 6.9 2.9 0 5.6-1.2 6.9-3.5l10.2 1.1c-3.1 7.4-9.6 10.8-17.3 10.8-10.3 0-18.1-7.6-18.1-18.2 0-10.5 7.6-18.2 17.9-18.2 9.5 0 18.1 6.2 18.1 20.6v.5zm-25.9-6.6h15.4c-.5-3.5-3.5-6.3-7.6-6.3s-7 2.6-7.8 6.3z"/><path d="m303.5 748.4h-25.7c.5 3.8 3.5 6.9 7.9 6.9 2.9 0 5.6-1.2 6.9-3.5l10.2 1.1c-3.1 7.4-9.6 10.8-17.3 10.8-10.3 0-18.1-7.6-18.1-18.2 0-10.5 7.6-18.2 17.9-18.2 9.5 0 18.1 6.2 18.1 20.6v.5zm-26-6.6h15.5c-.5-3.5-3.5-6.3-7.6-6.3-4.2 0-7.1 2.6-7.9 6.3z"/><path d="m319 762.8h-9.7v-52.8h9.7z"/><path d="m347.7 738.8c-2.8-2.7-6.3-3.5-8.5-3.5-2.6 0-3.5 1.3-3.5 2.3 0 1.2.8 2 2.6 2.6l5.7 1.8c7.1 2.3 9.5 6.2 9.5 10.7 0 5-4.3 10.9-13.7 10.9-7.6 0-12.4-2.9-15.2-5.4l5.2-6.8c2.5 2.3 6.9 4.3 10.2 4.3 2.3 0 3.8-1.2 3.8-2.6 0-1.7-1.1-2.5-3.9-3.3l-5.9-1.7c-5.6-1.8-8-5.6-8-10.1 0-5.7 5.1-10.7 13.4-10.7 4.5 0 9.9 1.4 13.9 5.1z"/><path d="m117.8 858.6v-52.7h10.5v43.8h22.4v9h-32.9z"/><path d="m166.9 858.6h-9.8v-26.2h-4.8v-8.3h14.6zm-5.4-52.8c3.5 0 6.3 2.9 6.3 6.3 0 3.5-2.8 6.3-6.3 6.3s-6.3-2.7-6.3-6.3c.1-3.4 2.9-6.3 6.3-6.3z"/><path d="m182.9 841.3c0 5.4 3.5 9.4 8.7 9.4 3.6 0 6.3-2 7.6-5.3l9.2 2.9c-2.3 6.9-9 11.1-16.9 11.1-10.2 0-18.4-7.6-18.4-18.2 0-10.5 8.1-18.2 18.4-18.2 7.8 0 14.6 4.4 16.9 11.2l-9.2 2.8c-1.3-3.2-4-5.3-7.6-5.3-5.1.2-8.7 4.2-8.7 9.6z"/><path d="m248 844.2h-25.7c.5 3.8 3.5 6.9 7.9 6.9 2.9 0 5.6-1.2 6.9-3.5l10.2 1.1c-3.1 7.4-9.6 10.8-17.3 10.8-10.3 0-18.1-7.6-18.1-18.2 0-10.5 7.6-18.2 17.9-18.2 9.5 0 18.1 6.2 18.1 20.6v.5zm-25.9-6.6h15.4c-.5-3.5-3.5-6.3-7.6-6.3s-7 2.6-7.8 6.3z"/><path d="m273.8 823.2c7.5 0 12.8 4.7 12.8 12.8v22.6h-9.8v-20.1c0-4.4-2.8-6.2-5.9-6.2-2.9 0-5.4 1.6-7.3 3.9v22.4h-9.8v-34.5h9.6v1.4c0 1.2-.2 2.7-.2 2.7 2.7-3.3 6.6-5 10.6-5z"/><path d="m315 834.6c-2.8-2.7-6.3-3.5-8.5-3.5-2.6 0-3.5 1.3-3.5 2.3 0 1.2.8 2 2.6 2.6l5.7 1.8c7.1 2.3 9.5 6.2 9.5 10.7 0 5-4.3 10.9-13.7 10.9-7.6 0-12.4-2.9-15.2-5.4l5.2-6.8c2.5 2.3 6.9 4.3 10.2 4.3 2.3 0 3.8-1.2 3.8-2.6 0-1.7-1.1-2.5-3.9-3.3l-5.9-1.7c-5.6-1.8-8-5.6-8-10.1 0-5.7 5.1-10.7 13.4-10.7 4.5 0 9.9 1.4 13.9 5.1z"/><path d="m360.9 844.2h-25.7c.5 3.8 3.5 6.9 7.9 6.9 2.9 0 5.6-1.2 6.9-3.5l10.2 1.1c-3.1 7.4-9.6 10.8-17.3 10.8-10.3 0-18.1-7.6-18.1-18.2 0-10.5 7.6-18.2 17.9-18.2 9.5 0 18.1 6.2 18.1 20.6v.5zm-26-6.6h15.4c-.5-3.5-3.5-6.3-7.6-6.3s-7 2.6-7.8 6.3z"/><path d="m377.6 858.6h-10.4v-52.7h17.8c12.4 0 19 7.8 19 17.3s-6.6 17.6-19 17.6h-7.5v17.8zm0-43.7v16.9h5.9c5.7 0 9.9-2.7 9.9-8.6s-4.1-8.3-9.9-8.3z"/><path d="m419.5 858.6h-9.7v-52.7h9.7z"/><path d="m447 835.6c0-2.5-2-4.1-5.7-4.1-3.5 0-7.8 1.7-10.4 3.2l-3.8-7.4s6.4-4.2 14.8-4.2c7.8 0 15 3.6 15 12.7v22.7h-9.9v-3.2c-1.8 2.7-5.7 4.1-9.6 4.1-7.3 0-12.1-5.2-12.1-10.8 0-6.6 4.8-10.6 12.5-10.6h6.8c1.7 0 2.4-.8 2.4-2zm0 10.6v-2.5c-.6.6-1.7.8-3 .8h-3.7c-3.1 0-4.9 1.4-4.9 3.8 0 2.3 1.9 4.1 4.9 4.1 3.6-.1 6.7-1.9 6.7-6.2z"/><path d="m477.2 811v13.1h7.5v8.3h-7.5v15.6c0 2.2 1.7 2.5 3.2 2.5 2.5 0 4.5-.2 4.5-.2v8.4s-4.7.5-7.6.5c-4.9 0-9.9-.8-9.9-7.8v-18.9h-5.4v-8.3h5.4v-13.2z"/><path d="m525.3 844.2h-25.7c.5 3.8 3.5 6.9 7.9 6.9 2.9 0 5.6-1.2 6.9-3.5l10.2 1.1c-3.1 7.4-9.6 10.8-17.3 10.8-10.3 0-18.1-7.6-18.1-18.2 0-10.5 7.6-18.2 17.9-18.2 9.5 0 18.1 6.2 18.1 20.6v.5zm-25.9-6.6h15.4c-.5-3.5-3.5-6.3-7.6-6.3s-7.1 2.6-7.8 6.3z"/><path d="m145 915.6c-3.2-3.2-7.5-5.4-11.1-5.4-3.5 0-6.6 1.8-6.6 5 0 2.4 1.5 4.3 5.7 6.3l4.4 2c8.4 3.9 13.4 8.3 13.4 16.2s-6.7 15.6-18.3 15.6c-8 0-13.9-3.1-18.9-7.9l5.8-7.8c3.9 4 8.9 6.3 12.9 6.3 4.5 0 7.3-2.5 7.3-5.7 0-3.6-3.2-5.6-8.3-8l-3.7-1.7c-7.1-3.3-11.5-8.1-11.5-14.8 0-9.3 8.3-14.8 17.6-14.8 6.1 0 12.4 3 17.4 7.4z"/><path d="m166.6 967.6h-9.8v-47.7h9.8v1.7c0 1.7-.2 2.4-.2 2.8 1.7-2.9 5.7-5.3 10.9-5.3 9.5 0 16.7 7.6 16.7 18.2 0 10.5-7.3 18.2-16.8 18.2-4.9 0-9-2.3-10.7-5.3v17.4zm-.2-30.5c0 5.3 3.6 9.5 8.8 9.5s8.8-4.2 8.8-9.5-3.6-9.4-8.8-9.4-8.8 4.1-8.8 9.4z"/><path d="m234.2 940h-25.7c.5 3.8 3.5 6.9 7.9 6.9 2.9 0 5.6-1.2 6.9-3.5l10.2 1.1c-3.1 7.4-9.6 10.8-17.3 10.8-10.3 0-18.1-7.6-18.1-18.2 0-10.5 7.6-18.2 17.9-18.2 9.5 0 18.1 6.2 18.1 20.6v.5zm-25.9-6.6h15.4c-.5-3.5-3.5-6.3-7.6-6.3s-7 2.6-7.8 6.3z"/><path d="m273.9 940h-25.7c.5 3.8 3.5 6.9 7.9 6.9 2.9 0 5.6-1.2 6.9-3.5l10.2 1.1c-3.1 7.4-9.6 10.8-17.3 10.8-10.3 0-18.1-7.6-18.1-18.2 0-10.5 7.6-18.2 17.9-18.2 9.5 0 18.1 6.2 18.1 20.6v.5zm-26-6.6h15.4c-.5-3.5-3.5-6.3-7.6-6.3s-7 2.6-7.8 6.3z"/><path d="m305 950c-1.7 2.9-5.8 5.3-10.8 5.3-9.5 0-16.7-7.6-16.7-18.2 0-10.5 7.2-18.2 16.6-18.2 5.3 0 9.3 2.4 11 5.3 0-1.1-.2-4-.2-6.6v-16.1h9.8v52.7h-9.7zm-17.4-12.9c0 5.3 3.6 9.5 8.8 9.5s8.8-4.2 8.8-9.5-3.6-9.4-8.8-9.4c-5.1 0-8.8 4.1-8.8 9.4z"/><path d="m112.8 997.4h11.6l12 39.1h.1l12.6-39.1h10.9l-17.9 52.7h-11.4z"/><path d="m193.9 1035.8h-25.7c.5 3.8 3.5 6.9 7.9 6.9 2.9 0 5.6-1.2 6.9-3.5l10.2 1.1c-3.1 7.4-9.6 10.8-17.3 10.8-10.3 0-18.1-7.6-18.1-18.2 0-10.5 7.6-18.2 17.9-18.2 9.5 0 18.1 6.2 18.1 20.6v.5zm-25.9-6.6h15.4c-.5-3.5-3.5-6.3-7.6-6.3s-7 2.6-7.8 6.3z"/><path d="m219.7 1014.8c7.5 0 12.8 4.7 12.8 12.8v22.6h-9.8v-20.1c0-4.4-2.8-6.2-5.9-6.2-2.9 0-5.4 1.6-7.3 3.9v22.4h-9.8v-52.7h9.6v19.6c0 1.2-.2 2.7-.2 2.7 2.8-3.3 6.7-5 10.6-5z"/><path d="m252.4 1050.2h-9.8v-26.2h-4.8v-8.3h14.6zm-5.4-52.8c3.5 0 6.3 2.9 6.3 6.3 0 3.5-2.8 6.3-6.3 6.3s-6.3-2.7-6.3-6.3c.1-3.4 2.9-6.3 6.3-6.3z"/><path d="m268.4 1032.9c0 5.4 3.5 9.4 8.7 9.4 3.6 0 6.3-2 7.6-5.3l9.2 2.9c-2.3 6.9-9 11.1-16.9 11.1-10.2 0-18.4-7.6-18.4-18.2 0-10.5 8.1-18.2 18.4-18.2 7.8 0 14.6 4.4 16.9 11.2l-9.2 2.8c-1.3-3.2-4-5.3-7.6-5.3-5.1.2-8.7 4.2-8.7 9.6z"/><path d="m309.4 1050.2h-9.7v-52.7h9.7z"/><path d="m351.7 1035.8h-25.7c.5 3.8 3.5 6.9 7.9 6.9 2.9 0 5.6-1.2 6.9-3.5l10.2 1.1c-3.1 7.4-9.6 10.8-17.3 10.8-10.3 0-18.1-7.6-18.1-18.2 0-10.5 7.6-18.2 17.9-18.2 9.5 0 18.1 6.2 18.1 20.6v.5zm-25.9-6.6h15.4c-.5-3.5-3.5-6.3-7.6-6.3-4.2 0-7.1 2.6-7.8 6.3z"/><path d="m368.6 997.4h8.8v1.2c-6.6 7.8-11.5 18.8-11.5 30.3s4.8 23.8 11.5 31.6v1.1h-8.8c-7.6-9.3-12.8-20.8-12.8-32.8 0-11.9 5.2-21.9 12.8-31.4z"/><path d="m388.8 1061.7h-8.8v-1.1c6.6-7.8 11.5-20.2 11.5-31.6 0-11.5-4.8-22.4-11.5-30.3v-1.2h8.8c7.6 9.4 12.8 19.5 12.8 31.5 0 11.9-5.2 23.4-12.8 32.7z"/><path d="m149.3 1146v-22.4h-20.9v22.4h-10.5v-52.7h10.5v21.4h20.9v-21.4h10.5v52.7z"/><path d="m166.4 1128.7c0-10.5 8.2-18.2 18.5-18.2s18.5 7.6 18.5 18.2c0 10.5-8.2 18.2-18.5 18.2s-18.5-7.6-18.5-18.2zm9.7 0c0 5.3 3.5 9.4 8.7 9.4 5 0 8.6-4.1 8.6-9.4 0-5.4-3.5-9.4-8.6-9.4s-8.7 4-8.7 9.4z"/><path d="m229.5 1110.6c7.5 0 12.8 4.7 12.8 12.8v22.6h-9.8v-20.1c0-4.4-2.8-6.2-5.9-6.2-2.9 0-5.4 1.6-7.3 3.9v22.4h-9.8v-34.5h9.6v1.4c0 1.2-.2 2.7-.2 2.7 2.7-3.3 6.6-5 10.6-5z"/><path d="m260.1 1123.4h2.3l9.5-12h11.8l-13.3 15.8 13.7 18.7h-11.8l-9.9-14.2h-2.3v14.2h-9.7v-52.7h9.7z"/><path d="m299.7 1093.2h8.8v1.2c-6.6 7.8-11.5 18.8-11.5 30.3s4.8 23.8 11.5 31.6v1.1h-8.8c-7.6-9.3-12.8-20.8-12.8-32.8 0-11.8 5.2-21.9 12.8-31.4z"/><path d="m319.9 1157.5h-8.8v-1.1c6.6-7.8 11.5-20.2 11.5-31.6 0-11.5-4.8-22.4-11.5-30.3v-1.2h8.8c7.6 9.4 12.8 19.5 12.8 31.5 0 11.9-5.2 23.4-12.8 32.7z"/><path d="m145 1203.1c-3.2-3.2-7.5-5.4-11.1-5.4-3.5 0-6.6 1.8-6.6 5 0 2.4 1.5 4.3 5.7 6.3l4.4 2c8.4 3.9 13.4 8.3 13.4 16.2s-6.7 15.6-18.3 15.6c-8 0-13.9-3.1-18.9-7.9l5.8-7.8c3.9 4 8.9 6.3 12.9 6.3 4.5 0 7.3-2.5 7.3-5.7 0-3.6-3.2-5.6-8.3-8l-3.7-1.7c-7.1-3.3-11.5-8.1-11.5-14.8 0-9.3 8.3-14.8 17.6-14.8 6.1 0 12.4 3 17.4 7.4z"/><path d="m166.6 1255h-9.8v-47.7h9.8v1.7c0 1.7-.2 2.4-.2 2.8 1.7-2.9 5.7-5.3 10.9-5.3 9.5 0 16.7 7.6 16.7 18.2 0 10.5-7.3 18.2-16.8 18.2-4.9 0-9-2.3-10.7-5.3v17.4zm-.2-30.5c0 5.3 3.6 9.5 8.8 9.5s8.8-4.2 8.8-9.5-3.6-9.4-8.8-9.4-8.8 4.1-8.8 9.4z"/><path d="m234.2 1227.4h-25.7c.5 3.8 3.5 6.9 7.9 6.9 2.9 0 5.6-1.2 6.9-3.5l10.2 1.1c-3.1 7.4-9.6 10.8-17.3 10.8-10.3 0-18.1-7.6-18.1-18.2 0-10.5 7.6-18.2 17.9-18.2 9.5 0 18.1 6.2 18.1 20.6v.5zm-25.9-6.6h15.4c-.5-3.5-3.5-6.3-7.6-6.3s-7 2.6-7.8 6.3z"/><path d="m273.9 1227.4h-25.7c.5 3.8 3.5 6.9 7.9 6.9 2.9 0 5.6-1.2 6.9-3.5l10.2 1.1c-3.1 7.4-9.6 10.8-17.3 10.8-10.3 0-18.1-7.6-18.1-18.2 0-10.5 7.6-18.2 17.9-18.2 9.5 0 18.1 6.2 18.1 20.6v.5zm-26-6.6h15.4c-.5-3.5-3.5-6.3-7.6-6.3s-7 2.6-7.8 6.3z"/><path d="m305 1237.4c-1.7 2.9-5.8 5.3-10.8 5.3-9.5 0-16.7-7.6-16.7-18.2 0-10.5 7.2-18.2 16.6-18.2 5.3 0 9.3 2.4 11 5.3 0-1.1-.2-4-.2-6.6v-16h9.8v52.7h-9.7zm-17.4-12.9c0 5.3 3.6 9.5 8.8 9.5s8.8-4.2 8.8-9.5-3.6-9.4-8.8-9.4c-5.1 0-8.8 4.1-8.8 9.4z"/><path d="m352.9 1223.3v-34.3h10.2v35.3c0 10.2-6.7 18.4-19.7 18.4-13.1 0-19.7-8.1-19.7-18.4v-35.3h10.5v34.3c0 5.7 3.2 9.7 9.3 9.7 6.2 0 9.4-4 9.4-9.7z"/><path d="m381.6 1255h-9.8v-47.7h9.8v1.7c0 1.7-.2 2.4-.2 2.8 1.7-2.9 5.7-5.3 10.9-5.3 9.5 0 16.7 7.6 16.7 18.2 0 10.5-7.3 18.2-16.8 18.2-4.9 0-9-2.3-10.7-5.3v17.4zm-.2-30.5c0 5.3 3.6 9.5 8.8 9.5s8.8-4.2 8.8-9.5-3.6-9.4-8.8-9.4-8.8 4.1-8.8 9.4z"/><path d="m426.6 1189h8.8v1.2c-6.6 7.8-11.5 18.8-11.5 30.3s4.8 23.8 11.5 31.6v1.1h-8.8c-7.6-9.3-12.8-20.8-12.8-32.8 0-11.8 5.2-21.9 12.8-31.4z"/><path d="m446.8 1253.3h-8.8v-1.1c6.6-7.8 11.5-20.2 11.5-31.6 0-11.5-4.8-22.4-11.5-30.3v-1.2h8.8c7.6 9.4 12.8 19.5 12.8 31.5 0 11.9-5.2 23.4-12.8 32.7z"/><path d="m145 1298.9c-3.2-3.2-7.5-5.4-11.1-5.4-3.5 0-6.6 1.8-6.6 5 0 2.4 1.5 4.3 5.7 6.3l4.4 2c8.4 3.9 13.4 8.3 13.4 16.2s-6.7 15.6-18.3 15.6c-8 0-13.9-3.1-18.9-7.9l5.8-7.8c3.9 4 8.9 6.3 12.9 6.3 4.5 0 7.3-2.5 7.3-5.7 0-3.6-3.2-5.6-8.3-8l-3.7-1.7c-7.1-3.3-11.5-8.1-11.5-14.8 0-9.3 8.3-14.8 17.6-14.8 6.1 0 12.4 3 17.4 7.4z"/><path d="m166.9 1337.6h-9.7v-52.7h9.7z"/><path d="m173.1 1320.3c0-10.5 8.2-18.2 18.5-18.2s18.5 7.6 18.5 18.2c0 10.5-8.2 18.2-18.5 18.2s-18.5-7.6-18.5-18.2zm9.8 0c0 5.3 3.5 9.4 8.7 9.4 5 0 8.6-4.1 8.6-9.4 0-5.4-3.5-9.4-8.6-9.4s-8.7 4-8.7 9.4z"/><path d="m250.3 1325.5 5.3-22.4h10.1l-9 34.5h-11.6l-6-21.5-6.2 21.5h-11.5l-8.4-34.5h10.5l4.6 22.1 6.4-22.1h9.6z"/><path d="m290.6 1337.6h-18.1v-52.7h18.1c17.3 0 27.3 10.7 27.3 26.4s-10.1 26.3-27.3 26.3zm-.4-43.8h-7.2v34.9h7.2c9.6 0 17-5.6 17-17.5 0-11.7-7.4-17.4-17-17.4z"/><path d="m322 1320.3c0-10.5 8.2-18.2 18.5-18.2s18.5 7.6 18.5 18.2c0 10.5-8.2 18.2-18.5 18.2s-18.5-7.6-18.5-18.2zm9.8 0c0 5.3 3.5 9.4 8.7 9.4 5 0 8.6-4.1 8.6-9.4 0-5.4-3.5-9.4-8.6-9.4-5.2 0-8.7 4-8.7 9.4z"/><path d="m399.2 1325.5 5.3-22.4h10.1l-9 34.5h-11.6l-6-21.5-6.2 21.5h-11.5l-8.4-34.5h10.5l4.6 22.1 6.4-22.1h9.6z"/><path d="m440 1302.2c7.5 0 12.8 4.7 12.8 12.8v22.6h-9.8v-20.1c0-4.4-2.8-6.2-5.9-6.2-2.9 0-5.4 1.6-7.3 3.9v22.4h-9.8v-34.5h9.6v1.4c0 1.2-.2 2.7-.2 2.7 2.7-3.3 6.6-5 10.6-5z"/><path d="m472 1284.8h8.8v1.2c-6.6 7.8-11.5 18.8-11.5 30.3s4.8 23.8 11.5 31.6v1.1h-8.8c-7.6-9.3-12.8-20.8-12.8-32.8 0-11.8 5.2-21.9 12.8-31.4z"/><path d="m492.2 1349.1h-8.8v-1.1c6.6-7.8 11.5-20.2 11.5-31.6 0-11.5-4.8-22.4-11.5-30.3v-1.2h8.8c7.6 9.4 12.8 19.5 12.8 31.5 0 11.9-5.2 23.4-12.8 32.7z"/><path d="m112.8 574.1h11.6l12 39.1h.1l12.6-39.1h10.9l-17.9 52.7h-11.4z"/><path d="m193.9 612.5h-25.7c.5 3.8 3.5 6.9 7.9 6.9 2.9 0 5.6-1.2 6.9-3.5l10.2 1.1c-3.1 7.4-9.6 10.8-17.3 10.8-10.3 0-18.1-7.6-18.1-18.2 0-10.5 7.6-18.2 17.9-18.2 9.5 0 18.1 6.2 18.1 20.6v.5zm-25.9-6.6h15.4c-.5-3.5-3.5-6.3-7.6-6.3s-7 2.6-7.8 6.3z"/><path d="m219.7 591.5c7.5 0 12.8 4.7 12.8 12.8v22.6h-9.8v-20.1c0-4.4-2.8-6.2-5.9-6.2-2.9 0-5.4 1.6-7.3 3.9v22.4h-9.8v-52.7h9.6v19.6c0 1.2-.2 2.7-.2 2.7 2.8-3.3 6.7-5 10.6-5z"/><path d="m252.4 626.9h-9.8v-26.2h-4.8v-8.3h14.6zm-5.4-52.8c3.5 0 6.3 2.9 6.3 6.3 0 3.5-2.8 6.3-6.3 6.3s-6.3-2.7-6.3-6.3c.1-3.4 2.9-6.3 6.3-6.3z"/><path d="m268.4 609.6c0 5.4 3.5 9.4 8.7 9.4 3.6 0 6.3-2 7.6-5.3l9.2 2.9c-2.3 6.9-9 11.1-16.9 11.1-10.2 0-18.4-7.6-18.4-18.2 0-10.5 8.1-18.2 18.4-18.2 7.8 0 14.6 4.4 16.9 11.2l-9.2 2.8c-1.3-3.2-4-5.3-7.6-5.3-5.1.2-8.7 4.2-8.7 9.6z"/><path d="m309.4 626.9h-9.7v-52.7h9.7z"/><path d="m351.7 612.5h-25.7c.5 3.8 3.5 6.9 7.9 6.9 2.9 0 5.6-1.2 6.9-3.5l10.2 1.1c-3.1 7.4-9.6 10.8-17.3 10.8-10.3 0-18.1-7.6-18.1-18.2 0-10.5 7.6-18.2 17.9-18.2 9.5 0 18.1 6.2 18.1 20.6v.5zm-25.9-6.6h15.4c-.5-3.5-3.5-6.3-7.6-6.3-4.2 0-7.1 2.6-7.8 6.3z"/><path d="m1803 1036.4h633.9v917.4h-633.9z" fill="#fff" stroke="#000" stroke-miterlimit="10" stroke-width="8"/><path d="m1803 1025.7h633.9v119.6h-633.9z" fill="#fc91f2" stroke="#000" stroke-miterlimit="10" stroke-width="8"/><path d="m1894.6 1192.9 10.1 37.7h.1l8.4-37.7h10.7l-12.9 52.7h-12.1l-9.9-37.9-9.7 37.9h-12.1l-13-52.7h11.3l8.1 37.7h.1l10.1-37.7z" fill="#ccc"/><path d="m1949.5 1210.2c7.5 0 12.8 4.7 12.8 12.8v22.6h-9.8v-20.1c0-4.4-2.8-6.2-5.9-6.2-2.9 0-5.4 1.6-7.3 3.9v22.4h-9.8v-52.7h9.6v19.6c0 1.2-.2 2.7-.2 2.7 2.8-3.2 6.7-5 10.6-5z" fill="#ccc"/><path d="m2004.2 1231.3h-25.7c.5 3.8 3.5 6.9 7.9 6.9 2.9 0 5.6-1.2 6.9-3.5l10.2 1.1c-3.1 7.4-9.6 10.8-17.3 10.8-10.3 0-18.1-7.6-18.1-18.2 0-10.5 7.6-18.2 17.9-18.2 9.5 0 18.1 6.2 18.1 20.6v.5zm-25.9-6.6h15.4c-.5-3.5-3.5-6.3-7.6-6.3s-7 2.6-7.8 6.3z" fill="#ccc"/><path d="m2043.8 1231.3h-25.7c.5 3.8 3.5 6.9 7.9 6.9 2.9 0 5.6-1.2 6.9-3.5l10.2 1.1c-3.1 7.4-9.6 10.8-17.3 10.8-10.3 0-18.1-7.6-18.1-18.2 0-10.5 7.6-18.2 17.9-18.2 9.5 0 18.1 6.2 18.1 20.6v.5zm-25.9-6.6h15.4c-.5-3.5-3.5-6.3-7.6-6.3s-7 2.6-7.8 6.3z" fill="#ccc"/><path d="m2059.4 1245.6h-9.7v-52.7h9.7z" fill="#ccc"/><path d="m2088.1 1221.7c-2.8-2.7-6.3-3.5-8.5-3.5-2.6 0-3.5 1.3-3.5 2.3 0 1.2.8 2 2.6 2.6l5.7 1.8c7.1 2.3 9.5 6.2 9.5 10.7 0 5-4.3 10.9-13.7 10.9-7.6 0-12.4-2.9-15.2-5.4l5.2-6.8c2.5 2.3 6.9 4.3 10.2 4.3 2.3 0 3.8-1.2 3.8-2.6 0-1.7-1.1-2.5-3.9-3.3l-5.9-1.7c-5.6-1.8-8-5.6-8-10.1 0-5.7 5.1-10.7 13.4-10.7 4.5 0 9.9 1.4 13.9 5.1z" fill="#ccc"/><path d="m1858.2 1341.4v-52.7h10.5v43.8h22.4v9h-32.9z" fill="#ccc"/><path d="m1907.3 1341.4h-9.8v-26.2h-4.8v-8.3h14.6zm-5.4-52.7c3.5 0 6.3 2.9 6.3 6.3 0 3.5-2.8 6.3-6.3 6.3s-6.3-2.7-6.3-6.3c.1-3.4 2.9-6.3 6.3-6.3z" fill="#ccc"/><path d="m1923.3 1324.2c0 5.4 3.5 9.4 8.7 9.4 3.6 0 6.3-2 7.6-5.3l9.2 2.9c-2.3 6.9-9 11.1-16.9 11.1-10.2 0-18.4-7.6-18.4-18.2 0-10.5 8.1-18.2 18.4-18.2 7.8 0 14.6 4.4 16.9 11.2l-9.2 2.8c-1.3-3.2-4-5.3-7.6-5.3-5.1.2-8.7 4.2-8.7 9.6z" fill="#ccc"/><path d="m1988.4 1327.1h-25.7c.5 3.8 3.5 6.9 7.9 6.9 2.9 0 5.6-1.2 6.9-3.5l10.2 1.1c-3.1 7.4-9.6 10.8-17.3 10.8-10.3 0-18.1-7.6-18.1-18.2 0-10.5 7.6-18.2 17.9-18.2 9.5 0 18.1 6.2 18.1 20.6v.5zm-25.9-6.6h15.4c-.5-3.5-3.5-6.3-7.6-6.3s-7.1 2.6-7.8 6.3z" fill="#ccc"/><path d="m2014.2 1306c7.5 0 12.8 4.7 12.8 12.8v22.6h-9.8v-20.1c0-4.4-2.8-6.2-5.9-6.2-2.9 0-5.4 1.6-7.3 3.9v22.4h-9.8v-34.5h9.6v1.4c0 1.2-.2 2.7-.2 2.7 2.7-3.2 6.6-5 10.6-5z" fill="#ccc"/><path d="m2055.4 1317.5c-2.8-2.7-6.3-3.5-8.5-3.5-2.6 0-3.5 1.3-3.5 2.3 0 1.2.8 2 2.6 2.6l5.7 1.8c7.1 2.3 9.5 6.2 9.5 10.7 0 5-4.3 10.9-13.7 10.9-7.6 0-12.4-2.9-15.2-5.4l5.2-6.8c2.5 2.3 6.9 4.3 10.2 4.3 2.3 0 3.8-1.2 3.8-2.6 0-1.7-1.1-2.5-3.9-3.3l-5.9-1.7c-5.6-1.8-8-5.6-8-10.1 0-5.7 5.1-10.7 13.4-10.7 4.5 0 9.9 1.4 13.9 5.1z" fill="#ccc"/><path d="m2101.2 1327.1h-25.7c.5 3.8 3.5 6.9 7.9 6.9 2.9 0 5.6-1.2 6.9-3.5l10.2 1.1c-3.1 7.4-9.6 10.8-17.3 10.8-10.3 0-18.1-7.6-18.1-18.2 0-10.5 7.6-18.2 17.9-18.2 9.5 0 18.1 6.2 18.1 20.6v.5zm-25.9-6.6h15.4c-.5-3.5-3.5-6.3-7.6-6.3s-7 2.6-7.8 6.3z" fill="#ccc"/><path d="m2118 1341.4h-10.4v-52.7h17.9c12.4 0 19 7.8 19 17.3s-6.6 17.6-19 17.6h-7.5zm0-43.6v16.9h5.9c5.7 0 9.9-2.7 9.9-8.6s-4.1-8.3-9.9-8.3z" fill="#ccc"/><path d="m2159.9 1341.4h-9.7v-52.7h9.7z" fill="#ccc"/><path d="m2187.4 1318.5c0-2.5-2-4.1-5.7-4.1-3.5 0-7.8 1.7-10.4 3.2l-3.8-7.4s6.4-4.2 14.8-4.2c7.8 0 15 3.6 15 12.7v22.7h-9.8v-3.2c-1.8 2.7-5.7 4.1-9.6 4.1-7.3 0-12.1-5.2-12.1-10.8 0-6.6 4.8-10.6 12.5-10.6h6.8c1.7 0 2.4-.8 2.4-2v-.4zm0 10.6v-2.5c-.6.6-1.7.8-3 .8h-3.7c-3.1 0-4.9 1.4-4.9 3.8 0 2.3 1.9 4.1 4.9 4.1 3.6-.1 6.7-1.9 6.7-6.2z" fill="#ccc"/><path d="m2217.6 1293.8v13.1h7.5v8.3h-7.5v15.6c0 2.2 1.7 2.5 3.2 2.5 2.5 0 4.5-.2 4.5-.2v8.4s-4.7.5-7.6.5c-4.9 0-9.9-.8-9.9-7.8v-18.9h-5.4v-8.3h5.4v-13.1h9.8z" fill="#ccc"/><path d="m2265.7 1327.1h-25.7c.5 3.8 3.5 6.9 7.9 6.9 2.9 0 5.6-1.2 6.9-3.5l10.2 1.1c-3.1 7.4-9.6 10.8-17.3 10.8-10.3 0-18.1-7.6-18.1-18.2 0-10.5 7.6-18.2 17.9-18.2 9.5 0 18.1 6.2 18.1 20.6v.5zm-25.9-6.6h15.4c-.5-3.5-3.5-6.3-7.6-6.3s-7.1 2.6-7.8 6.3z" fill="#ccc"/><path d="m1885.4 1398.5c-3.2-3.2-7.5-5.4-11.1-5.4-3.5 0-6.6 1.8-6.6 5 0 2.4 1.5 4.3 5.7 6.3l4.4 2c8.4 3.9 13.4 8.3 13.4 16.2s-6.7 15.6-18.3 15.6c-8 0-13.9-3.1-18.9-7.9l5.8-7.8c3.9 4 8.9 6.3 12.9 6.3 4.5 0 7.3-2.5 7.3-5.7 0-3.6-3.2-5.6-8.3-8l-3.7-1.7c-7.1-3.3-11.5-8.1-11.5-14.8 0-9.3 8.3-14.8 17.6-14.8 6.1 0 12.4 3 17.4 7.4z" fill="#ccc"/><path d="m1907 1450.4h-9.8v-47.7h9.8v1.7c0 1.7-.2 2.4-.2 2.8 1.7-2.9 5.7-5.3 10.9-5.3 9.5 0 16.7 7.6 16.7 18.2 0 10.5-7.3 18.2-16.8 18.2-4.9 0-9-2.3-10.7-5.3v17.4zm-.3-30.4c0 5.3 3.6 9.5 8.8 9.5s8.8-4.2 8.8-9.5-3.6-9.4-8.8-9.4-8.8 4.1-8.8 9.4z" fill="#ccc"/><path d="m1974.6 1422.9h-25.7c.5 3.8 3.5 6.9 7.9 6.9 2.9 0 5.6-1.2 6.9-3.5l10.2 1.1c-3.1 7.4-9.6 10.8-17.3 10.8-10.3 0-18.1-7.6-18.1-18.2 0-10.5 7.6-18.2 17.9-18.2 9.5 0 18.1 6.2 18.1 20.6v.5zm-25.9-6.6h15.4c-.5-3.5-3.5-6.3-7.6-6.3s-7 2.6-7.8 6.3z" fill="#ccc"/><path d="m2014.2 1422.9h-25.7c.5 3.8 3.5 6.9 7.9 6.9 2.9 0 5.6-1.2 6.9-3.5l10.2 1.1c-3.1 7.4-9.6 10.8-17.3 10.8-10.3 0-18.1-7.6-18.1-18.2 0-10.5 7.6-18.2 17.9-18.2 9.5 0 18.1 6.2 18.1 20.6v.5zm-25.9-6.6h15.4c-.5-3.5-3.5-6.3-7.6-6.3s-7 2.6-7.8 6.3z" fill="#ccc"/><path d="m2045.4 1432.9c-1.7 2.9-5.8 5.3-10.8 5.3-9.5 0-16.7-7.6-16.7-18.2 0-10.5 7.2-18.2 16.6-18.2 5.3 0 9.3 2.4 11 5.3 0-1.1-.2-4-.2-6.6v-16.1h9.8v52.7h-9.8v-4.2zm-17.4-12.9c0 5.3 3.6 9.5 8.8 9.5s8.8-4.2 8.8-9.5-3.6-9.4-8.8-9.4-8.8 4.1-8.8 9.4z" fill="#ccc"/><path d="m1894.6 1480.3 10.1 37.7h.1l8.4-37.7h10.7l-12.9 52.7h-12.1l-9.9-37.9-9.7 37.9h-12.1l-13-52.7h11.3l8.1 37.7h.1l10.1-37.7z"/><path d="m1960.3 1518.7h-25.7c.5 3.8 3.5 6.9 7.9 6.9 2.9 0 5.6-1.2 6.9-3.5l10.2 1.1c-3.1 7.4-9.6 10.8-17.3 10.8-10.3 0-18.1-7.6-18.1-18.2 0-10.5 7.6-18.2 17.9-18.2 9.5 0 18.1 6.2 18.1 20.6v.5zm-25.9-6.6h15.4c-.5-3.5-3.5-6.3-7.6-6.3s-7.1 2.6-7.8 6.3z"/><path d="m1977.9 1533.1h-9.8v-26.2h-4.8v-8.3h14.6zm-5.3-52.8c3.5 0 6.3 2.9 6.3 6.3 0 3.5-2.8 6.3-6.3 6.3s-6.3-2.7-6.3-6.3c0-3.4 2.8-6.3 6.3-6.3z"/><path d="m2021.3 1498.5v37.1c0 5.4-2.7 10.6-11.1 10.6h-15v-8.3h12.6c1.7 0 3.7-.5 3.7-3.1v-6.6c-1.7 2.8-5.8 5.2-10.7 5.2-9.3 0-16.6-7.1-16.6-17.9s7.2-17.9 16.5-17.9c5.2 0 9.2 2.4 10.9 5.3 0-.4-.2-1.1-.2-2.9v-1.6h9.9zm-18.3 26.5c5.2 0 8.7-3.8 8.7-9.4s-3.5-9.5-8.7-9.5c-5.1 0-8.7 3.8-8.7 9.5.1 5.5 3.6 9.4 8.7 9.4z"/><path d="m2049.7 1497.6c7.5 0 12.8 4.7 12.8 12.8v22.6h-9.8v-20.1c0-4.4-2.8-6.2-5.9-6.2-2.9 0-5.4 1.6-7.3 3.9v22.4h-9.8v-52.7h9.6v19.6c0 1.2-.2 2.7-.2 2.7 2.8-3.2 6.7-5 10.6-5z"/><path d="m2082.9 1485.4v13.1h7.5v8.3h-7.5v15.6c0 2.2 1.7 2.5 3.2 2.5 2.5 0 4.5-.2 4.5-.2v8.4s-4.7.5-7.6.5c-4.9 0-9.9-.8-9.9-7.8v-18.9h-5.4v-8.3h5.4v-13.1h9.8z"/><path d="m1895.7 1576.1v9.3h-15.7v43.4h-10.4v-43.4h-15.7v-9.3z"/><path d="m1915 1604h-4.1c-5 0-7.2 2.3-7.2 8.4v16.5h-9.8v-34.5h9.5v5.5c1.4-3.7 4.7-6 9-6 .9 0 1.8.1 2.7.3v9.8z"/><path d="m1919.9 1616.2v-21.8h9.8v20c0 4.7 3.2 6.6 6.6 6.6 3.5 0 6.6-1.9 6.6-6.6v-20h9.7v21.8c0 7.2-5.7 13.6-16.3 13.6-10.5 0-16.4-6.4-16.4-13.6z"/><path d="m1968.2 1611.6c0 5.4 3.5 9.4 8.7 9.4 3.6 0 6.3-2 7.6-5.3l9.2 2.9c-2.3 6.9-9 11.1-16.9 11.1-10.2 0-18.4-7.6-18.4-18.2 0-10.5 8.1-18.2 18.4-18.2 7.8 0 14.6 4.4 16.9 11.2l-9.2 2.8c-1.3-3.2-4-5.3-7.6-5.3-5.1.2-8.7 4.2-8.7 9.6z"/><path d="m2009.2 1606.3h2.3l9.5-12h11.8l-13.3 15.8 13.7 18.7h-11.8l-9.9-14.2h-2.3v14.2h-9.7v-52.7h9.7z"/><path d="m2048.8 1576.1h8.8v1.2c-6.6 7.8-11.5 18.8-11.5 30.3s4.8 23.8 11.5 31.6v1.1h-8.8c-7.6-9.3-12.8-20.8-12.8-32.8 0-11.9 5.2-22 12.8-31.4z"/><path d="m2069 1640.4h-8.8v-1.1c6.6-7.8 11.5-20.2 11.5-31.6 0-11.5-4.8-22.4-11.5-30.3v-1.2h8.8c7.6 9.4 12.8 19.5 12.8 31.5 0 11.9-5.2 23.4-12.8 32.7z"/><g fill="#ccc"><path d="m1889.6 1724.7v-22.4h-20.9v22.4h-10.5v-52.7h10.5v21.4h20.9v-21.4h10.5v52.7z"/><path d="m1906.7 1707.4c0-10.5 8.2-18.2 18.5-18.2s18.5 7.6 18.5 18.2c0 10.5-8.2 18.2-18.5 18.2s-18.5-7.7-18.5-18.2zm9.8 0c0 5.3 3.5 9.4 8.7 9.4 5 0 8.6-4.1 8.6-9.4 0-5.4-3.5-9.4-8.6-9.4s-8.7 4-8.7 9.4z"/><path d="m1969.9 1689.2c7.5 0 12.8 4.7 12.8 12.8v22.6h-9.8v-20.1c0-4.4-2.8-6.2-5.9-6.2-2.9 0-5.4 1.6-7.3 3.9v22.4h-9.8v-34.5h9.6v1.4c0 1.2-.2 2.7-.2 2.7 2.7-3.2 6.6-5 10.6-5z"/><path d="m2000.5 1702.1h2.3l9.5-12h11.8l-13.3 15.8 13.7 18.7h-11.8l-9.9-14.2h-2.3v14.2h-9.7v-52.7h9.7z"/><path d="m2040.1 1671.9h8.8v1.2c-6.6 7.8-11.5 18.8-11.5 30.3s4.8 23.8 11.5 31.6v1.1h-8.8c-7.6-9.3-12.8-20.8-12.8-32.8 0-11.9 5.2-22 12.8-31.4z"/><path d="m2060.3 1736.2h-8.8v-1.1c6.6-7.8 11.5-20.2 11.5-31.6 0-11.5-4.8-22.4-11.5-30.3v-1.2h8.8c7.6 9.4 12.8 19.5 12.8 31.5 0 11.9-5.2 23.4-12.8 32.7z"/><path d="m1885.4 1781.7c-3.2-3.2-7.5-5.4-11.1-5.4-3.5 0-6.6 1.8-6.6 5 0 2.4 1.5 4.3 5.7 6.3l4.4 2c8.4 3.9 13.4 8.3 13.4 16.2s-6.7 15.6-18.3 15.6c-8 0-13.9-3.1-18.9-7.9l5.8-7.8c3.9 4 8.9 6.3 12.9 6.3 4.5 0 7.3-2.5 7.3-5.7 0-3.6-3.2-5.6-8.3-8l-3.7-1.7c-7.1-3.3-11.5-8.1-11.5-14.8 0-9.3 8.3-14.8 17.6-14.8 6.1 0 12.4 3 17.4 7.4z"/><path d="m1907 1833.6h-9.8v-47.6h9.8v1.7c0 1.7-.2 2.4-.2 2.8 1.7-2.9 5.7-5.3 10.9-5.3 9.5 0 16.7 7.6 16.7 18.2 0 10.5-7.3 18.2-16.8 18.2-4.9 0-9-2.3-10.7-5.3v17.3zm-.3-30.4c0 5.3 3.6 9.5 8.8 9.5s8.8-4.2 8.8-9.5-3.6-9.4-8.8-9.4-8.8 4.1-8.8 9.4z"/><path d="m1974.6 1806.1h-25.7c.5 3.8 3.5 6.9 7.9 6.9 2.9 0 5.6-1.2 6.9-3.5l10.2 1.1c-3.1 7.4-9.6 10.8-17.3 10.8-10.3 0-18.1-7.6-18.1-18.2 0-10.5 7.6-18.2 17.9-18.2 9.5 0 18.1 6.2 18.1 20.6v.5zm-25.9-6.6h15.4c-.5-3.5-3.5-6.3-7.6-6.3s-7 2.6-7.8 6.3z"/><path d="m2014.2 1806.1h-25.7c.5 3.8 3.5 6.9 7.9 6.9 2.9 0 5.6-1.2 6.9-3.5l10.2 1.1c-3.1 7.4-9.6 10.8-17.3 10.8-10.3 0-18.1-7.6-18.1-18.2 0-10.5 7.6-18.2 17.9-18.2 9.5 0 18.1 6.2 18.1 20.6v.5zm-25.9-6.6h15.4c-.5-3.5-3.5-6.3-7.6-6.3s-7 2.6-7.8 6.3z"/><path d="m2045.4 1816.1c-1.7 2.9-5.8 5.3-10.8 5.3-9.5 0-16.7-7.6-16.7-18.2 0-10.5 7.2-18.2 16.6-18.2 5.3 0 9.3 2.4 11 5.3 0-1.1-.2-4-.2-6.6v-16.1h9.8v52.7h-9.8v-4.2zm-17.4-12.9c0 5.3 3.6 9.5 8.8 9.5s8.8-4.2 8.8-9.5-3.6-9.4-8.8-9.4-8.8 4.1-8.8 9.4z"/><path d="m2093.3 1802v-34.3h10.2v35.3c0 10.2-6.7 18.4-19.7 18.4-13.1 0-19.7-8.1-19.7-18.4v-35.3h10.5v34.3c0 5.7 3.2 9.7 9.3 9.7 6.2 0 9.4-4 9.4-9.7z"/><path d="m2122 1833.6h-9.8v-47.6h9.8v1.7c0 1.7-.2 2.4-.2 2.8 1.7-2.9 5.7-5.3 10.9-5.3 9.5 0 16.7 7.6 16.7 18.2 0 10.5-7.3 18.2-16.8 18.2-4.9 0-9-2.3-10.7-5.3v17.3zm-.2-30.4c0 5.3 3.6 9.5 8.8 9.5s8.8-4.2 8.8-9.5-3.6-9.4-8.8-9.4-8.8 4.1-8.8 9.4z"/><path d="m2167 1767.7h8.8v1.2c-6.6 7.8-11.5 18.8-11.5 30.3s4.8 23.8 11.5 31.6v1.1h-8.8c-7.6-9.3-12.8-20.8-12.8-32.8 0-11.9 5.2-22 12.8-31.4z"/><path d="m2187.2 1832h-8.8v-1.1c6.6-7.8 11.5-20.2 11.5-31.6 0-11.5-4.8-22.4-11.5-30.3v-1.2h8.8c7.6 9.4 12.8 19.5 12.8 31.5 0 11.9-5.2 23.4-12.8 32.7z"/><path d="m1885.4 1877.5c-3.2-3.2-7.5-5.4-11.1-5.4-3.5 0-6.6 1.8-6.6 5 0 2.4 1.5 4.3 5.7 6.3l4.4 2c8.4 3.9 13.4 8.3 13.4 16.2s-6.7 15.6-18.3 15.6c-8 0-13.9-3.1-18.9-7.9l5.8-7.8c3.9 4 8.9 6.3 12.9 6.3 4.5 0 7.3-2.5 7.3-5.7 0-3.6-3.2-5.6-8.3-8l-3.7-1.7c-7.1-3.3-11.5-8.1-11.5-14.8 0-9.3 8.3-14.8 17.6-14.8 6.1 0 12.4 3 17.4 7.4z"/><path d="m1907.3 1916.3h-9.7v-52.7h9.7z"/><path d="m1913.5 1899c0-10.5 8.2-18.2 18.5-18.2s18.5 7.6 18.5 18.2c0 10.5-8.2 18.2-18.5 18.2s-18.5-7.6-18.5-18.2zm9.8 0c0 5.3 3.5 9.4 8.7 9.4 5 0 8.6-4.1 8.6-9.4 0-5.4-3.5-9.4-8.6-9.4s-8.7 4-8.7 9.4z"/><path d="m1990.7 1904.2 5.3-22.4h10.1l-9 34.5h-11.6l-6-21.5-6.2 21.5h-11.5l-8.4-34.5h10.5l4.6 22.1 6.4-22.1h9.6z"/><path d="m2031 1916.3h-18.1v-52.7h18.1c17.3 0 27.3 10.7 27.3 26.4s-10.1 26.3-27.3 26.3zm-.4-43.8h-7.2v34.9h7.2c9.6 0 17-5.6 17-17.5 0-11.7-7.4-17.4-17-17.4z"/><path d="m2062.4 1899c0-10.5 8.2-18.2 18.5-18.2s18.5 7.6 18.5 18.2c0 10.5-8.2 18.2-18.5 18.2s-18.5-7.6-18.5-18.2zm9.8 0c0 5.3 3.5 9.4 8.7 9.4 5 0 8.6-4.1 8.6-9.4 0-5.4-3.5-9.4-8.6-9.4-5.2 0-8.7 4-8.7 9.4z"/><path d="m2139.6 1904.2 5.3-22.4h10.1l-9 34.5h-11.6l-6-21.5-6.2 21.5h-11.5l-8.4-34.5h10.5l4.6 22.1 6.4-22.1h9.6z"/><path d="m2180.4 1880.9c7.5 0 12.8 4.7 12.8 12.8v22.6h-9.8v-20.1c0-4.4-2.8-6.2-5.9-6.2-2.9 0-5.4 1.6-7.3 3.9v22.4h-9.8v-34.5h9.6v1.4c0 1.2-.2 2.7-.2 2.7 2.7-3.3 6.6-5 10.6-5z"/><path d="m2212.4 1863.5h8.8v1.2c-6.6 7.8-11.5 18.8-11.5 30.3s4.8 23.8 11.5 31.6v1.1h-8.8c-7.6-9.3-12.8-20.8-12.8-32.8 0-11.9 5.2-22 12.8-31.4z"/><path d="m2232.6 1927.8h-8.8v-1.1c6.6-7.8 11.5-20.2 11.5-31.6 0-11.5-4.8-22.4-11.5-30.3v-1.2h8.8c7.6 9.4 12.8 19.5 12.8 31.5 0 11.9-5.2 23.4-12.8 32.7z"/></g><path d="m1895.7 1056v9.3h-15.7v43.4h-10.4v-43.4h-15.7v-9.3z"/><path d="m1915 1083.9h-4.1c-5 0-7.2 2.3-7.2 8.4v16.5h-9.8v-34.5h9.5v5.5c1.4-3.7 4.7-6 9-6 .9 0 1.8.1 2.7.3v9.8z"/><path d="m1919.9 1096.1v-21.8h9.8v20c0 4.7 3.2 6.6 6.6 6.6 3.5 0 6.6-1.9 6.6-6.6v-20h9.7v21.8c0 7.2-5.7 13.6-16.3 13.6-10.5-.1-16.4-6.4-16.4-13.6z"/><path d="m1968.2 1091.5c0 5.4 3.5 9.4 8.7 9.4 3.6 0 6.3-2 7.6-5.3l9.2 2.9c-2.3 6.9-9 11.1-16.9 11.1-10.2 0-18.4-7.6-18.4-18.2 0-10.5 8.1-18.2 18.4-18.2 7.8 0 14.6 4.4 16.9 11.2l-9.2 2.8c-1.3-3.2-4-5.3-7.6-5.3-5.1.2-8.7 4.2-8.7 9.6z"/><path d="m2009.2 1086.2h2.3l9.5-12h11.8l-13.3 15.8 13.7 18.7h-11.8l-9.9-14.2h-2.3v14.2h-9.7v-52.7h9.7z"/><path d="m2059.4 1074.2c3.7 0 6.6 2.9 6.6 6.6 0 3.6-2.9 6.6-6.6 6.6-3.6 0-6.6-2.9-6.6-6.6.1-3.6 3-6.6 6.6-6.6zm0 22.3c3.7 0 6.6 2.9 6.6 6.6s-2.9 6.6-6.6 6.6c-3.6 0-6.6-2.9-6.6-6.6.1-3.6 3-6.6 6.6-6.6z"/><path d="m2083.5 1056h11.6l12 39.1h.1l12.6-39.1h10.9l-17.9 52.7h-11.4z"/><path d="m2164.6 1094.4h-25.7c.5 3.8 3.5 6.9 7.9 6.9 2.9 0 5.6-1.2 6.9-3.5l10.2 1.1c-3.1 7.4-9.6 10.8-17.3 10.8-10.3 0-18.1-7.6-18.1-18.2 0-10.5 7.6-18.2 17.9-18.2 9.5 0 18.1 6.2 18.1 20.6v.5zm-25.9-6.6h15.4c-.5-3.5-3.5-6.3-7.6-6.3s-7.1 2.6-7.8 6.3z"/><path d="m2190.4 1073.3c7.5 0 12.8 4.7 12.8 12.8v22.6h-9.8v-20.1c0-4.4-2.8-6.2-5.9-6.2-2.9 0-5.4 1.6-7.3 3.9v22.4h-9.8v-52.7h9.6v19.6c0 1.2-.2 2.7-.2 2.7 2.7-3.2 6.6-5 10.6-5z"/><path d="m2223.1 1108.7h-9.8v-26.2h-4.8v-8.3h14.6zm-5.4-52.7c3.5 0 6.3 2.9 6.3 6.3 0 3.5-2.8 6.3-6.3 6.3s-6.3-2.7-6.3-6.3c.1-3.4 2.8-6.3 6.3-6.3z"/><path d="m2239.1 1091.5c0 5.4 3.5 9.4 8.7 9.4 3.6 0 6.3-2 7.6-5.3l9.2 2.9c-2.3 6.9-9 11.1-16.9 11.1-10.2 0-18.4-7.6-18.4-18.2 0-10.5 8.1-18.2 18.4-18.2 7.8 0 14.6 4.4 16.9 11.2l-9.2 2.8c-1.3-3.2-4-5.3-7.6-5.3-5.2.2-8.7 4.2-8.7 9.6z"/><path d="m2280.1 1108.7h-9.7v-52.7h9.7z"/><path d="m2322.3 1094.4h-25.7c.5 3.8 3.5 6.9 7.9 6.9 2.9 0 5.6-1.2 6.9-3.5l10.2 1.1c-3.1 7.4-9.6 10.8-17.3 10.8-10.3 0-18.1-7.6-18.1-18.2 0-10.5 7.6-18.2 17.9-18.2 9.5 0 18.1 6.2 18.1 20.6v.5zm-25.9-6.6h15.4c-.5-3.5-3.5-6.3-7.6-6.3s-7 2.6-7.8 6.3z"/><path d="m1803 89.8h633.9v838.3h-633.9z" fill="#fff" stroke="#000" stroke-miterlimit="10" stroke-width="8"/><path d="m1803 79.1h633.9v119.6h-633.9z" fill="#71efc3" stroke="#000" stroke-miterlimit="10" stroke-width="8"/><path d="m1894.6 246.3 10.1 37.7h.1l8.4-37.7h10.7l-12.9 52.7h-12.1l-9.9-37.9-9.7 37.9h-12.1l-13-52.7h11.3l8.1 37.7h.1l10.1-37.7z" fill="#ccc"/><path d="m1949.5 263.6c7.5 0 12.8 4.7 12.8 12.8v22.6h-9.8v-20.1c0-4.4-2.8-6.2-5.9-6.2-2.9 0-5.4 1.6-7.3 3.9v22.4h-9.8v-52.7h9.6v19.6c0 1.2-.2 2.7-.2 2.7 2.8-3.2 6.7-5 10.6-5z" fill="#ccc"/><path d="m2004.2 284.6h-25.7c.5 3.8 3.5 6.9 7.9 6.9 2.9 0 5.6-1.2 6.9-3.5l10.2 1.1c-3.1 7.4-9.6 10.8-17.3 10.8-10.3 0-18.1-7.6-18.1-18.2 0-10.5 7.6-18.2 17.9-18.2 9.5 0 18.1 6.2 18.1 20.6v.5zm-25.9-6.5h15.4c-.5-3.5-3.5-6.3-7.6-6.3s-7 2.6-7.8 6.3z" fill="#ccc"/><path d="m2043.8 284.6h-25.7c.5 3.8 3.5 6.9 7.9 6.9 2.9 0 5.6-1.2 6.9-3.5l10.2 1.1c-3.1 7.4-9.6 10.8-17.3 10.8-10.3 0-18.1-7.6-18.1-18.2 0-10.5 7.6-18.2 17.9-18.2 9.5 0 18.1 6.2 18.1 20.6v.5zm-25.9-6.5h15.4c-.5-3.5-3.5-6.3-7.6-6.3s-7 2.6-7.8 6.3z" fill="#ccc"/><path d="m2059.4 299h-9.7v-52.7h9.7z" fill="#ccc"/><path d="m2088.1 275.1c-2.8-2.7-6.3-3.5-8.5-3.5-2.6 0-3.5 1.3-3.5 2.3 0 1.2.8 2 2.6 2.6l5.7 1.8c7.1 2.3 9.5 6.2 9.5 10.7 0 5-4.3 10.9-13.7 10.9-7.6 0-12.4-2.9-15.2-5.4l5.2-6.8c2.5 2.3 6.9 4.3 10.2 4.3 2.3 0 3.8-1.2 3.8-2.6 0-1.7-1.1-2.5-3.9-3.3l-5.9-1.7c-5.6-1.8-8-5.6-8-10.1 0-5.7 5.1-10.7 13.4-10.7 4.5 0 9.9 1.4 13.9 5.1z" fill="#ccc"/><path d="m1858.2 394.8v-52.7h10.5v43.8h22.4v9h-32.9z" fill="#ccc"/><path d="m1907.3 394.8h-9.8v-26.2h-4.8v-8.3h14.6zm-5.4-52.7c3.5 0 6.3 2.9 6.3 6.3 0 3.5-2.8 6.3-6.3 6.3s-6.3-2.7-6.3-6.3c.1-3.4 2.9-6.3 6.3-6.3z" fill="#ccc"/><path d="m1923.3 377.6c0 5.4 3.5 9.4 8.7 9.4 3.6 0 6.3-2 7.6-5.3l9.2 2.9c-2.3 6.9-9 11.1-16.9 11.1-10.2 0-18.4-7.6-18.4-18.2 0-10.5 8.1-18.2 18.4-18.2 7.8 0 14.6 4.4 16.9 11.2l-9.2 2.8c-1.3-3.2-4-5.3-7.6-5.3-5.1.2-8.7 4.2-8.7 9.6z" fill="#ccc"/><path d="m1988.4 380.4h-25.7c.5 3.8 3.5 6.9 7.9 6.9 2.9 0 5.6-1.2 6.9-3.5l10.2 1.1c-3.1 7.4-9.6 10.8-17.3 10.8-10.3 0-18.1-7.6-18.1-18.2 0-10.5 7.6-18.2 17.9-18.2 9.5 0 18.1 6.2 18.1 20.6v.5zm-25.9-6.5h15.4c-.5-3.5-3.5-6.3-7.6-6.3s-7.1 2.6-7.8 6.3z" fill="#ccc"/><path d="m2014.2 359.4c7.5 0 12.8 4.7 12.8 12.8v22.6h-9.8v-20.1c0-4.4-2.8-6.2-5.9-6.2-2.9 0-5.4 1.6-7.3 3.9v22.4h-9.8v-34.5h9.6v1.4c0 1.2-.2 2.7-.2 2.7 2.7-3.2 6.6-5 10.6-5z" fill="#ccc"/><path d="m2055.4 370.9c-2.8-2.7-6.3-3.5-8.5-3.5-2.6 0-3.5 1.3-3.5 2.3 0 1.2.8 2 2.6 2.6l5.7 1.8c7.1 2.3 9.5 6.2 9.5 10.7 0 5-4.3 10.9-13.7 10.9-7.6 0-12.4-2.9-15.2-5.4l5.2-6.8c2.5 2.3 6.9 4.3 10.2 4.3 2.3 0 3.8-1.2 3.8-2.6 0-1.7-1.1-2.5-3.9-3.3l-5.9-1.7c-5.6-1.8-8-5.6-8-10.1 0-5.7 5.1-10.7 13.4-10.7 4.5 0 9.9 1.4 13.9 5.1z" fill="#ccc"/><path d="m2101.2 380.4h-25.7c.5 3.8 3.5 6.9 7.9 6.9 2.9 0 5.6-1.2 6.9-3.5l10.2 1.1c-3.1 7.4-9.6 10.8-17.3 10.8-10.3 0-18.1-7.6-18.1-18.2 0-10.5 7.6-18.2 17.9-18.2 9.5 0 18.1 6.2 18.1 20.6v.5zm-25.9-6.5h15.4c-.5-3.5-3.5-6.3-7.6-6.3s-7 2.6-7.8 6.3z" fill="#ccc"/><path d="m2118 394.8h-10.4v-52.7h17.9c12.4 0 19 7.8 19 17.3s-6.6 17.6-19 17.6h-7.5zm0-43.7v16.9h5.9c5.7 0 9.9-2.7 9.9-8.6s-4.1-8.3-9.9-8.3z" fill="#ccc"/><path d="m2159.9 394.8h-9.7v-52.7h9.7z" fill="#ccc"/><path d="m2187.4 371.9c0-2.5-2-4.1-5.7-4.1-3.5 0-7.8 1.7-10.4 3.2l-3.8-7.4s6.4-4.2 14.8-4.2c7.8 0 15 3.6 15 12.7v22.7h-9.8v-3.2c-1.8 2.7-5.7 4.1-9.6 4.1-7.3 0-12.1-5.2-12.1-10.8 0-6.6 4.8-10.6 12.5-10.6h6.8c1.7 0 2.4-.8 2.4-2v-.4zm0 10.6v-2.5c-.6.6-1.7.8-3 .8h-3.7c-3.1 0-4.9 1.4-4.9 3.8 0 2.3 1.9 4.1 4.9 4.1 3.6-.1 6.7-1.9 6.7-6.2z" fill="#ccc"/><path d="m2217.6 347.2v13.1h7.5v8.3h-7.5v15.6c0 2.2 1.7 2.5 3.2 2.5 2.5 0 4.5-.2 4.5-.2v8.4s-4.7.5-7.6.5c-4.9 0-9.9-.8-9.9-7.8v-18.9h-5.4v-8.3h5.4v-13.1h9.8z" fill="#ccc"/><path d="m2265.7 380.4h-25.7c.5 3.8 3.5 6.9 7.9 6.9 2.9 0 5.6-1.2 6.9-3.5l10.2 1.1c-3.1 7.4-9.6 10.8-17.3 10.8-10.3 0-18.1-7.6-18.1-18.2 0-10.5 7.6-18.2 17.9-18.2 9.5 0 18.1 6.2 18.1 20.6v.5zm-25.9-6.5h15.4c-.5-3.5-3.5-6.3-7.6-6.3s-7.1 2.6-7.8 6.3z" fill="#ccc"/><path d="m1885.4 451.9c-3.2-3.2-7.5-5.4-11.1-5.4-3.5 0-6.6 1.8-6.6 5 0 2.4 1.5 4.3 5.7 6.3l4.4 2c8.4 3.9 13.4 8.3 13.4 16.2s-6.7 15.6-18.3 15.6c-8 0-13.9-3.1-18.9-7.9l5.8-7.8c3.9 4 8.9 6.3 12.9 6.3 4.5 0 7.3-2.5 7.3-5.7 0-3.6-3.2-5.6-8.3-8l-3.7-1.7c-7.1-3.3-11.5-8.1-11.5-14.8 0-9.3 8.3-14.8 17.6-14.8 6.1 0 12.4 3 17.4 7.4z" fill="#ccc"/><path d="m1907 503.8h-9.8v-47.7h9.8v1.7c0 1.7-.2 2.4-.2 2.8 1.7-2.9 5.7-5.3 10.9-5.3 9.5 0 16.7 7.6 16.7 18.2 0 10.5-7.3 18.2-16.8 18.2-4.9 0-9-2.3-10.7-5.3v17.4zm-.3-30.4c0 5.3 3.6 9.5 8.8 9.5s8.8-4.2 8.8-9.5-3.6-9.4-8.8-9.4-8.8 4-8.8 9.4z" fill="#ccc"/><path d="m1974.6 476.3h-25.7c.5 3.8 3.5 6.9 7.9 6.9 2.9 0 5.6-1.2 6.9-3.5l10.2 1.1c-3.1 7.4-9.6 10.8-17.3 10.8-10.3 0-18.1-7.6-18.1-18.2 0-10.5 7.6-18.2 17.9-18.2 9.5 0 18.1 6.2 18.1 20.6v.5zm-25.9-6.6h15.4c-.5-3.5-3.5-6.3-7.6-6.3s-7 2.6-7.8 6.3z" fill="#ccc"/><path d="m2014.2 476.3h-25.7c.5 3.8 3.5 6.9 7.9 6.9 2.9 0 5.6-1.2 6.9-3.5l10.2 1.1c-3.1 7.4-9.6 10.8-17.3 10.8-10.3 0-18.1-7.6-18.1-18.2 0-10.5 7.6-18.2 17.9-18.2 9.5 0 18.1 6.2 18.1 20.6v.5zm-25.9-6.6h15.4c-.5-3.5-3.5-6.3-7.6-6.3s-7 2.6-7.8 6.3z" fill="#ccc"/><path d="m2045.4 486.3c-1.7 2.9-5.8 5.3-10.8 5.3-9.5 0-16.7-7.6-16.7-18.2 0-10.5 7.2-18.2 16.6-18.2 5.3 0 9.3 2.4 11 5.3 0-1.1-.2-4-.2-6.6v-16.1h9.8v52.7h-9.8v-4.2zm-17.4-12.9c0 5.3 3.6 9.5 8.8 9.5s8.8-4.2 8.8-9.5-3.6-9.4-8.8-9.4-8.8 4-8.8 9.4z" fill="#ccc"/><path d="m1885.4 547.7c-3.2-3.2-7.5-5.4-11.1-5.4-3.5 0-6.6 1.8-6.6 5 0 2.4 1.5 4.3 5.7 6.3l4.4 2c8.4 3.9 13.4 8.3 13.4 16.2s-6.7 15.6-18.3 15.6c-8 0-13.9-3.1-18.9-7.9l5.8-7.8c3.9 4 8.9 6.3 12.9 6.3 4.5 0 7.3-2.5 7.3-5.7 0-3.6-3.2-5.6-8.3-8l-3.7-1.7c-7.1-3.3-11.5-8.1-11.5-14.8 0-9.3 8.3-14.8 17.6-14.8 6.1 0 12.4 3 17.4 7.4z"/><path d="m1931.3 572.1h-25.7c.5 3.8 3.5 6.9 7.9 6.9 2.9 0 5.6-1.2 6.9-3.5l10.2 1.1c-3.1 7.4-9.6 10.8-17.3 10.8-10.3 0-18.1-7.6-18.1-18.2 0-10.5 7.6-18.2 17.9-18.2 9.5 0 18.1 6.2 18.1 20.6v.5zm-25.9-6.6h15.4c-.5-3.5-3.5-6.3-7.6-6.3s-7.1 2.6-7.8 6.3z"/><path d="m1962.5 582.1c-1.7 2.9-5.8 5.3-10.8 5.3-9.5 0-16.7-7.6-16.7-18.2 0-10.5 7.2-18.2 16.6-18.2 5.3 0 9.3 2.4 11 5.3 0-1.1-.2-4-.2-6.6v-16.1h9.8v52.7h-9.8v-4.2zm-17.4-12.9c0 5.3 3.6 9.5 8.8 9.5s8.8-4.2 8.8-9.5-3.6-9.4-8.8-9.4-8.8 4-8.8 9.4z"/><path d="m1999.9 563.5c0-2.5-2-4.1-5.7-4.1-3.5 0-7.8 1.7-10.4 3.2l-3.8-7.4s6.4-4.2 14.8-4.2c7.8 0 15 3.6 15 12.7v22.7h-9.8v-3.2c-1.8 2.7-5.7 4.1-9.6 4.1-7.3 0-12.1-5.2-12.1-10.8 0-6.6 4.8-10.6 12.5-10.6h6.8c1.7 0 2.4-.8 2.4-2v-.4zm0 10.6v-2.5c-.6.6-1.7.8-3 .8h-3.7c-3.1 0-4.9 1.4-4.9 3.8 0 2.3 1.9 4.1 4.9 4.1 3.5-.1 6.7-1.9 6.7-6.2z"/><path d="m2037.7 551c7.5 0 12.8 4.7 12.8 12.8v22.6h-9.8v-20.1c0-4.4-2.8-6.2-5.9-6.2-2.9 0-5.4 1.6-7.3 3.9v22.4h-9.8v-34.5h9.6v1.4c0 1.2-.2 2.7-.2 2.7 2.7-3.2 6.6-5 10.6-5z"/><path d="m2069.7 533.7h8.8v1.2c-6.6 7.8-11.5 18.8-11.5 30.3s4.8 23.8 11.5 31.6v1.1h-8.8c-7.6-9.3-12.8-20.8-12.8-32.8 0-11.9 5.2-22 12.8-31.4z"/><path d="m2089.9 598h-8.8v-1.1c6.6-7.8 11.5-20.2 11.5-31.6 0-11.5-4.8-22.4-11.5-30.3v-1.2h8.8c7.6 9.4 12.8 19.5 12.8 31.5 0 11.9-5.2 23.4-12.8 32.7z"/><path d="m1889.6 682.2v-22.4h-20.9v22.4h-10.5v-52.7h10.5v21.4h20.9v-21.4h10.5v52.7z" fill="#ccc"/><path d="m1906.7 665c0-10.5 8.2-18.2 18.5-18.2s18.5 7.6 18.5 18.2c0 10.5-8.2 18.2-18.5 18.2s-18.5-7.7-18.5-18.2zm9.8 0c0 5.3 3.5 9.4 8.7 9.4 5 0 8.6-4.1 8.6-9.4 0-5.4-3.5-9.4-8.6-9.4s-8.7 4-8.7 9.4z" fill="#ccc"/><path d="m1969.9 646.8c7.5 0 12.8 4.7 12.8 12.8v22.6h-9.8v-20.1c0-4.4-2.8-6.2-5.9-6.2-2.9 0-5.4 1.6-7.3 3.9v22.4h-9.8v-34.5h9.6v1.4c0 1.2-.2 2.7-.2 2.7 2.7-3.2 6.6-5 10.6-5z" fill="#ccc"/><path d="m2000.5 659.7h2.3l9.5-12h11.8l-13.3 15.8 13.7 18.7h-11.8l-9.9-14.2h-2.3v14.2h-9.7v-52.7h9.7z" fill="#ccc"/><path d="m2040.1 629.5h8.8v1.2c-6.6 7.8-11.5 18.8-11.5 30.3s4.8 23.8 11.5 31.6v1.1h-8.8c-7.6-9.3-12.8-20.8-12.8-32.8 0-11.9 5.2-22 12.8-31.4z" fill="#ccc"/><path d="m2060.3 693.8h-8.8v-1.1c6.6-7.8 11.5-20.2 11.5-31.6 0-11.5-4.8-22.4-11.5-30.3v-1.2h8.8c7.6 9.4 12.8 19.5 12.8 31.5 0 11.9-5.2 23.4-12.8 32.7z" fill="#ccc"/><path d="m1885.4 739.3c-3.2-3.2-7.5-5.4-11.1-5.4-3.5 0-6.6 1.8-6.6 5 0 2.4 1.5 4.3 5.7 6.3l4.4 2c8.4 3.9 13.4 8.3 13.4 16.2s-6.7 15.6-18.3 15.6c-8 0-13.9-3.1-18.9-7.9l5.8-7.8c3.9 4 8.9 6.3 12.9 6.3 4.5 0 7.3-2.5 7.3-5.7 0-3.6-3.2-5.6-8.3-8l-3.7-1.7c-7.1-3.3-11.5-8.1-11.5-14.8 0-9.3 8.3-14.8 17.6-14.8 6.1 0 12.4 3 17.4 7.4z" fill="#ccc"/><path d="m1907 791.2h-9.8v-47.7h9.8v1.7c0 1.7-.2 2.4-.2 2.8 1.7-2.9 5.7-5.3 10.9-5.3 9.5 0 16.7 7.6 16.7 18.2 0 10.5-7.3 18.2-16.8 18.2-4.9 0-9-2.3-10.7-5.3v17.4zm-.3-30.4c0 5.3 3.6 9.5 8.8 9.5s8.8-4.2 8.8-9.5-3.6-9.4-8.8-9.4-8.8 4-8.8 9.4z" fill="#ccc"/><path d="m1974.6 763.7h-25.7c.5 3.8 3.5 6.9 7.9 6.9 2.9 0 5.6-1.2 6.9-3.5l10.2 1.1c-3.1 7.4-9.6 10.8-17.3 10.8-10.3 0-18.1-7.6-18.1-18.2 0-10.5 7.6-18.2 17.9-18.2 9.5 0 18.1 6.2 18.1 20.6v.5zm-25.9-6.6h15.4c-.5-3.5-3.5-6.3-7.6-6.3s-7 2.6-7.8 6.3z" fill="#ccc"/><path d="m2014.2 763.7h-25.7c.5 3.8 3.5 6.9 7.9 6.9 2.9 0 5.6-1.2 6.9-3.5l10.2 1.1c-3.1 7.4-9.6 10.8-17.3 10.8-10.3 0-18.1-7.6-18.1-18.2 0-10.5 7.6-18.2 17.9-18.2 9.5 0 18.1 6.2 18.1 20.6v.5zm-25.9-6.6h15.4c-.5-3.5-3.5-6.3-7.6-6.3s-7 2.6-7.8 6.3z" fill="#ccc"/><path d="m2045.4 773.7c-1.7 2.9-5.8 5.3-10.8 5.3-9.5 0-16.7-7.6-16.7-18.2 0-10.5 7.2-18.2 16.6-18.2 5.3 0 9.3 2.4 11 5.3 0-1.1-.2-4-.2-6.6v-16.1h9.8v52.8h-9.8v-4.3zm-17.4-12.9c0 5.3 3.6 9.5 8.8 9.5s8.8-4.2 8.8-9.5-3.6-9.4-8.8-9.4-8.8 4-8.8 9.4z" fill="#ccc"/><path d="m2093.3 759.6v-34.3h10.2v35.3c0 10.2-6.7 18.4-19.7 18.4-13.1 0-19.7-8.1-19.7-18.4v-35.3h10.5v34.3c0 5.7 3.2 9.7 9.3 9.7 6.2 0 9.4-4 9.4-9.7z" fill="#ccc"/><path d="m2122 791.2h-9.8v-47.7h9.8v1.7c0 1.7-.2 2.4-.2 2.8 1.7-2.9 5.7-5.3 10.9-5.3 9.5 0 16.7 7.6 16.7 18.2 0 10.5-7.3 18.2-16.8 18.2-4.9 0-9-2.3-10.7-5.3v17.4zm-.2-30.4c0 5.3 3.6 9.5 8.8 9.5s8.8-4.2 8.8-9.5-3.6-9.4-8.8-9.4-8.8 4-8.8 9.4z" fill="#ccc"/><path d="m2167 725.3h8.8v1.2c-6.6 7.8-11.5 18.8-11.5 30.3s4.8 23.8 11.5 31.6v1.1h-8.8c-7.6-9.3-12.8-20.8-12.8-32.8 0-11.9 5.2-22 12.8-31.4z" fill="#ccc"/><path d="m2187.2 789.6h-8.8v-1.1c6.6-7.8 11.5-20.2 11.5-31.6 0-11.5-4.8-22.4-11.5-30.3v-1.2h8.8c7.6 9.4 12.8 19.5 12.8 31.5 0 11.9-5.2 23.4-12.8 32.7z" fill="#ccc"/><path d="m1885.4 835.1c-3.2-3.2-7.5-5.4-11.1-5.4-3.5 0-6.6 1.8-6.6 5 0 2.4 1.5 4.3 5.7 6.3l4.4 2c8.4 3.9 13.4 8.3 13.4 16.2s-6.7 15.6-18.3 15.6c-8 0-13.9-3.1-18.9-7.9l5.8-7.8c3.9 4 8.9 6.3 12.9 6.3 4.5 0 7.3-2.5 7.3-5.7 0-3.6-3.2-5.6-8.3-8l-3.7-1.7c-7.1-3.3-11.5-8.1-11.5-14.8 0-9.3 8.3-14.8 17.6-14.8 6.1 0 12.4 3 17.4 7.4z" fill="#ccc"/><path d="m1907.3 873.8h-9.7v-52.7h9.7z" fill="#ccc"/><path d="m1913.5 856.6c0-10.5 8.2-18.2 18.5-18.2s18.5 7.6 18.5 18.2c0 10.5-8.2 18.2-18.5 18.2s-18.5-7.7-18.5-18.2zm9.8 0c0 5.3 3.5 9.4 8.7 9.4 5 0 8.6-4.1 8.6-9.4 0-5.4-3.5-9.4-8.6-9.4s-8.7 4-8.7 9.4z" fill="#ccc"/><path d="m1990.7 861.8 5.3-22.4h10.1l-9 34.5h-11.6l-6-21.5-6.2 21.5h-11.5l-8.4-34.5h10.5l4.6 22.1 6.4-22.1h9.6z" fill="#ccc"/><path d="m2031 873.8h-18.1v-52.7h18.1c17.3 0 27.3 10.7 27.3 26.4s-10.1 26.3-27.3 26.3zm-.4-43.7h-7.2v34.9h7.2c9.6 0 17-5.6 17-17.5 0-11.7-7.4-17.4-17-17.4z" fill="#ccc"/><path d="m2062.4 856.6c0-10.5 8.2-18.2 18.5-18.2s18.5 7.6 18.5 18.2c0 10.5-8.2 18.2-18.5 18.2s-18.5-7.7-18.5-18.2zm9.8 0c0 5.3 3.5 9.4 8.7 9.4 5 0 8.6-4.1 8.6-9.4 0-5.4-3.5-9.4-8.6-9.4-5.2 0-8.7 4-8.7 9.4z" fill="#ccc"/><path d="m2139.6 861.8 5.3-22.4h10.1l-9 34.5h-11.6l-6-21.5-6.2 21.5h-11.5l-8.4-34.5h10.5l4.6 22.1 6.4-22.1h9.6z" fill="#ccc"/><path d="m2180.4 838.4c7.5 0 12.8 4.7 12.8 12.8v22.6h-9.8v-20.1c0-4.4-2.8-6.2-5.9-6.2-2.9 0-5.4 1.6-7.3 3.9v22.4h-9.8v-34.5h9.6v1.4c0 1.2-.2 2.7-.2 2.7 2.7-3.2 6.6-5 10.6-5z" fill="#ccc"/><path d="m2212.4 821.1h8.8v1.2c-6.6 7.8-11.5 18.8-11.5 30.3s4.8 23.8 11.5 31.6v1.1h-8.8c-7.6-9.3-12.8-20.8-12.8-32.8 0-11.9 5.2-22 12.8-31.4z" fill="#ccc"/><path d="m2232.6 885.4h-8.8v-1.1c6.6-7.8 11.5-20.2 11.5-31.6 0-11.5-4.8-22.4-11.5-30.3v-1.2h8.8c7.6 9.4 12.8 19.5 12.8 31.5 0 11.9-5.2 23.4-12.8 32.7z" fill="#ccc"/><path d="m1885.4 123.4c-3.2-3.2-7.5-5.4-11.1-5.4-3.5 0-6.6 1.8-6.6 5 0 2.4 1.5 4.3 5.7 6.3l4.4 2c8.4 3.9 13.4 8.3 13.4 16.2s-6.7 15.6-18.3 15.6c-8 0-13.9-3.1-18.9-7.9l5.8-7.8c3.9 4 8.9 6.3 12.9 6.3 4.5 0 7.3-2.5 7.3-5.7 0-3.6-3.2-5.6-8.3-8l-3.7-1.7c-7.1-3.3-11.5-8.1-11.5-14.8 0-9.3 8.3-14.8 17.6-14.8 6.1 0 12.4 3 17.4 7.4z"/><path d="m1931.3 147.7h-25.7c.5 3.8 3.5 6.9 7.9 6.9 2.9 0 5.6-1.2 6.9-3.5l10.2 1.1c-3.1 7.4-9.6 10.8-17.3 10.8-10.3 0-18.1-7.6-18.1-18.2 0-10.5 7.6-18.2 17.9-18.2 9.5 0 18.1 6.2 18.1 20.6v.5zm-25.9-6.5h15.4c-.5-3.5-3.5-6.3-7.6-6.3s-7.1 2.6-7.8 6.3z"/><path d="m1962.5 157.8c-1.7 2.9-5.8 5.3-10.8 5.3-9.5 0-16.7-7.6-16.7-18.2 0-10.5 7.2-18.2 16.6-18.2 5.3 0 9.3 2.4 11 5.3 0-1.1-.2-4-.2-6.6v-16.1h9.8v52.7h-9.8v-4.2zm-17.4-12.9c0 5.3 3.6 9.5 8.8 9.5s8.8-4.2 8.8-9.5-3.6-9.4-8.8-9.4-8.8 4-8.8 9.4z"/><path d="m1999.9 139.2c0-2.5-2-4.1-5.7-4.1-3.5 0-7.8 1.7-10.4 3.2l-3.8-7.4s6.4-4.2 14.8-4.2c7.8 0 15 3.6 15 12.7v22.7h-9.8v-3.2c-1.8 2.7-5.7 4.1-9.6 4.1-7.3 0-12.1-5.2-12.1-10.8 0-6.6 4.8-10.6 12.5-10.6h6.8c1.7 0 2.4-.8 2.4-2v-.4zm0 10.6v-2.5c-.6.6-1.7.8-3 .8h-3.7c-3.1 0-4.9 1.4-4.9 3.8 0 2.3 1.9 4.1 4.9 4.1 3.5-.1 6.7-1.9 6.7-6.2z"/><path d="m2037.7 126.7c7.5 0 12.8 4.7 12.8 12.8v22.6h-9.8v-20.1c0-4.4-2.8-6.2-5.9-6.2-2.9 0-5.4 1.6-7.3 3.9v22.4h-9.8v-34.5h9.6v1.4c0 1.2-.2 2.7-.2 2.7 2.7-3.2 6.6-5 10.6-5z"/><path d="m2080.3 127.6c3.7 0 6.6 2.9 6.6 6.6 0 3.6-2.9 6.6-6.6 6.6-3.6 0-6.6-2.9-6.6-6.6.1-3.6 3-6.6 6.6-6.6zm0 22.3c3.7 0 6.6 2.9 6.6 6.6s-2.9 6.6-6.6 6.6c-3.6 0-6.6-2.9-6.6-6.6.1-3.6 3-6.6 6.6-6.6z"/><path d="m2104.3 109.4h11.6l12 39.1h.1l12.6-39.1h10.9l-17.9 52.7h-11.4z"/><path d="m2185.5 147.7h-25.7c.5 3.8 3.5 6.9 7.9 6.9 2.9 0 5.6-1.2 6.9-3.5l10.2 1.1c-3.1 7.4-9.6 10.8-17.3 10.8-10.3 0-18.1-7.6-18.1-18.2 0-10.5 7.6-18.2 17.9-18.2 9.5 0 18.1 6.2 18.1 20.6v.5zm-25.9-6.5h15.4c-.5-3.5-3.5-6.3-7.6-6.3-4.2 0-7.1 2.6-7.8 6.3z"/><path d="m2211.2 126.7c7.5 0 12.8 4.7 12.8 12.8v22.6h-9.8v-20.1c0-4.4-2.8-6.2-5.9-6.2-2.9 0-5.4 1.6-7.3 3.9v22.4h-9.8v-52.7h9.6v19.6c0 1.2-.2 2.7-.2 2.7 2.8-3.2 6.7-5 10.6-5z"/><path d="m2243.9 162.1h-9.8v-26.2h-4.8v-8.3h14.6zm-5.3-52.7c3.5 0 6.3 2.9 6.3 6.3 0 3.5-2.8 6.3-6.3 6.3s-6.3-2.7-6.3-6.3c0-3.4 2.8-6.3 6.3-6.3z"/><path d="m2260 144.9c0 5.4 3.5 9.4 8.7 9.4 3.6 0 6.3-2 7.6-5.3l9.2 2.9c-2.3 6.9-9 11.1-16.9 11.1-10.2 0-18.4-7.6-18.4-18.2 0-10.5 8.1-18.2 18.4-18.2 7.8 0 14.6 4.4 16.9 11.2l-9.2 2.8c-1.3-3.2-4-5.3-7.6-5.3-5.2.2-8.7 4.2-8.7 9.6z"/><path d="m2300.9 162.1h-9.7v-52.7h9.7z"/><path d="m2343.2 147.7h-25.7c.5 3.8 3.5 6.9 7.9 6.9 2.9 0 5.6-1.2 6.9-3.5l10.2 1.1c-3.1 7.4-9.6 10.8-17.3 10.8-10.3 0-18.1-7.6-18.1-18.2 0-10.5 7.6-18.2 17.9-18.2 9.5 0 18.1 6.2 18.1 20.6v.5zm-25.9-6.5h15.4c-.5-3.5-3.5-6.3-7.6-6.3s-7.1 2.6-7.8 6.3z"/><path d="m848 975.2h210.2s309.9 19.5 309.9-214.4c0-215 91.2-242.6 283.4-248.4" fill="none" stroke="#fff" stroke-miterlimit="10" stroke-width="8"/><path d="m848 976h210.2s309.9-19.5 309.9 214.4c0 215 91.2 242.6 283.4 248.4" fill="none" stroke="#fff" stroke-miterlimit="10" stroke-width="8"/><path d="m1582 1508.2 69.5-69.4-69.5-69.5" fill="none" stroke="#fff" stroke-miterlimit="10" stroke-width="8"/><path d="m1582 581.9 69.5-69.4-69.5-69.5" fill="none" stroke="#fff" stroke-miterlimit="10" stroke-width="8"/></svg>