<svg enable-background="new 0 0 2795 2628" viewBox="0 0 2795 2628" xmlns="http://www.w3.org/2000/svg"><path d="m0 0h2795v2628h-2795z" fill="#151e39"/><path d="m1580.8 1419.7v887.9" fill="none" stroke="#1bacfb" stroke-miterlimit="10" stroke-width="6"/><path d="m1555.8 2307.9h52" fill="none" stroke="#1bacfb" stroke-miterlimit="10" stroke-width="6"/><path d="m1554.8 1419.3h52" fill="none" stroke="#1bacfb" stroke-miterlimit="10" stroke-width="6"/><path d="m2568.2 1316.5h-881" fill="none" stroke="#1bacfb" stroke-miterlimit="10" stroke-width="6"/><path d="m1687.2 1290v52" fill="none" stroke="#1bacfb" stroke-miterlimit="10" stroke-width="6"/><path d="m2568.2 1290v52" fill="none" stroke="#1bacfb" stroke-miterlimit="10" stroke-width="6"/><path d="m2063.5 1165.6h22.3v48.3h11.2v10h-34.2v-10h11.2v-38.3h-10.6v-10z" fill="#1bacfb"/><path d="m2142.8 1181c0 5.2-3 10.3-8.3 12.6 5.7 2.2 9.6 7.9 9.6 14 0 10.6-8.2 17.2-20.1 17.2-12 0-20.1-6.6-20.1-17.2 0-6.1 3.8-11.8 9.6-14-5.4-2.3-8.4-7.5-8.4-12.6 0-9.5 7.4-16.4 19-16.4s18.7 6.9 18.7 16.4zm-10.4 26.1c0-4.2-2.9-8.2-8.5-8.2-5.7 0-8.6 4-8.6 8.2 0 4.3 2.9 8.2 8.6 8.2 5.6 0 8.5-3.9 8.5-8.2zm-1-25.2c0-4.2-2.2-7.7-7.5-7.7s-7.6 3.5-7.6 7.7 2.2 7.7 7.6 7.7c5.2 0 7.5-3.6 7.5-7.7z" fill="#1bacfb"/><path d="m2201 1201.5c0-4.7-3-6.7-6.3-6.7-3.1 0-5.8 1.7-7.9 4.3v24.7h-10.8v-22.4c0-4.6-2.9-6.7-6.3-6.7-3.1 0-5.8 1.7-7.9 4.3v24.7h-10.8v-38.1h10.6v1.5c0 1.3-.2 3-.2 3 2.8-3.5 7.1-5.5 11.4-5.5 5.7 0 10.1 2.4 12.2 6.9 3.2-4.4 7.5-6.9 12.8-6.9 8.2 0 14.1 5.2 14.1 14.1v25h-10.9z" fill="#1bacfb"/><path d="m1385.7 1818.7h22.3v48.3h11.2v10h-34.2v-10h11.2v-38.3h-10.6v-10z" fill="#1bacfb"/><path d="m1445.8 1868.3c5.6 0 7.7-4.3 7.7-10.1s-2.2-10.1-7.8-10.1c-3 0-5.3 1.2-6.7 2.5l-9.7-1.1v-30.9h34.2v10h-24v12.1h.4c2-1.5 5.7-2.2 8.3-2.2 11.1 0 17.4 7.9 17.4 19.1 0 11.8-6.7 20.3-19.4 20.3-12.4 0-19.4-7.4-19.4-17.6v-2.6h11.8v2.5c-.1 4.1 1.8 8.1 7.2 8.1z" fill="#1bacfb"/><path d="m1523.2 1854.5c0-4.7-3-6.7-6.3-6.7-3.1 0-5.8 1.7-7.9 4.3v24.7h-10.8v-22.4c0-4.6-2.9-6.7-6.3-6.7-3.1 0-5.8 1.7-7.9 4.3v24.7h-10.8v-38.1h10.6v1.5c0 1.3-.2 3-.2 3 2.8-3.5 7.1-5.5 11.4-5.5 5.7 0 10.1 2.4 12.2 6.9 3.2-4.4 7.5-6.9 12.8-6.9 8.2 0 14.1 5.2 14.1 14.1v25h-10.8v-22.2z" fill="#1bacfb"/><path d="m871.3 790.5s10.4-9.2 18.2-16.5c7.7-7.3 9.4-11.8 9.4-16.8 0-4.2-2.9-7.9-8.2-7.9-4.7 0-8.2 2.8-8.2 7.3 0 1.6.4 3.6 1.6 6.4l-11.3 2c-1.8-3.6-2.3-6.5-2.3-9.5 0-8.6 7.2-17.1 20.3-17.1 13.5 0 20.6 8.8 20.6 18.1 0 7.3-2.4 14.3-17.4 27.5l-7.3 6.4h25.5v10.6h-41v-10.5z" fill="#1bacfb"/><path d="m922.5 739.4h23.6v51h11.9v10.6h-36.2v-10.6h11.9v-40.4h-11.2z" fill="#1bacfb"/><path d="m974.5 786.8c4.2 0 7.7 3.4 7.7 7.7s-3.4 7.7-7.7 7.7c-4.2 0-7.7-3.4-7.7-7.7s3.4-7.7 7.7-7.7z" fill="#1bacfb"/><path d="m1009.7 792c5.9 0 8.1-4.6 8.1-10.6 0-6.2-2.4-10.7-8.3-10.7-3.2 0-5.6 1.2-7 2.6l-10.3-1.1v-32.6h36.2v10.4h-25.4v12.8h.4c2.1-1.6 6.1-2.3 8.8-2.3 11.7 0 18.4 8.4 18.4 20.2 0 12.5-7.1 21.5-20.5 21.5-13.1 0-20.5-7.8-20.5-18.7v-2.7h12.5v2.6c-.1 4.4 1.8 8.6 7.6 8.6z" fill="#1bacfb"/><path d="m1091.6 777.4c0-4.9-3.2-7-6.7-7-3.3 0-6.2 1.8-8.4 4.6v26h-11.4v-23.7c0-4.8-3.1-7-6.7-7-3.3 0-6.2 1.8-8.4 4.6v26.1h-11.4v-40.3h11.2v1.6c0 1.4-.2 3.2-.2 3.2 3-3.7 7.5-5.8 12.1-5.8 6 0 10.6 2.6 12.9 7.3 3.3-4.7 7.9-7.3 13.6-7.3 8.7 0 14.9 5.5 14.9 15v26.3h-11.4v-23.6z" fill="#1bacfb"/><path d="m786 796 452-452" fill="none" stroke="#1bacfb" stroke-miterlimit="10" stroke-width="6"/><circle cx="785.5" cy="795.5" fill="#1bacfb" r="13.5"/><circle cx="819" cy="792" fill="none" r="613" stroke="#fff" stroke-miterlimit="10" stroke-width="8"/><path d="m1683.4 1419.3h888.6v888.6h-888.6z" fill="none" stroke="#fff" stroke-miterlimit="10" stroke-width="8"/><g fill="#1bacfb"><path d="m703.2 1855.8c8.2 0 14.4-4.4 16.7-11.7h13.5c-3.6 14.5-16.3 23-30.2 23-18.1 0-32.1-13.3-32.1-31.9s14-31.9 32.1-31.9c13.9 0 26.6 8.4 30.2 23h-13.5c-2.3-7.3-8.5-11.7-16.7-11.7-11.6 0-19.4 8.8-19.4 20.6s7.8 20.6 19.4 20.6z"/><path d="m754.2 1866h-11.4v-30.6h-5.6v-9.7h17.1v40.3zm-6.2-61.6c4.1 0 7.4 3.3 7.4 7.4s-3.3 7.3-7.4 7.3c-4 0-7.3-3.2-7.3-7.3 0-4 3.2-7.4 7.3-7.4z"/><path d="m788.8 1837h-4.8c-5.8 0-8.4 2.7-8.4 9.8v19.3h-11.4v-40.3h11.1v6.4c1.6-4.3 5.5-7 10.5-7 1.1 0 2.1.1 3.2.4v11.4z"/><path d="m803.7 1845.9c0 6.3 4.1 11 10.1 11 4.2 0 7.4-2.4 8.9-6.2l10.7 3.3c-2.6 8-10.6 13-19.7 13-12 0-21.5-8.9-21.5-21.2s9.5-21.2 21.5-21.2c9.2 0 17.1 5.1 19.7 13.1l-10.7 3.3c-1.5-3.7-4.7-6.2-8.9-6.2-6 .1-10.1 4.8-10.1 11.1z"/><path d="m851.5 1866h-11.4v-61.6h11.4z"/><path d="m900.9 1849.2h-30c.6 4.5 4.1 8.1 9.2 8.1 3.3 0 6.5-1.4 8.1-4.1l11.9 1.2c-3.6 8.6-11.2 12.7-20.2 12.7-12.1 0-21.1-8.9-21.1-21.2s8.9-21.2 20.9-21.2c11.1 0 21.1 7.2 21.1 24.1v.4zm-30.3-7.6h18c-.6-4-4-7.4-8.9-7.4s-8.2 3.1-9.1 7.4z"/><path d="m765.8 1945.5v-10.5h14v-14h11.2v14h14.1v10.5h-14.1v14h-11.3v-14z"/><path d="m620.1 2053.6h-8.6v23.7h-12.2v-61.6h23.1c13.5 0 21.4 8 21.4 18.7 0 5.8-2.4 13.2-11.7 16.9l15.8 26h-14.1zm.7-27.4h-9.3v16.7h9.3c6.8 0 10.7-3.2 10.7-8.4 0-5.5-3.9-8.3-10.7-8.3z"/><path d="m690.8 2060.4h-30c.6 4.5 4.1 8.1 9.2 8.1 3.3 0 6.5-1.4 8.1-4.1l11.9 1.2c-3.6 8.6-11.2 12.7-20.2 12.7-12.1 0-21.1-8.9-21.1-21.2s8.9-21.2 20.9-21.2c11.1 0 21.1 7.2 21.1 24.1v.4zm-30.3-7.6h18c-.6-4-4-7.4-8.9-7.4s-8.2 3.1-9.1 7.4z"/><path d="m706.4 2057.1c0 6.3 4.1 11 10.1 11 4.2 0 7.4-2.4 8.9-6.2l10.7 3.3c-2.6 8-10.6 13-19.7 13-12 0-21.5-8.9-21.5-21.2s9.5-21.2 21.5-21.2c9.2 0 17.1 5.1 19.7 13.1l-10.7 3.3c-1.5-3.7-4.7-6.2-8.9-6.2-5.9.1-10.1 4.8-10.1 11.1z"/><path d="m757.4 2021.6v15.3h8.7v9.7h-8.7v18.2c0 2.6 2 2.9 3.8 2.9 2.9 0 5.3-.3 5.3-.3v9.8s-5.5.5-8.9.5c-5.7 0-11.6-1-11.6-9.1v-22.1h-6.3v-9.7h6.3v-15.3h11.4z"/><path d="m796.4 2050.4c0-2.9-2.3-4.8-6.7-4.8-4 0-9.2 2-12.1 3.8l-4.5-8.6s7.5-4.9 17.2-4.9c9.2 0 17.5 4.2 17.5 14.9v26.5h-11.4v-3.8c-2.1 3.2-6.7 4.8-11.3 4.8-8.5 0-14.1-6.1-14.1-12.7 0-7.7 5.6-12.4 14.6-12.4h7.9c1.9 0 2.8-.9 2.8-2.4v-.4zm0 12.4v-2.9c-.7.7-1.9.9-3.5.9h-4.3c-3.6 0-5.7 1.6-5.7 4.4 0 2.7 2.2 4.8 5.7 4.8 4.1-.1 7.8-2.2 7.8-7.2z"/><path d="m840.5 2035.9c8.7 0 15 5.5 15 15v26.4h-11.4v-23.5c0-5.1-3.3-7.2-6.9-7.2-3.3 0-6.3 1.8-8.5 4.6v26.1h-11.4v-40.3h11.2v1.6c0 1.4-.2 3.2-.2 3.2 3-3.9 7.6-5.9 12.2-5.9z"/><path d="m905.8 2036.9v43.3c0 6.3-3.2 12.4-12.9 12.4h-17.5v-9.7h14.6c2 0 4.3-.5 4.3-3.6v-7.7c-1.9 3.3-6.8 6.1-12.5 6.1-10.9 0-19.4-8.3-19.4-20.9 0-12.7 8.4-20.9 19.3-20.9 6.1 0 10.7 2.8 12.8 6.2 0-.4-.2-1.2-.2-3.3v-1.8h11.5zm-21.4 30.9c6.1 0 10.2-4.5 10.2-11 0-6.6-4.1-11.1-10.2-11.1-6 0-10.1 4.5-10.1 11.1-.1 6.5 4.1 11 10.1 11z"/><path d="m927 2077.2h-11.4v-61.6h11.4z"/><path d="m976.3 2060.4h-30c.6 4.5 4.1 8.1 9.2 8.1 3.3 0 6.5-1.4 8.1-4.1l11.9 1.2c-3.6 8.6-11.2 12.7-20.2 12.7-12.1 0-21.1-8.9-21.1-21.2s8.9-21.2 20.9-21.2c11.1 0 21.1 7.2 21.1 24.1v.4zm-30.2-7.6h18c-.6-4-4-7.4-8.9-7.4s-8.3 3.1-9.1 7.4z"/></g><path d="m539 1718h493v450h-493z" fill="none" stroke="#1bacfb" stroke-miterlimit="10" stroke-width="6"/></svg>