<svg enable-background="new 0 0 3358 1025" viewBox="0 0 3358 1025" xmlns="http://www.w3.org/2000/svg"><path d="m310 298.6h639.7v353.1h-639.7z" fill="#fff" stroke="#000" stroke-miterlimit="10" stroke-width="8"/><path d="m310 177.5h639.7v123.9h-639.7z" fill="#fc91f2" stroke="#000" stroke-miterlimit="10" stroke-width="8"/><path d="m389 392.2c6.7 0 11.8-3.6 13.7-9.6h11c-3 11.9-13.3 18.8-24.7 18.8-14.8 0-26.3-10.9-26.3-26.1s11.4-26.1 26.3-26.1c11.4 0 21.7 6.9 24.7 18.8h-11c-1.9-6-7-9.6-13.7-9.6-9.5 0-15.8 7.2-15.8 16.8s6.3 17 15.8 17z"/><path d="m419 388.4v-20.9h9.4v19.2c0 4.5 3 6.3 6.3 6.3 3.4 0 6.3-1.8 6.3-6.3v-19.2h9.3v20.9c0 6.9-5.5 13-15.6 13s-15.7-6-15.7-13z"/><path d="m478.1 376.8h-4c-4.8 0-6.9 2.2-6.9 8v15.8h-9.4v-33h9.1v5.3c1.3-3.5 4.5-5.7 8.6-5.7.9 0 1.7.1 2.6.3z"/><path d="m503.6 376.8h-4c-4.8 0-6.9 2.2-6.9 8v15.8h-9.4v-33h9.1v5.3c1.3-3.5 4.5-5.7 8.6-5.7.9 0 1.7.1 2.6.3z"/><path d="m540.8 386.8h-24.6c.5 3.7 3.4 6.6 7.6 6.6 2.7 0 5.3-1.2 6.6-3.4l9.7 1c-3 7.1-9.1 10.4-16.5 10.4-9.9 0-17.3-7.3-17.3-17.4s7.3-17.4 17.1-17.4c9.1 0 17.3 5.9 17.3 19.7v.5zm-24.8-6.3h14.8c-.5-3.3-3.3-6-7.3-6s-6.8 2.5-7.5 6z"/><path d="m565.4 366.7c7.1 0 12.2 4.5 12.2 12.2v21.6h-9.4v-19.2c0-4.2-2.7-5.9-5.6-5.9-2.7 0-5.2 1.5-7 3.7v21.4h-9.4v-33h9.1v1.3c0 1.2-.1 2.6-.1 2.6 2.6-3.1 6.4-4.7 10.2-4.7z"/><path d="m597.2 355v12.5h7.1v7.9h-7.1v14.9c0 2.1 1.7 2.4 3.1 2.4 2.4 0 4.3-.2 4.3-.2v8s-4.5.4-7.3.4c-4.7 0-9.5-.8-9.5-7.4v-18.1h-5.2v-7.9h5.2v-12.5z"/><path d="m636.3 400.5h-9.9v-50.4h17.1c11.9 0 18.1 7.4 18.1 16.6 0 9.1-6.3 16.8-18.1 16.8h-7.1v17zm0-41.7v16.1h5.6c5.5 0 9.4-2.6 9.4-8.2s-4-7.9-9.4-7.9z"/><path d="m684.3 378.6c0-2.4-1.9-3.9-5.5-3.9-3.3 0-7.5 1.7-9.9 3.1l-3.7-7.1s6.1-4 14.1-4c7.5 0 14.3 3.5 14.3 12.2v21.7h-9.4v-3.1c-1.7 2.6-5.5 4-9.2 4-7 0-11.5-5-11.5-10.4 0-6.3 4.6-10.2 12-10.2h6.5c1.6 0 2.3-.7 2.3-1.9zm0 10.1v-2.4c-.6.6-1.6.7-2.9.7h-3.5c-3 0-4.7 1.3-4.7 3.6 0 2.2 1.8 3.9 4.7 3.9 3.3.1 6.4-1.7 6.4-5.8z"/><path d="m734.7 367.6v35.4c0 5.2-2.6 10.2-10.6 10.2h-14.3v-7.9h12c1.7 0 3.5-.4 3.5-3v-6.3c-1.6 2.7-5.5 5-10.2 5-8.9 0-15.8-6.8-15.8-17.1 0-10.4 6.8-17.1 15.8-17.1 5 0 8.8 2.3 10.4 5.1 0-.4-.1-1-.1-2.7v-1.5h9.3zm-17.5 25.2c5 0 8.4-3.7 8.4-9 0-5.4-3.4-9.1-8.4-9.1-4.9 0-8.3 3.7-8.3 9.1.1 5.4 3.5 9 8.3 9z"/><path d="m775.1 386.8h-24.6c.5 3.7 3.4 6.6 7.6 6.6 2.7 0 5.3-1.2 6.6-3.4l9.7 1c-3 7.1-9.1 10.4-16.5 10.4-9.9 0-17.3-7.3-17.3-17.4s7.3-17.4 17.1-17.4c9.1 0 17.3 5.9 17.3 19.7v.5zm-24.7-6.3h14.8c-.5-3.3-3.3-6-7.3-6s-6.8 2.5-7.5 6z"/><path d="m825.8 371.9h-32.2v-8.6h32.2zm0 14.5h-32.2v-8.6h32.2z"/><path d="m852.5 388.9c3.5 0 6.3 2.8 6.3 6.3s-2.8 6.3-6.3 6.3-6.3-2.8-6.3-6.3c.1-3.5 2.9-6.3 6.3-6.3z"/><path d="m871.8 388.9c3.5 0 6.3 2.8 6.3 6.3s-2.8 6.3-6.3 6.3-6.3-2.8-6.3-6.3c.1-3.5 2.9-6.3 6.3-6.3z"/><path d="m891.1 388.9c3.5 0 6.3 2.8 6.3 6.3s-2.8 6.3-6.3 6.3-6.3-2.8-6.3-6.3c.1-3.5 2.9-6.3 6.3-6.3z"/><path d="m406.1 496.3h-10.8l-4.3-13.8h-15.2l-4 13.8h-10.5l16.3-50.4h12zm-22.7-39.6h-.1l-5.1 17.3h10.3z"/><path d="m409.5 484.2v-20.9h9.4v19.2c0 4.5 3 6.3 6.3 6.3 3.4 0 6.3-1.8 6.3-6.3v-19.2h9.3v20.9c0 6.9-5.5 13-15.6 13s-15.7-6-15.7-13z"/><path d="m460.1 450.8v12.5h7.1v7.9h-7.1v14.9c0 2.1 1.7 2.4 3.1 2.4 2.4 0 4.3-.2 4.3-.2v8s-4.5.4-7.3.4c-4.7 0-9.5-.8-9.5-7.4v-18.1h-5.2v-7.9h5.2v-12.5z"/><path d="m492.8 462.5c7.1 0 12.2 4.5 12.2 12.2v21.6h-9.4v-19.2c0-4.2-2.7-5.9-5.6-5.9-2.7 0-5.2 1.5-7 3.7v21.4h-9.4v-50.4h9.2v18.7c0 1.2-.1 2.6-.1 2.6 2.6-3.1 6.4-4.7 10.1-4.7z"/><path d="m510.7 479.8c0-10.1 7.8-17.4 17.6-17.4s17.6 7.3 17.6 17.4-7.8 17.4-17.6 17.4-17.6-7.3-17.6-17.4zm9.3 0c0 5.1 3.4 9 8.3 9 4.8 0 8.2-3.9 8.2-9 0-5.2-3.4-9-8.2-9-4.9 0-8.3 3.9-8.3 9z"/><path d="m572.2 472.6h-4c-4.8 0-6.9 2.2-6.9 8v15.8h-9.4v-33h9.1v5.3c1.3-3.5 4.5-5.7 8.6-5.7.9 0 1.7.1 2.6.3z"/><path d="m621.3 467.8h-32.2v-8.6h32.2zm0 14.4h-32.2v-8.6h32.2z"/><path d="m648 484.7c3.5 0 6.3 2.8 6.3 6.3s-2.8 6.3-6.3 6.3-6.3-2.8-6.3-6.3 2.8-6.3 6.3-6.3z"/><path d="m667.3 484.7c3.5 0 6.3 2.8 6.3 6.3s-2.8 6.3-6.3 6.3-6.3-2.8-6.3-6.3 2.8-6.3 6.3-6.3z"/><path d="m686.6 484.7c3.5 0 6.3 2.8 6.3 6.3s-2.8 6.3-6.3 6.3-6.3-2.8-6.3-6.3 2.8-6.3 6.3-6.3z"/><path d="m401.5 541.7v8.9h-15v41.5h-9.9v-41.5h-15v-8.9z"/><path d="m417.8 592.1h-9.4v-25.1h-4.6v-7.9h14zm-5.1-50.4c3.4 0 6 2.7 6 6 0 3.4-2.7 6-6 6s-6-2.6-6-6c0-3.2 2.7-6 6-6z"/><path d="m437.7 546.6v12.5h7.1v7.9h-7.1v15c0 2.1 1.7 2.4 3.1 2.4 2.4 0 4.3-.2 4.3-.2v8s-4.5.4-7.3.4c-4.7 0-9.5-.8-9.5-7.4v-18.1h-5.2v-7.9h5.2v-12.5h9.4z"/><path d="m460.6 592.1h-9.3v-50.4h9.3z"/><path d="m501 578.4h-24.6c.5 3.7 3.4 6.6 7.6 6.6 2.7 0 5.3-1.2 6.6-3.4l9.7 1c-3 7.1-9.1 10.4-16.5 10.4-9.9 0-17.3-7.3-17.3-17.4s7.3-17.4 17.1-17.4c9.1 0 17.3 5.9 17.3 19.7v.5zm-24.8-6.3h14.8c-.5-3.3-3.3-6-7.3-6s-6.8 2.5-7.5 6z"/><path d="m551.7 563.6h-32.2v-8.6h32.2zm0 14.4h-32.2v-8.6h32.2z"/><path d="m578.4 580.5c3.5 0 6.3 2.8 6.3 6.3s-2.8 6.3-6.3 6.3-6.3-2.8-6.3-6.3 2.8-6.3 6.3-6.3z"/><path d="m597.7 580.5c3.5 0 6.3 2.8 6.3 6.3s-2.8 6.3-6.3 6.3-6.3-2.8-6.3-6.3 2.8-6.3 6.3-6.3z"/><path d="m617 580.5c3.5 0 6.3 2.8 6.3 6.3s-2.8 6.3-6.3 6.3-6.3-2.8-6.3-6.3 2.8-6.3 6.3-6.3z"/><path d="m415.4 238.6c0 15.2-11.7 26.1-26.4 26.1s-26.4-10.9-26.4-26.1 11.7-26.1 26.4-26.1 26.4 10.9 26.4 26.1zm-10.4 0c0-9.6-6.4-16.8-15.9-16.8s-15.9 7.2-15.9 16.8 6.4 16.8 15.9 16.8 15.9-7.1 15.9-16.8z"/><path d="m430.7 263.8h-9.4v-50.4h9.4v16.3c0 2.2-.1 4.5-.1 5.4 1.6-2.8 5.5-5.1 10.4-5.1 9.1 0 16 7.3 16 17.4s-7 17.4-16.1 17.4c-4.7 0-8.6-2.2-10.2-5zm-.2-16.5c0 5 3.5 9.1 8.4 9.1 5 0 8.4-4 8.4-9.1s-3.5-9-8.4-9c-5 0-8.4 3.9-8.4 9z"/><path d="m465 238.8h-4.6v-7.9h14v37.7c0 7.2-5.8 8-10.4 8h-5v-7.9h3.2c1.9 0 2.8-.4 2.8-2.1zm4.2-25.4c3.4 0 6 2.7 6 6 0 3.4-2.7 6-6 6s-6-2.6-6-6c0-3.3 2.7-6 6-6z"/><path d="m514.7 250.1h-24.6c.5 3.7 3.4 6.6 7.6 6.6 2.7 0 5.3-1.2 6.6-3.4l9.7 1c-3 7.1-9.1 10.4-16.5 10.4-9.9 0-17.3-7.3-17.3-17.4s7.3-17.4 17.1-17.4c9.1 0 17.3 5.9 17.3 19.7v.5zm-24.8-6.3h14.8c-.5-3.3-3.3-6-7.3-6-3.9-.1-6.7 2.5-7.5 6z"/><path d="m527.5 247.3c0 5.2 3.4 9 8.3 9 3.5 0 6-1.9 7.3-5l8.8 2.7c-2.2 6.6-8.6 10.7-16.1 10.7-9.8 0-17.6-7.3-17.6-17.4s7.8-17.4 17.6-17.4c7.5 0 14 4.2 16.1 10.7l-8.8 2.7c-1.2-3-3.8-5-7.3-5-4.9 0-8.3 3.8-8.3 9z"/><path d="m569.2 218.3v12.5h7.1v7.9h-7.1v14.9c0 2.1 1.7 2.4 3.1 2.4 2.4 0 4.3-.2 4.3-.2v8s-4.5.4-7.3.4c-4.7 0-9.5-.8-9.5-7.4v-18.1h-5.2v-7.9h5.2v-12.5z"/><g fill="#fff"><path d="m1235.6 829.8c-1.6 2.6-5.2 4.8-9.7 4.8-8.6 0-15.1-6.9-15.1-16.4s6.5-16.4 15-16.4c4.8 0 8.4 2.2 9.9 4.8 0-1-.1-3.6-.1-5.9v-14.6h8.8v47.6h-8.8zm-15.7-11.6c0 4.8 3.3 8.6 8 8.6s8-3.8 8-8.6-3.3-8.5-8-8.5-8 3.7-8 8.5z"/><path d="m1262.7 833.8h-8.8v-23.7h-4.4v-7.5h13.2zm-4.8-47.6c3.2 0 5.7 2.6 5.7 5.7 0 3.2-2.5 5.6-5.7 5.6-3.1 0-5.6-2.4-5.6-5.6-.1-3.1 2.5-5.7 5.6-5.7z"/><path d="m1288.7 812.2c-2.5-2.4-5.6-3.2-7.7-3.2-2.3 0-3.1 1.2-3.1 2.1 0 1.1.7 1.8 2.3 2.4l5.2 1.6c6.4 2.1 8.6 5.6 8.6 9.7 0 4.6-3.9 9.9-12.4 9.9-6.9 0-11.2-2.7-13.7-4.9l4.7-6.1c2.2 2.1 6.3 3.9 9.2 3.9 2.1 0 3.4-1.1 3.4-2.3 0-1.6-1-2.2-3.5-3l-5.3-1.6c-5-1.6-7.2-5-7.2-9.1 0-5.1 4.6-9.7 12.1-9.7 4.1 0 8.9 1.2 12.6 4.6z"/><path d="m1317.9 812.2c-2.5-2.4-5.6-3.2-7.7-3.2-2.3 0-3.1 1.2-3.1 2.1 0 1.1.7 1.8 2.3 2.4l5.2 1.6c6.4 2.1 8.6 5.6 8.6 9.7 0 4.6-3.9 9.9-12.4 9.9-6.9 0-11.2-2.7-13.7-4.9l4.7-6.1c2.2 2.1 6.3 3.9 9.2 3.9 2.1 0 3.4-1.1 3.4-2.3 0-1.6-1-2.2-3.5-3l-5.3-1.6c-5-1.6-7.2-5-7.2-9.1 0-5.1 4.6-9.7 12.1-9.7 4.1 0 8.9 1.2 12.6 4.6z"/><path d="m1330.6 786.2h18.2v39.4h9.2v8.2h-27.9v-8.2h9.2v-31.3h-8.6v-8.1z"/><path d="m1628.5 829.8c-1.6 2.6-5.2 4.8-9.7 4.8-8.6 0-15.1-6.9-15.1-16.4s6.5-16.4 15-16.4c4.8 0 8.4 2.2 9.9 4.8 0-1-.1-3.6-.1-5.9v-14.6h8.8v47.6h-8.8zm-15.7-11.6c0 4.8 3.3 8.6 8 8.6s8-3.8 8-8.6-3.3-8.5-8-8.5-8 3.7-8 8.5z"/><path d="m1655.6 833.8h-8.8v-23.7h-4.4v-7.5h13.2zm-4.8-47.6c3.2 0 5.7 2.6 5.7 5.7 0 3.2-2.5 5.6-5.7 5.6-3.1 0-5.6-2.4-5.6-5.6 0-3.1 2.5-5.7 5.6-5.7z"/><path d="m1681.6 812.2c-2.5-2.4-5.6-3.2-7.7-3.2-2.3 0-3.1 1.2-3.1 2.1 0 1.1.7 1.8 2.3 2.4l5.2 1.6c6.4 2.1 8.6 5.6 8.6 9.7 0 4.6-3.9 9.9-12.4 9.9-6.9 0-11.2-2.7-13.7-4.9l4.7-6.1c2.2 2.1 6.3 3.9 9.2 3.9 2.1 0 3.4-1.1 3.4-2.3 0-1.6-1-2.2-3.5-3l-5.3-1.6c-5-1.6-7.2-5-7.2-9.1 0-5.1 4.6-9.7 12.1-9.7 4.1 0 8.9 1.2 12.6 4.6z"/><path d="m1710.9 812.2c-2.5-2.4-5.6-3.2-7.7-3.2-2.3 0-3.1 1.2-3.1 2.1 0 1.1.7 1.8 2.3 2.4l5.2 1.6c6.4 2.1 8.6 5.6 8.6 9.7 0 4.6-3.9 9.9-12.4 9.9-6.9 0-11.2-2.7-13.7-4.9l4.7-6.1c2.2 2.1 6.3 3.9 9.2 3.9 2.1 0 3.4-1.1 3.4-2.3 0-1.6-1-2.2-3.5-3l-5.3-1.6c-5-1.6-7.2-5-7.2-9.1 0-5.1 4.6-9.7 12.1-9.7 4.1 0 8.9 1.2 12.6 4.6z"/><path d="m1720.6 825.6s8-7.1 14.1-12.8c6-5.6 7.3-9.1 7.3-13 0-3.3-2.2-6.1-6.3-6.1-3.6 0-6.3 2.2-6.3 5.6 0 1.2.3 2.8 1.2 5l-8.7 1.6c-1.4-2.8-1.8-5-1.8-7.3 0-6.7 5.6-13.2 15.7-13.2 10.4 0 15.9 6.8 15.9 14 0 5.6-1.8 11.1-13.5 21.3l-5.6 5h19.7v8.2h-31.7z"/><path d="m2015.6 801.8c6.7 0 11.6 4.3 11.6 11.6v20.4h-8.8v-18.2c0-3.9-2.5-5.6-5.3-5.6-2.6 0-4.9 1.4-6.6 3.5v20.2h-8.8v-31.1h8.6v1.2c0 1.1-.1 2.4-.1 2.4 2.2-2.8 5.8-4.4 9.4-4.4z"/><path d="m2033.9 822.4v-19.7h8.8v18.1c0 4.3 2.9 6 6 6 3.2 0 6-1.7 6-6v-18.1h8.8v19.7c0 6.5-5.2 12.2-14.8 12.2-9.5 0-14.8-5.7-14.8-12.2z"/><path d="m2111.6 815.5c0-3.8-2.4-5.4-5.2-5.4-2.5 0-4.8 1.4-6.5 3.5v20.2h-8.8v-18.3c0-3.7-2.4-5.4-5.2-5.4-2.5 0-4.8 1.4-6.5 3.5v20.2h-8.8v-31.1h8.6v1.2c0 1.1-.1 2.4-.1 2.4 2.3-2.9 5.8-4.5 9.3-4.5 4.6 0 8.2 2 10 5.6 2.6-3.6 6.1-5.6 10.5-5.6 6.7 0 11.5 4.3 11.5 11.6v20.4h-8.8z"/><circle cx="3052.8" cy="718.5" r="9.9"/><circle cx="3098.2" cy="718.5" r="9.9"/><circle cx="3139.4" cy="718.5" r="9.9"/></g><path d="m1433.7 631.4h-31.5v65.9h-236.7v-65.9h-31.5v96.8h.1v.6h299.6v-.6z" fill="#fec64e" stroke="#000" stroke-miterlimit="10" stroke-width="8"/><path d="m1041.3 631.4h-31.4v65.9h-757.2v-65.9h-31.5v96.8h.1v.6h820v-.6z" fill="#fec64e" stroke="#000" stroke-miterlimit="10" stroke-width="8"/><path d="m1824.7 631.4h-31.4v65.9h-236.8v-65.9h-31.5v96.8h.1v.6h299.6v-.6z" fill="#fec64e" stroke="#000" stroke-miterlimit="10" stroke-width="8"/><path d="m2204.9 631.4h-31.5v65.9h-236.8v-65.9h-31.4v96.8.6h299.6v-.6h.1z" fill="#fec64e" stroke="#000" stroke-miterlimit="10" stroke-width="8"/><path d="m2587.8 631.4h-31.5v65.9h-236.7v-65.9h-31.5v96.8h.1v.6h299.6v-.6z" fill="#fec64e" stroke="#000" stroke-miterlimit="10" stroke-width="8"/><path d="m2967.9 631.4h-31.5v65.9h-236.7v-65.9h-31.5v96.8h.1v.6h299.6v-.6z" fill="#fec64e" stroke="#000" stroke-miterlimit="10" stroke-width="8"/><path d="m1042.9 388.3-33.1 33.1" fill="none" stroke="#fff" stroke-miterlimit="10" stroke-width="8"/><path d="m1042.9 448.9-33.1-33.1" fill="none" stroke="#fff" stroke-miterlimit="10" stroke-width="8"/><path d="m1680.4 631.5c0-117.7-95.3-213-213-213 0 0-386.4 0-397.5 0 117.7 0 213 95.3 213 213" fill="none" stroke="#fff" stroke-miterlimit="10" stroke-width="8"/><path d="m1017.6 418.5h66.3" fill="none" stroke="#fff" stroke-miterlimit="10" stroke-width="8"/><circle cx="2052.1" cy="564.1" fill="#fff" r="84" stroke="#000" stroke-miterlimit="10" stroke-width="8"/><path d="m2045.7 559.7c.7-.7 2.9-2 6.3-2 7.3 0 14.3 4.8 14.3 14.9 0 9.5-6.6 15.8-16.2 15.8-10.1 0-16.8-6.9-16.8-16.9 0-13.7 10.3-24.7 15.8-30.1l1.5-1.4h12.5l-1 .8c-3.5 3-12 10.9-16.9 18.8zm4.2 21c4.6 0 6.9-3.5 6.9-7.7s-2.3-7.8-6.9-7.8c-4.7 0-7 3.6-7 7.8s2.4 7.7 7 7.7z"/></svg>