<svg enable-background="new 0 0 1827.1 1553.3" viewBox="0 0 1827.1 1553.3" xmlns="http://www.w3.org/2000/svg"><path d="m4.9 41.1h1818v1502.7h-1818z" fill="#fff" stroke="#000" stroke-miterlimit="10" stroke-width="8"/><path d="m4.9 10.1h1818v174.5h-1818z" fill="#fec64e" stroke="#000" stroke-miterlimit="10" stroke-width="8"/><path d="m328.9 322.8s545.1 529.2 1386 665.9v27.1l-1387.6 1.5z" fill="#71efc3"/><path d="m494.1 1152.6h347.2v73.1h-347.2z" fill="#ffb92c" transform="matrix(.7071 -.7071 .7071 .7071 -645.267 820.4514)"/><g fill="none" stroke="#999" stroke-miterlimit="10" stroke-width="8"><path d="m327.3 844.7h1387.6"/><path d="m327.3 672h1387.6"/><path d="m327.3 499.4h1387.6"/><path d="m1714.9 326.7h-1387.6"/></g><path d="m422.4 1204.1-4.7 4.7-23.8-23.8 8-8c5.6-5.6 12.1-5.1 16.4-.7 4.3 4.3 5 10.9-.6 16.5l-3.4 3.4zm-19.7-19.7 7.6 7.6 2.6-2.6c2.6-2.6 3.2-5.7.6-8.3s-5.6-1.9-8.2.7z"/><path d="m441.3 1185.3-4.4 4.4-23.8-23.8 4.4-4.4z"/><path d="m443.3 1162.5c-1.1-1.1-2.7-1-4.4.7-1.6 1.6-2.8 4.3-3.2 6.1l-5.1-1.6s1-4.8 4.8-8.6c3.5-3.5 8.4-5.1 12.5-1l10.2 10.2-4.4 4.4-1.5-1.5c.4 2-.7 4.4-2.5 6.2-3.3 3.3-7.8 3.1-10.3.5-3-3-2.6-7 .8-10.4l3.1-3.1c.7-.7.7-1.4.2-2zm4.8 4.8-1.1-1.1c0 .5-.4 1.1-1 1.7l-1.7 1.7c-1.4 1.4-1.6 2.8-.5 3.9s2.7 1 4-.4c1.6-1.7 2.2-3.9.3-5.8z"/><path d="m454.8 1139.8c3.4-3.4 7.9-3.6 11.5 0l10.2 10.2-4.4 4.4-9.1-9.1c-2-2-4-1.5-5.4-.1-1.3 1.3-1.7 3.2-1.5 5.1l10.1 10.1-4.4 4.4-15.5-15.5 4.3-4.3.6.6c.5.5 1.2 1.3 1.2 1.3-.4-2.7.6-5.3 2.4-7.1z"/><path d="m473.2 1121.4c3.4-3.4 7.9-3.6 11.5 0l10.2 10.2-4.4 4.4-9.1-9.1c-2-2-4-1.5-5.4-.1-1.3 1.3-1.7 3.2-1.5 5.1l10.1 10.1-4.4 4.4-15.5-15.5 4.3-4.3.6.6c.5.5 1.2 1.3 1.2 1.3-.4-2.7.6-5.3 2.4-7.1z"/><path d="m477.7 1101.3c1.6-1.6 4.1-1.6 5.7 0s1.6 4.1 0 5.7-4 1.6-5.6 0c-1.7-1.6-1.7-4.1-.1-5.7zm26.1 21.4-4.4 4.4-11.8-11.8-2.2 2.2-3.7-3.7 6.6-6.6z"/><path d="m500.7 1093.9c3.4-3.4 7.9-3.6 11.5 0l10.2 10.2-4.4 4.4-9.1-9.1c-2-2-4-1.5-5.4-.1-1.3 1.3-1.7 3.2-1.5 5.1l10.1 10.1-4.4 4.4-15.5-15.5 4.3-4.3.6.6c.5.5 1.2 1.3 1.2 1.3-.4-2.7.6-5.3 2.4-7.1z"/><path d="m526.2 1069.2 16.7 16.7c2.4 2.4 3.6 6-.2 9.8l-6.8 6.8-3.7-3.7 5.7-5.7c.8-.8 1.5-1.9.3-3.1l-3-3c.5 2-.3 5-2.5 7.2-4.2 4.2-10.7 4.3-15.5-.6-4.9-4.9-4.9-11.3-.6-15.5 2.3-2.3 5.2-3.1 7.3-2.5-.2-.2-.5-.4-1.4-1.2l-.7-.7zm3.7 20.1c2.3-2.3 2.2-5.7-.3-8.2s-5.9-2.7-8.2-.3c-2.3 2.3-2.2 5.6.4 8.2 2.5 2.5 5.8 2.6 8.1.3z"/><path d="m561.8 1265.1 4.2 4.2-7.1 7.1 19.6 19.6-4.7 4.7-19.6-19.6-7.1 7.1-4.2-4.2z"/><path d="m590.1 1284.3-1.1 1.1-20.9-10.2 4.9-4.9 14.4 7.8-7.7-14.4 4.8-4.8 11.8 24.2c1.5 3.1 1.5 5.5-1.4 8.3l-3.1 3.1-3.7-3.7 2.2-2.2c.9-.9 1.1-1.8.5-3z"/><path d="m612.6 1273.7-4.4 4.4-21.5-21.5 4.4-4.4.7.7c.7.7 1 1.2 1.2 1.3-.6-2.1.2-5 2.5-7.3 4.3-4.3 11-4.1 15.7.6s4.9 11.5.6 15.8c-2.2 2.2-5.1 3-7.2 2.4zm-13.8-13.6c2.4 2.4 5.9 2.6 8.2.3s2.1-5.9-.3-8.2c-2.4-2.4-5.9-2.6-8.2-.3s-2.1 5.8.3 8.2z"/><path d="m630.6 1230.8-11.6 11.6c2 1.5 4.7 1.5 6.7-.4 1.3-1.3 2-3.1 1.5-4.7l5.1-4.1c1.9 4.7.6 9.2-2.9 12.7-4.7 4.7-11.6 4.7-16.3 0s-4.8-11.6-.1-16.3c4.3-4.3 10.9-5.4 17.4 1.2zm-14.6 8.7 7-7c-1.8-1.3-4.4-1.3-6.3.6s-2 4.4-.7 6.4z"/><path d="m654.2 1212.4c3.2-3.2 3.9-7.3 1.9-11l5.2-5.2c4.2 7 2.6 15.1-2.8 20.5-7 7-17.5 7.3-24.7.1s-6.9-17.7.1-24.7c5.4-5.4 13.5-7 20.5-2.8l-5.2 5.2c-3.7-1.9-7.8-1.2-11 1.9-4.5 4.5-4.1 10.9.5 15.4 4.6 4.7 11 5.1 15.5.6z"/><path d="m665.5 1177c3.4-3.4 7.9-3.6 11.5 0l10.2 10.2-4.4 4.4-9.1-9.1c-2-2-4-1.5-5.4-.1-1.3 1.3-1.7 3.2-1.5 5.1l10.1 10.1-4.4 4.4-23.8-23.8 4.3-4.3 8.8 8.8c.5.5 1.2 1.3 1.2 1.3-.3-2.7.7-5.2 2.5-7z"/><path d="m699.6 1161.9-11.6 11.6c2 1.5 4.7 1.5 6.7-.4 1.3-1.3 2-3.1 1.5-4.7l5.1-4.1c1.9 4.7.6 9.2-2.9 12.7-4.7 4.7-11.6 4.7-16.3 0s-4.8-11.6-.1-16.3c4.3-4.3 10.9-5.4 17.4 1.2zm-14.6 8.7 7-7c-1.8-1.3-4.4-1.3-6.3.6s-2 4.4-.7 6.4z"/><path d="m704.4 1154.5c2.4 2.4 5.8 2.6 8.1.3 1.6-1.6 1.9-3.8 1.1-5.8l5.4-2.8c2.1 4.1.9 9.1-2.6 12.6-4.6 4.6-11.7 4.9-16.5.1s-4.5-11.8.1-16.5c3.5-3.5 8.6-4.6 12.7-2.5l-2.9 5.4c-2-.8-4.2-.6-5.8 1.1-2.3 2.3-2.1 5.7.4 8.1z"/><path d="m720.4 1133.7 1.1-1.1-1.1-9.7 5.3-5.3 1.1 13.1 14.6 2.2-5.3 5.3-10.9-1.9-1.1 1.1 6.4 6.4-4.4 4.4-23.8-23.8 4.4-4.4z"/><path d="m722.6 1104.3c1.6-1.6 4.1-1.6 5.7 0s1.6 4.1 0 5.7-4 1.6-5.6 0-1.7-4.1-.1-5.7zm26.2 21.4-4.4 4.4-11.8-11.8-2.2 2.2-3.7-3.7 6.6-6.6z"/><path d="m745.6 1096.9c3.4-3.4 7.9-3.6 11.5 0l10.2 10.2-4.4 4.4-9.1-9.1c-2-2-4-1.5-5.4-.1-1.3 1.3-1.7 3.2-1.5 5.1l10.1 10.1-4.4 4.4-15.5-15.5 4.3-4.3.6.6c.5.5 1.2 1.3 1.2 1.3-.4-2.7.6-5.3 2.4-7.1z"/><path d="m771.2 1072.2 16.7 16.7c2.4 2.4 3.6 6-.2 9.8l-6.8 6.8-3.7-3.7 5.7-5.7c.8-.8 1.5-1.9.3-3.1l-3-3c.5 2-.3 5-2.5 7.2-4.2 4.2-10.7 4.3-15.5-.6-4.9-4.9-4.9-11.3-.6-15.5 2.3-2.3 5.2-3.1 7.3-2.5-.2-.2-.5-.4-1.4-1.2l-.7-.7zm3.6 20.1c2.3-2.3 2.2-5.7-.3-8.2s-5.9-2.7-8.2-.3c-2.3 2.3-2.2 5.6.4 8.2 2.5 2.5 5.8 2.7 8.1.3z"/><path d="m801.3 1274.7-3.3 3.3 9.1 9.1-4.7 4.7-23.8-23.8 8.9-8.9c5.2-5.2 11.3-5.2 15.5-1 2.2 2.2 4.2 6 2 11l16.1 3.9-5.4 5.4zm-10.2-10.8-3.6 3.6 6.4 6.5 3.6-3.6c2.6-2.6 2.9-5.4.9-7.4-2.1-2.2-4.7-1.7-7.3.9z"/><path d="m816.8 1266.1-9.8-9.8 4.4-4.4 9 9c2.1 2.1 4.4 1.6 6 0s2.1-3.8 0-6l-9-9 4.4-4.4 9.8 9.8c3.3 3.3 3.5 8.7-1.3 13.5-4.7 4.8-10.2 4.6-13.5 1.3z"/><path d="m833.9 1228.5c3.4-3.4 7.9-3.6 11.5 0l10.2 10.2-4.4 4.4-9.1-9.1c-2-2-4-1.5-5.4-.1-1.3 1.3-1.7 3.2-1.5 5.1l10.1 10.1-4.4 4.4-15.5-15.5 4.3-4.3.6.6c.5.5 1.2 1.3 1.2 1.3-.4-2.7.6-5.3 2.4-7.1z"/><path d="m852.3 1210.1c3.4-3.4 7.9-3.6 11.5 0l10.2 10.2-4.4 4.4-9.1-9.1c-2-2-4-1.5-5.4-.1-1.3 1.3-1.7 3.2-1.5 5.1l10.1 10.1-4.4 4.4-15.5-15.5 4.3-4.3.6.6c.5.5 1.2 1.3 1.2 1.3-.4-2.7.6-5.3 2.4-7.1z"/><path d="m856.8 1190c1.6-1.6 4.1-1.6 5.7 0s1.6 4.1 0 5.7-4 1.6-5.6 0-1.7-4.1-.1-5.7zm26.2 21.4-4.4 4.4-11.8-11.8-2.2 2.2-3.7-3.7 6.6-6.6z"/><path d="m879.8 1182.6c3.4-3.4 7.9-3.6 11.5 0l10.2 10.2-4.4 4.4-9.1-9.1c-2-2-4-1.5-5.4-.1-1.3 1.3-1.7 3.2-1.5 5.1l10.1 10.1-4.4 4.4-15.5-15.5 4.3-4.3.6.6c.5.5 1.2 1.3 1.2 1.3-.4-2.7.6-5.3 2.4-7.1z"/><path d="m905.4 1157.9 16.7 16.7c2.4 2.4 3.6 6-.2 9.8l-6.8 6.8-3.7-3.7 5.7-5.7c.8-.8 1.5-1.9.3-3.1l-3-3c.5 2-.3 5-2.5 7.2-4.2 4.2-10.7 4.3-15.5-.6-4.9-4.9-4.9-11.3-.6-15.5 2.3-2.3 5.2-3.1 7.3-2.5-.2-.2-.5-.4-1.4-1.2l-.7-.7zm3.6 20.1c2.3-2.3 2.2-5.7-.3-8.2s-5.9-2.7-8.2-.3c-2.3 2.3-2.2 5.6.4 8.2 2.5 2.5 5.8 2.6 8.1.3z"/><path d="m939.1 1147.3c3.2-3.2 3.9-7.3 1.9-11l5.2-5.2c4.2 7 2.6 15.1-2.8 20.5-7 7-17.5 7.3-24.7.1s-6.9-17.7.1-24.7c5.4-5.4 13.5-7 20.5-2.8l-5.2 5.2c-3.7-1.9-7.8-1.2-11 1.9-4.5 4.5-4.1 10.9.5 15.4 4.7 4.7 11.1 5.1 15.5.6z"/><path d="m948.7 1130.1c-4.8-4.8-4.5-11.9.1-16.5s11.7-4.9 16.5-.1 4.5 11.9-.1 16.5-11.8 4.9-16.5.1zm4.4-4.4c2.4 2.4 5.8 2.6 8.1.3s2-5.7-.4-8.1-5.8-2.6-8.1-.4c-2.3 2.4-2.1 5.7.4 8.2z"/><path d="m985.4 1105c.5 2.1-.2 5-2.5 7.2-4.3 4.3-11 4.1-15.7-.6-4.8-4.8-5-11.4-.7-15.7 2.4-2.4 5.3-3.1 7.4-2.5-.5-.5-1.9-1.7-3-2.9l-7.3-7.3 4.4-4.4 23.8 23.8-4.4 4.4zm-13.7 2.1c2.4 2.4 5.9 2.6 8.2.3s2.1-5.9-.3-8.2c-2.4-2.4-5.9-2.6-8.2-.3s-2.1 5.8.3 8.2z"/><path d="m1004.3 1077.1-11.6 11.6c2 1.5 4.7 1.5 6.7-.4 1.3-1.3 2-3.1 1.5-4.7l5.1-4.1c1.9 4.7.6 9.2-2.9 12.7-4.7 4.7-11.6 4.7-16.3 0s-4.8-11.6-.1-16.3c4.3-4.3 10.9-5.4 17.4 1.2zm-14.6 8.7 7-7c-1.8-1.3-4.4-1.3-6.3.6s-2 4.4-.7 6.4z"/><path d="m1110.9 1254.5-4.7 4.7-23.8-23.8 8-8c5.6-5.6 12.1-5.1 16.4-.7 4.3 4.3 5 10.9-.6 16.5l-3.4 3.4zm-19.7-19.7 7.6 7.6 2.6-2.6c2.6-2.6 3.2-5.7.6-8.3s-5.6-1.9-8.2.7z"/><path d="m1133.2 1219.3-11.6 11.6c2 1.5 4.7 1.5 6.7-.4 1.3-1.3 2-3.1 1.5-4.7l5.1-4.1c1.9 4.7.6 9.2-2.9 12.7-4.7 4.7-11.6 4.7-16.3 0-4.8-4.8-4.8-11.6-.1-16.3 4.3-4.3 10.9-5.4 17.4 1.2zm-14.6 8.7 7-7c-1.8-1.3-4.4-1.3-6.3.6s-2.1 4.4-.7 6.4z"/><path d="m1151 1201.4-11.6 11.6c2 1.5 4.7 1.5 6.7-.4 1.3-1.3 2-3.1 1.5-4.7l5.1-4.1c1.9 4.7.6 9.2-2.9 12.7-4.7 4.7-11.6 4.7-16.3 0s-4.8-11.6-.1-16.3c4.3-4.3 10.9-5.4 17.4 1.2zm-14.6 8.7 7-7c-1.8-1.3-4.4-1.3-6.3.6s-2 4.4-.7 6.4z"/><path d="m1158.5 1184.5-1.9 1.9c-2.2 2.2-2.2 4.3.5 7l7.4 7.4-4.4 4.4-15.5-15.5 4.3-4.3 2.5 2.5c-1.1-2.3-.6-4.8 1.4-6.7.4-.4.8-.8 1.4-1.1z"/><path d="m1177.8 1169.3-3.3 3.3 9.1 9.1-4.7 4.7-23.8-23.8 8.9-8.9c5.2-5.2 11.3-5.2 15.5-1 2.2 2.2 4.2 6 2 11l16.1 3.9-5.4 5.4zm-10.3-10.8-3.6 3.6 6.5 6.4 3.6-3.6c2.6-2.6 2.9-5.4.9-7.4-2.1-2-4.7-1.6-7.4 1z"/><path d="m1207.7 1144.7-11.6 11.6c2 1.5 4.7 1.5 6.7-.4 1.3-1.3 2-3.1 1.5-4.7l5.1-4.1c1.9 4.7.6 9.2-2.9 12.7-4.7 4.7-11.6 4.7-16.3 0-4.8-4.8-4.8-11.6-.1-16.3 4.3-4.3 10.9-5.4 17.4 1.2zm-14.6 8.8 7-7c-1.8-1.3-4.4-1.3-6.3.6s-2 4.4-.7 6.4z"/><path d="m1218.2 1137.7-7.3-14.3 4.7-4.7 10 21.1-5.5 5.5-20.8-10.3 4.8-4.8z"/><path d="m1212.5 1105.4c1.6-1.6 4.1-1.6 5.7 0s1.6 4.1 0 5.7-4 1.6-5.6 0-1.6-4.2-.1-5.7zm26.2 21.3-4.4 4.4-11.8-11.8-2.2 2.2-3.7-3.7 6.6-6.6z"/><path d="m1251.3 1101.2-11.6 11.6c2 1.5 4.7 1.5 6.7-.4 1.3-1.3 2-3.1 1.5-4.7l5.1-4.1c1.9 4.7.6 9.2-2.9 12.7-4.7 4.7-11.6 4.7-16.3 0s-4.8-11.6-.1-16.3c4.3-4.3 10.9-5.4 17.4 1.2zm-14.7 8.7 7-7c-1.8-1.3-4.4-1.3-6.3.6s-2 4.4-.7 6.4z"/><path d="m1270.3 1084.3-7.7-12.5 4.5-4.5 11.5 19.6-5.2 5.2-12.4-7 6.9 12.5-5.2 5.2-19.3-11.7 4.8-4.8 12.1 7.9-7.1-12.9 4.3-4.3z"/><path d="m1348.3 1276.2-15.4-15.4 4.6-4.6 15.9 15.9c4.6 4.6 5.3 11.3-.6 17.2s-12.5 5.2-17.1.6l-15.9-15.9 4.7-4.7 15.4 15.4c2.6 2.6 5.8 3 8.6.2s2.3-6.2-.2-8.7z"/><path d="m1363.2 1256.2c-2.5 0-4.4 1.2-5.4 2.2-1.2 1.2-1 2.1-.5 2.6s1.3.6 2.3 0l3.4-1.8c4.2-2.1 7.1-1.5 9.1.5 2.3 2.3 3 6.9-1.3 11.1-3.4 3.4-6.9 4.2-9.3 4.4l-.7-5.4c2.2-.1 5.1-1.2 6.5-2.6 1.1-1.1 1.2-2.2.5-2.9-.8-.8-1.6-.6-3.3.3l-3.4 1.9c-3.3 1.7-6.1 1.1-8.1-1-2.5-2.5-2.5-7.1 1.2-10.9 2-2 5.1-3.8 8.6-4z"/><path d="m1388.2 1239.9-11.6 11.6c2 1.5 4.7 1.5 6.7-.4 1.3-1.3 2-3.1 1.5-4.7l5.1-4.1c1.9 4.7.6 9.2-2.9 12.7-4.7 4.7-11.6 4.7-16.3 0s-4.8-11.6-.1-16.3c4.3-4.3 10.9-5.4 17.4 1.2zm-14.6 8.7 7-7c-1.8-1.3-4.4-1.3-6.3.6s-2.1 4.4-.7 6.4z"/><path d="m1395.6 1223-1.9 1.9c-2.2 2.2-2.2 4.3.5 7l7.4 7.4-4.4 4.4-15.5-15.5 4.3-4.3 2.5 2.5c-1.1-2.3-.6-4.8 1.4-6.7.4-.4.8-.8 1.4-1.1z"/><path d="m1411.3 1210.8 9.4 9.4-4.7 4.7-23.8-23.8 17.2-17.2 4.1 4.1-12.5 12.5 6.2 6.2 9.2-9.2 4.1 4.1z"/><path d="m1442.5 1185.6-11.6 11.6c2 1.5 4.7 1.5 6.7-.4 1.3-1.3 2-3.1 1.5-4.7l5.1-4.1c1.9 4.7.6 9.2-2.9 12.7-4.7 4.7-11.6 4.7-16.3 0-4.8-4.8-4.8-11.6-.1-16.3 4.3-4.3 10.9-5.4 17.4 1.2zm-14.7 8.7 7-7c-1.8-1.3-4.4-1.3-6.3.6s-2 4.4-.7 6.4z"/><path d="m1460.3 1167.7-11.6 11.6c2 1.5 4.7 1.5 6.7-.4 1.3-1.3 2-3.1 1.5-4.7l5.1-4.1c1.9 4.7.6 9.2-2.9 12.7-4.7 4.7-11.6 4.7-16.3 0-4.8-4.8-4.8-11.6-.1-16.3 4.3-4.3 10.9-5.4 17.4 1.2zm-14.6 8.8 7-7c-1.8-1.3-4.4-1.3-6.3.6s-2 4.4-.7 6.4z"/><path d="m1478.9 1158.2c.5 2.1-.2 5-2.5 7.2-4.3 4.3-11 4.1-15.7-.6-4.8-4.8-5-11.4-.7-15.7 2.4-2.4 5.3-3.1 7.4-2.5-.5-.5-1.9-1.7-3-2.9l-7.3-7.3 4.4-4.4 23.8 23.8-4.4 4.4zm-13.7 2c2.4 2.4 5.9 2.6 8.2.3s2.1-5.9-.3-8.2c-2.4-2.4-5.9-2.6-8.2-.3-2.3 2.4-2.1 5.8.3 8.2z"/><path d="m1493.5 1147.6-4.4 4.4-23.8-23.8 4.4-4.4 7.7 7.7c1 1 2 2.2 2.5 2.6-.6-2.1.2-5 2.5-7.3 4.3-4.3 11-4.1 15.7.6s4.9 11.5.6 15.8c-2.2 2.2-5.1 3-7.2 2.4zm-7.9-7.7c2.4 2.4 5.9 2.6 8.2.3s2.1-5.9-.3-8.2c-2.4-2.4-5.9-2.6-8.2-.3s-2.1 5.8.3 8.2z"/><path d="m1507 1113.3c-1.1-1.1-2.7-.9-4.4.7-1.6 1.6-2.8 4.3-3.2 6.1l-5.1-1.6s1-4.8 4.8-8.6c3.5-3.5 8.4-5.1 12.5-1l10.2 10.2-4.4 4.4-1.5-1.5c.4 2-.7 4.4-2.5 6.2-3.3 3.3-7.8 3.1-10.3.5-3-3-2.6-7 .8-10.4l3.1-3.1c.7-.7.7-1.4.2-2zm4.8 4.8-1.1-1.1c0 .5-.4 1.1-1 1.7l-1.7 1.7c-1.4 1.4-1.6 2.8-.5 3.9s2.7 1 4-.4c1.6-1.6 2.2-3.8.3-5.8z"/><path d="m1521 1104.4c2.4 2.4 5.8 2.6 8.1.3 1.6-1.6 1.9-3.8 1.1-5.8l5.4-2.9c2.1 4.1 1 9.1-2.6 12.6-4.6 4.6-11.7 4.9-16.5.1s-4.5-11.8.1-16.5c3.5-3.5 8.6-4.6 12.7-2.5l-2.9 5.4c-2-.8-4.2-.6-5.8 1.1-2.2 2.4-2 5.8.4 8.2z"/><path d="m1537.1 1083.6 1.1-1.1-1.1-9.7 5.3-5.3 1.1 13.1 14.6 2.2-5.3 5.3-10.9-1.9-1.1 1.1 6.4 6.4-4.4 4.4-23.8-23.8 4.4-4.4z"/><path d="m86.2 881.4v30.6h13.1v-17.8h9.5v17.8h14.2v-30.6h9.5v41.7h-56v-41.7z"/><path d="m114.4 866.1-18.4 11.6v-12l11-6.5-11-6.7v-11.7l18.2 11.6 18.5-11.8v12.1l-11 6.6 11 6.4v12z"/><path d="m146.6 825.1v10.4h-50.6v-10.4h1.8c1.8 0 2.6.2 3 .2-3.1-1.8-5.7-6.1-5.7-11.6 0-10.1 8.1-17.8 19.3-17.8s19.3 7.8 19.3 17.8c0 5.2-2.5 9.5-5.6 11.4zm-32.3.2c5.6 0 10.1-3.8 10.1-9.4 0-5.5-4.5-9.4-10.1-9.4-5.7 0-10 3.8-10 9.4s4.3 9.4 10 9.4z"/><path d="m117.3 753.2v27.3c4.1-.6 7.4-3.8 7.4-8.4 0-3-1.3-5.9-3.8-7.4l1.1-10.8c7.8 3.3 11.5 10.2 11.5 18.3 0 11-8.1 19.2-19.3 19.2s-19.3-8.1-19.3-19c0-10.1 6.6-19.2 21.9-19.2zm-6.9 27.5v-16.4c-3.7.6-6.7 3.7-6.7 8.1s2.8 7.5 6.7 8.3z"/><path d="m114.3 739c5.8 0 10-3.8 10-9.2 0-3.8-2.2-6.7-5.6-8.1l3-9.8c7.3 2.4 11.8 9.6 11.8 17.9 0 10.9-8.1 19.5-19.3 19.5s-19.3-8.6-19.3-19.5c0-8.3 4.6-15.5 11.9-17.9l3 9.8c-3.4 1.4-5.6 4.2-5.6 8.1.1 5.4 4.3 9.2 10.1 9.2z"/><path d="m82.1 692.7h13.9v-7.9h8.8v7.9h16.6c2.3 0 2.6-1.8 2.6-3.4 0-2.6-.2-4.8-.2-4.8h8.9s.5 5 .5 8.1c0 5.2-.9 10.6-8.2 10.6h-20.1v5.8h-8.9v-5.8h-13.9z"/><path d="m117.3 641.6v27.3c4.1-.6 7.4-3.8 7.4-8.4 0-3-1.3-5.9-3.8-7.4l1.1-10.8c7.8 3.3 11.5 10.2 11.5 18.3 0 11-8.1 19.2-19.3 19.2s-19.3-8.1-19.3-19c0-10.1 6.6-19.2 21.9-19.2zm-6.9 27.5v-16.4c-3.7.6-6.7 3.7-6.7 8.1s2.8 7.5 6.7 8.3z"/><path d="m128 608.5c3 1.8 5.6 6.2 5.6 11.4 0 10.1-8.1 17.8-19.3 17.8s-19.3-7.6-19.3-17.7c0-5.6 2.6-9.8 5.7-11.7-1.2 0-4.2.2-7 .2h-17.1v-10.4h56v10.4zm-13.7 18.5c5.6 0 10.1-3.8 10.1-9.4 0-5.5-4.5-9.4-10.1-9.4-5.7 0-10 3.8-10 9.4 0 5.5 4.3 9.4 10 9.4z"/><path d="m102.5 543.8h.2c2.6-6.5 7.4-10.4 13.8-10.4 9 0 16.1 6.6 16.1 18.5v19.9h-56v-18.1c0-11.5 7.1-17.3 14.3-17.3 4.9 0 9.3 2.4 11.6 7.4zm-16.4 16.9h12.5v-5.7c0-4-2-7.3-6.3-7.3s-6.2 3.4-6.2 7.3zm37.2 0v-5.8c0-6.7-3.1-9.9-7.7-9.9-4.7 0-7.1 3.9-7.1 9.4v6.3z"/><path d="m119.2 527.5h-23.2v-10.4h21.3c5 0 7-3.4 7-7 0-3.8-2-7-7-7h-21.3v-10.3h23.2c7.7 0 14.4 6.1 14.4 17.4 0 11-6.7 17.3-14.4 17.3z"/><path d="m96 447.1h39.4c5.8 0 11.3 2.9 11.3 11.8v15.9h-8.8v-13.4c0-1.8-.5-3.9-3.3-3.9h-7c3 1.8 5.5 6.2 5.5 11.4 0 9.9-7.5 17.6-19 17.6s-19-7.6-19-17.5c0-5.5 2.6-9.8 5.7-11.6-.4 0-1.1.2-3 .2h-1.8zm28.1 19.5c0-5.5-4.1-9.3-10-9.3-6 0-10.1 3.8-10.1 9.3 0 5.4 4.1 9.2 10.1 9.2 5.9 0 10-3.8 10-9.2z"/><path d="m107.2 416.6c-2.9 3-3.8 6.6-3.8 9 0 2.7 1.4 3.7 2.5 3.7 1.3 0 2.2-.8 2.8-2.7l1.9-6.1c2.5-7.5 6.6-10.1 11.4-10.1 5.4 0 11.6 4.6 11.6 14.6 0 8.1-3.1 13.1-5.8 16.2l-7.2-5.5c2.5-2.6 4.6-7.4 4.6-10.8 0-2.5-1.3-4-2.7-4-1.8 0-2.6 1.2-3.5 4.2l-1.8 6.2c-1.9 5.9-5.9 8.5-10.7 8.5-6 0-11.4-5.4-11.4-14.2 0-4.8 1.4-10.5 5.4-14.8z"/><path d="m497.3 1420.8c-3.4-3.4-7.9-5.8-11.8-5.8-3.7 0-7 1.9-7 5.3 0 2.6 1.6 4.6 6.1 6.6l4.6 2.2c8.9 4.2 14.2 8.8 14.2 17.2s-7.1 16.6-19.4 16.6c-8.5 0-14.8-3.3-20.1-8.4l6.2-8.3c4.2 4.2 9.4 6.6 13.7 6.6 4.8 0 7.8-2.6 7.8-6.1 0-3.8-3.4-6-8.8-8.5l-3.9-1.8c-7.5-3.5-12.2-8.6-12.2-15.7 0-9.8 8.8-15.8 18.7-15.8 6.5 0 13.1 3.2 18.5 7.8z"/><path d="m523 1411.4v13.9h7.9v8.8h-7.9v16.6c0 2.3 1.8 2.6 3.4 2.6 2.6 0 4.8-.2 4.8-.2v8.9s-5 .5-8.1.5c-5.2 0-10.6-.9-10.6-8.2v-20.1h-5.8v-8.8h5.8v-13.9h10.5z"/><path d="m558.5 1437.5c0-2.6-2.1-4.3-6.1-4.3-3.7 0-8.3 1.8-11 3.4l-4.1-7.8s6.8-4.5 15.7-4.5c8.3 0 15.9 3.8 15.9 13.5v24.1h-10.4v-3.4c-1.9 2.9-6.1 4.4-10.2 4.4-7.8 0-12.8-5.5-12.8-11.5 0-7 5.1-11.3 13.3-11.3h7.2c1.8 0 2.6-.8 2.6-2.2v-.4zm0 11.3v-2.6c-.6.6-1.8.8-3.2.8h-3.9c-3.3 0-5.2 1.4-5.2 4 0 2.5 2 4.3 5.2 4.3 3.7 0 7.1-1.9 7.1-6.5z"/><path d="m614.6 1425.3v39.4c0 5.8-2.9 11.3-11.8 11.3h-15.9v-8.8h13.4c1.8 0 3.9-.5 3.9-3.3v-7c-1.8 3-6.2 5.5-11.4 5.5-9.9 0-17.6-7.5-17.6-19s7.6-19 17.5-19c5.5 0 9.8 2.6 11.6 5.7 0-.4-.2-1.1-.2-3v-1.7zm-19.5 28.1c5.5 0 9.3-4.1 9.3-10 0-6-3.8-10.1-9.3-10.1-5.4 0-9.2 4.1-9.2 10.1 0 5.9 3.8 10 9.2 10z"/><path d="m659.4 1446.6h-27.3c.6 4.1 3.8 7.4 8.4 7.4 3 0 5.9-1.3 7.4-3.8l10.8 1.1c-3.3 7.8-10.2 11.5-18.3 11.5-11 0-19.2-8.1-19.2-19.3s8.1-19.3 19-19.3c10.1 0 19.2 6.6 19.2 21.9zm-27.5-6.9h16.4c-.6-3.7-3.7-6.7-8.1-6.7s-7.5 2.8-8.3 6.7z"/><path d="m679.3 1443.6c0-11.2 8.7-19.3 19.6-19.3s19.6 8.1 19.6 19.3-8.7 19.3-19.6 19.3-19.6-8.1-19.6-19.3zm10.4 0c0 5.7 3.8 10 9.2 10s9.1-4.3 9.1-10c0-5.8-3.8-10-9.1-10-5.5 0-9.2 4.2-9.2 10z"/><path d="m727.6 1414.9c0-7.2 4.8-9.7 10.4-9.7 2.8 0 7.6.5 7.6.5v9.5s-3.2-.4-4.3-.4c-2 0-3.3.5-3.3 3v7.4h7v8.8h-7v27.8h-10.4v-27.8h-5.8v-8.8h5.8z"/><path d="m777.9 1461.9h-11v-56h19c13.2 0 20.2 8.2 20.2 18.4 0 10.1-7 18.6-20.2 18.6h-7.9zm0-46.4v17.9h6.2c6.1 0 10.5-2.9 10.5-9.1s-4.4-8.8-10.5-8.8z"/><path d="m833.9 1435.5h-4.4c-5.3 0-7.7 2.5-7.7 8.9v17.5h-10.4v-36.6h10.1v5.8c1.4-3.9 5-6.3 9.5-6.3 1 0 1.9.1 2.9.3z"/><path d="m837 1443.6c0-11.2 8.7-19.3 19.6-19.3s19.6 8.1 19.6 19.3-8.7 19.3-19.6 19.3c-10.8 0-19.6-8.1-19.6-19.3zm10.4 0c0 5.7 3.8 10 9.2 10s9.1-4.3 9.1-10c0-5.8-3.8-10-9.1-10-5.4 0-9.2 4.2-9.2 10z"/><path d="m909.8 1457.3c-1.8 3-6.2 5.6-11.4 5.6-10.1 0-17.8-8.1-17.8-19.3s7.6-19.3 17.7-19.3c5.6 0 9.8 2.6 11.7 5.7 0-1.2-.2-4.2-.2-7v-17.1h10.4v56h-10.4zm-18.4-13.7c0 5.6 3.8 10.1 9.4 10.1 5.5 0 9.4-4.5 9.4-10.1 0-5.7-3.8-10-9.4-10s-9.4 4.3-9.4 10z"/><path d="m928.6 1448.5v-23.2h10.4v21.3c0 5 3.4 7 7 7 3.8 0 7-2 7-7v-21.3h10.3v23.2c0 7.7-6.1 14.4-17.4 14.4-11 0-17.3-6.7-17.3-14.4z"/><path d="m979.9 1443.6c0 5.8 3.8 10 9.2 10 3.8 0 6.7-2.2 8.1-5.6l9.8 3c-2.4 7.3-9.6 11.8-17.9 11.8-10.9 0-19.5-8.1-19.5-19.3s8.6-19.3 19.5-19.3c8.3 0 15.5 4.6 17.9 11.9l-9.8 3c-1.4-3.4-4.2-5.6-8.1-5.6-5.4.1-9.2 4.3-9.2 10.1z"/><path d="m1026.2 1411.4v13.9h7.9v8.8h-7.9v16.6c0 2.3 1.8 2.6 3.4 2.6 2.6 0 4.8-.2 4.8-.2v8.9s-5 .5-8.1.5c-5.2 0-10.6-.9-10.6-8.2v-20.1h-5.8v-8.8h5.8v-13.9h10.5z"/><path d="m1058.7 1461.9v-56h11.1v46.5h23.8v9.5z"/><path d="m1110.8 1461.9h-10.4v-27.8h-5.1v-8.8h15.5zm-5.7-56c3.8 0 6.7 3 6.7 6.7 0 3.8-3 6.6-6.7 6.6s-6.6-2.9-6.6-6.6c0-3.6 2.9-6.7 6.6-6.7z"/><path d="m1122.2 1414.9c0-7.2 4.8-9.7 10.4-9.7 2.8 0 7.6.5 7.6.5v9.5s-3.2-.4-4.3-.4c-2 0-3.3.5-3.3 3v7.4h7v8.8h-7v27.8h-10.4v-27.8h-5.8v-8.8h5.8z"/><path d="m1181.1 1446.6h-27.3c.6 4.1 3.8 7.4 8.4 7.4 3 0 5.9-1.3 7.4-3.8l10.8 1.1c-3.3 7.8-10.2 11.5-18.3 11.5-11 0-19.2-8.1-19.2-19.3s8.1-19.3 19-19.3c10.1 0 19.2 6.6 19.2 21.9zm-27.5-6.9h16.4c-.6-3.7-3.7-6.7-8.1-6.7s-7.5 2.8-8.3 6.7z"/><path d="m1195.4 1443.6c0 5.8 3.8 10 9.2 10 3.8 0 6.7-2.2 8.1-5.6l9.8 3c-2.4 7.3-9.6 11.8-17.9 11.8-10.9 0-19.5-8.1-19.5-19.3s8.6-19.3 19.5-19.3c8.3 0 15.5 4.6 17.9 11.9l-9.8 3c-1.4-3.4-4.2-5.6-8.1-5.6-5.5.1-9.2 4.3-9.2 10.1z"/><path d="m1239.6 1461.9h-2.6l-12.6-36.6h11.6l7.8 26.1 7.8-26.1h11.3l-14.6 42.4c-1.8 5.4-4.7 8.2-11.4 8.2h-7.2v-8.7h5.1c2.1 0 3.4-.8 4.1-2.9z"/><path d="m1275.1 1443.6c0 5.8 3.8 10 9.2 10 3.8 0 6.7-2.2 8.1-5.6l9.8 3c-2.4 7.3-9.6 11.8-17.9 11.8-10.9 0-19.5-8.1-19.5-19.3s8.6-19.3 19.5-19.3c8.3 0 15.5 4.6 17.9 11.9l-9.8 3c-1.4-3.4-4.2-5.6-8.1-5.6-5.4.1-9.2 4.3-9.2 10.1z"/><path d="m1318.6 1461.9h-10.3v-56h10.3z"/><path d="m1363.5 1446.6h-27.3c.6 4.1 3.8 7.4 8.4 7.4 3 0 5.9-1.3 7.4-3.8l10.8 1.1c-3.3 7.8-10.2 11.5-18.3 11.5-11 0-19.2-8.1-19.2-19.3s8.1-19.3 19-19.3c10.1 0 19.2 6.6 19.2 21.9zm-27.5-6.9h16.4c-.6-3.7-3.7-6.7-8.1-6.7s-7.5 2.8-8.3 6.7z"/><path d="m488.9 93.2v.2c6.5 2.6 10.4 7.4 10.4 13.8 0 9-6.6 16.1-18.5 16.1h-19.9v-56h18.1c11.5 0 17.3 7.1 17.3 14.3 0 4.8-2.4 9.2-7.4 11.6zm-16.9-16.5v12.5h5.7c4 0 7.3-2 7.3-6.3s-3.4-6.2-7.3-6.2zm0 37.2h5.8c6.7 0 9.9-3.1 9.9-7.7 0-4.7-3.9-7.1-9.4-7.1h-6.3z"/><path d="m505.2 109.8v-23.2h10.4v21.3c0 5 3.4 7 7 7 3.8 0 7-2 7-7v-21.3h10.4v23.2c0 7.7-6.1 14.4-17.4 14.4-11.1 0-17.4-6.7-17.4-14.4z"/><path d="m585.6 86.6v39.4c0 5.8-2.9 11.3-11.8 11.3h-15.9v-8.8h13.4c1.8 0 3.9-.5 3.9-3.3v-7c-1.8 3-6.2 5.5-11.4 5.5-9.9 0-17.6-7.5-17.6-19s7.6-19 17.5-19c5.5 0 9.8 2.6 11.6 5.7 0-.4-.2-1.1-.2-3v-1.7zm-19.5 28.1c5.5 0 9.3-4.1 9.3-10 0-6-3.8-10.1-9.3-10.1-5.4 0-9.2 4.1-9.2 10.1 0 5.9 3.8 10 9.2 10z"/><path d="m630.8 101.7h-7.8v21.5h-11.1v-56h21c12.2 0 19.4 7.3 19.4 17 0 5.3-2.2 12-10.6 15.4l14.3 23.6h-12.8zm.7-24.9h-8.5v15.2h8.5c6.2 0 9.8-2.9 9.8-7.7-.1-4.9-3.7-7.5-9.8-7.5z"/><path d="m695.1 108h-27.3c.6 4.1 3.8 7.4 8.4 7.4 3 0 5.9-1.3 7.4-3.8l10.8 1.1c-3.3 7.8-10.2 11.5-18.3 11.5-11 0-19.2-8.1-19.2-19.3s8.1-19.3 19-19.3c10.1 0 19.2 6.6 19.2 21.9zm-27.5-7h16.4c-.6-3.7-3.7-6.7-8.1-6.7s-7.5 2.8-8.3 6.7z"/><path d="m728.2 118.6c-1.8 3-6.2 5.6-11.4 5.6-10.1 0-17.8-8.1-17.8-19.3s7.6-19.3 17.7-19.3c5.6 0 9.8 2.6 11.7 5.7 0-1.2-.2-4.2-.2-7v-17.1h10.4v56h-10.4zm-18.5-13.7c0 5.6 3.8 10.1 9.4 10.1 5.5 0 9.4-4.5 9.4-10.1 0-5.7-3.8-10-9.4-10-5.5 0-9.4 4.3-9.4 10z"/><path d="m747 109.8v-23.2h10.4v21.3c0 5 3.4 7 7 7 3.8 0 7-2 7-7v-21.3h10.3v23.2c0 7.7-6.1 14.4-17.4 14.4-11.1 0-17.3-6.7-17.3-14.4z"/><path d="m798.3 104.9c0 5.8 3.8 10 9.2 10 3.8 0 6.7-2.2 8.1-5.6l9.8 3c-2.4 7.3-9.6 11.8-17.9 11.8-10.9 0-19.5-8.1-19.5-19.3s8.6-19.3 19.5-19.3c8.3 0 15.5 4.6 17.9 11.9l-9.8 3c-1.4-3.4-4.2-5.6-8.1-5.6-5.5.1-9.2 4.4-9.2 10.1z"/><path d="m844.6 72.7v13.9h7.9v8.8h-7.9v16.6c0 2.3 1.8 2.6 3.4 2.6 2.6 0 4.8-.2 4.8-.2v8.9s-5 .5-8.1.5c-5.2 0-10.6-.9-10.6-8.2v-20.2h-5.8v-8.8h5.8v-13.9z"/><path d="m872.3 123.2h-10.4v-27.8h-5.1v-8.8h15.5zm-5.7-56c3.8 0 6.7 3 6.7 6.7 0 3.8-3 6.6-6.7 6.6s-6.6-2.9-6.6-6.6c0-3.6 2.9-6.7 6.6-6.7z"/><path d="m878.9 104.9c0-11.2 8.7-19.3 19.6-19.3s19.6 8.1 19.6 19.3-8.7 19.3-19.6 19.3-19.6-8.1-19.6-19.3zm10.4 0c0 5.7 3.8 10 9.2 10s9.1-4.3 9.1-10c0-5.8-3.8-10-9.1-10-5.4 0-9.2 4.3-9.2 10z"/><path d="m946 85.6c7.9 0 13.6 5 13.6 13.6v24h-10.4v-21.4c0-4.6-3-6.6-6.2-6.6-3 0-5.8 1.7-7.8 4.2v23.8h-10.4v-36.6h10.2v1.4c0 1.3-.2 2.9-.2 2.9 2.8-3.4 6.9-5.3 11.2-5.3z"/><path d="m1022.9 67.2v9.9h-16.7v46.1h-11v-46h-16.7v-9.9z"/><path d="m1056.1 108h-27.3c.6 4.1 3.8 7.4 8.4 7.4 3 0 5.9-1.3 7.4-3.8l10.8 1.1c-3.3 7.8-10.2 11.5-18.3 11.5-11 0-19.2-8.1-19.2-19.3s8.1-19.3 19-19.3c10.1 0 19.2 6.6 19.2 21.9zm-27.5-7h16.4c-.6-3.7-3.7-6.7-8.1-6.7s-7.5 2.8-8.3 6.7z"/><path d="m1070.4 104.9c0 5.8 3.8 10 9.2 10 3.8 0 6.7-2.2 8.1-5.6l9.8 3c-2.4 7.3-9.6 11.8-17.9 11.8-10.9 0-19.5-8.1-19.5-19.3s8.6-19.3 19.5-19.3c8.3 0 15.5 4.6 17.9 11.9l-9.8 3c-1.4-3.4-4.2-5.6-8.1-5.6-5.5.1-9.2 4.4-9.2 10.1z"/><path d="m1124.8 85.6c7.9 0 13.6 5 13.6 13.6v24h-10.4v-21.4c0-4.6-3-6.6-6.2-6.6-3 0-5.8 1.7-7.8 4.2v23.8h-10.4v-56h10.2v20.8c0 1.3-.2 2.9-.2 2.9 2.8-3.4 7-5.3 11.2-5.3z"/><path d="m1168.1 85.6c7.9 0 13.6 5 13.6 13.6v24h-10.4v-21.4c0-4.6-3-6.6-6.2-6.6-3 0-5.8 1.7-7.8 4.2v23.8h-10.4v-36.6h10.2v1.4c0 1.3-.2 2.9-.2 2.9 2.8-3.4 7-5.3 11.2-5.3z"/><path d="m1202.8 123.2h-10.4v-27.8h-5.1v-8.8h15.5zm-5.6-56c3.8 0 6.7 3 6.7 6.7 0 3.8-3 6.6-6.7 6.6s-6.6-2.9-6.6-6.6c-.1-3.6 2.9-6.7 6.6-6.7z"/><path d="m1238.8 118.6c-1.8 3.1-6.2 5.6-11.4 5.6-10.1 0-17.8-8.1-17.8-19.3s7.6-19.3 17.7-19.3c5.6 0 9.8 2.6 11.7 5.7 0-.4-.2-1.1-.2-3v-1.7h10.4v50.6h-10.4zm-18.5-13.7c0 5.6 3.8 10.1 9.4 10.1 5.5 0 9.4-4.5 9.4-10.1 0-5.7-3.8-10-9.4-10s-9.4 4.3-9.4 10z"/><path d="m1257.6 109.8v-23.2h10.4v21.3c0 5 3.4 7 7 7 3.8 0 7-2 7-7v-21.3h10.3v23.2c0 7.7-6.1 14.4-17.4 14.4-11.1 0-17.3-6.7-17.3-14.4z"/><path d="m1336.7 108h-27.3c.6 4.1 3.8 7.4 8.4 7.4 3 0 5.9-1.3 7.4-3.8l10.8 1.1c-3.3 7.8-10.2 11.5-18.3 11.5-11 0-19.2-8.1-19.2-19.3s8.1-19.3 19-19.3c10.1 0 19.2 6.6 19.2 21.9zm-27.5-7h16.4c-.6-3.7-3.7-6.7-8.1-6.7s-7.5 2.8-8.3 6.7z"/><path d="m1364.4 97.8c-3-2.9-6.6-3.8-9-3.8-2.7 0-3.7 1.4-3.7 2.5 0 1.3.8 2.2 2.7 2.8l6.1 1.9c7.5 2.5 10.1 6.6 10.1 11.4 0 5.4-4.6 11.6-14.6 11.6-8.1 0-13.1-3.1-16.2-5.8l5.5-7.2c2.6 2.5 7.4 4.6 10.8 4.6 2.5 0 4-1.3 4-2.7 0-1.8-1.2-2.6-4.2-3.5l-6.2-1.8c-5.9-1.9-8.5-5.9-8.5-10.7 0-6 5.4-11.4 14.2-11.4 4.8 0 10.5 1.4 14.8 5.4z"/><path d="m1714.9 1017.3h-1387.6v-694.6" fill="none" stroke="#000" stroke-miterlimit="10" stroke-width="8"/><path d="m272.2 1002.8c0 10-3.9 14.5-9.8 14.5s-9.8-4.6-9.8-14.5c0-9.8 3.9-14.4 9.8-14.4 6-.1 9.8 4.6 9.8 14.4zm-9.7 9.4c2.8 0 4.1-3.2 4.1-9.4s-1.3-9.4-4.1-9.4-4.1 3.2-4.1 9.4 1.3 9.4 4.1 9.4z"/><path d="m276.8 1013.3-2-2.8 23.4-18 2.1 2.7zm4.9-25c3.6 0 6.6 3 6.6 6.6s-3 6.6-6.6 6.6c-3.7 0-6.7-3-6.7-6.6s3-6.6 6.7-6.6zm0 9.5c1.4 0 2.6-1.3 2.6-2.8 0-1.6-1.2-2.8-2.6-2.8s-2.6 1.2-2.6 2.8c-.1 1.5 1.1 2.8 2.6 2.8zm11.9 19.5c-3.7 0-6.7-2.9-6.7-6.5s3-6.6 6.7-6.6 6.7 3 6.7 6.6-3 6.5-6.7 6.5zm0-9.4c-1.4 0-2.6 1.2-2.6 2.8s1.2 2.8 2.6 2.8 2.6-1.3 2.6-2.8-1.2-2.8-2.6-2.8z"/><path d="m231.7 850s4.7-4.2 8.3-7.5c3.5-3.3 4.3-5.4 4.3-7.6 0-1.9-1.3-3.6-3.7-3.6-2.1 0-3.7 1.3-3.7 3.3 0 .7.2 1.6.7 2.9l-5.1.9c-.8-1.6-1-3-1-4.3 0-3.9 3.3-7.8 9.2-7.8 6.1 0 9.4 4 9.4 8.2 0 3.3-1.1 6.5-7.9 12.5l-3.3 2.9h11.6v4.8h-18.6v-4.7z"/><path d="m262.3 850.7c2.7 0 3.7-2.1 3.7-4.8 0-2.8-1.1-4.9-3.8-4.9-1.4 0-2.6.6-3.2 1.2l-4.7-.5v-14.8h16.4v4.8h-11.6v5.8h.2c1-.7 2.8-1 4-1 5.3 0 8.4 3.8 8.4 9.2 0 5.7-3.2 9.8-9.3 9.8-6 0-9.3-3.6-9.3-8.5v-1.2h5.7v1.2c0 1.8.9 3.7 3.5 3.7z"/><path d="m276.8 851.3-2-2.8 23.4-18 2.1 2.7zm4.9-25c3.6 0 6.6 3 6.6 6.6s-3 6.6-6.6 6.6c-3.7 0-6.7-3-6.7-6.6s3-6.6 6.7-6.6zm0 9.5c1.4 0 2.6-1.3 2.6-2.8 0-1.6-1.2-2.8-2.6-2.8s-2.6 1.2-2.6 2.8c-.1 1.5 1.1 2.8 2.6 2.8zm11.9 19.5c-3.7 0-6.7-2.9-6.7-6.5s3-6.6 6.7-6.6 6.7 3 6.7 6.6-3 6.5-6.7 6.5zm0-9.4c-1.4 0-2.6 1.2-2.6 2.8s1.2 2.8 2.6 2.8 2.6-1.3 2.6-2.8-1.2-2.8-2.6-2.8z"/><path d="m240.8 679.7c2.7 0 3.7-2.1 3.7-4.8 0-2.8-1.1-4.9-3.8-4.9-1.4 0-2.6.6-3.2 1.2l-4.7-.5v-14.8h16.4v4.8h-11.6v5.8h.2c1-.7 2.8-1 4-1 5.3 0 8.4 3.8 8.4 9.2 0 5.7-3.2 9.8-9.3 9.8-6 0-9.3-3.6-9.3-8.5v-1.2h5.7v1.2c0 1.8.9 3.7 3.5 3.7z"/><path d="m272.2 669.8c0 10-3.9 14.5-9.8 14.5s-9.8-4.6-9.8-14.5c0-9.8 3.9-14.4 9.8-14.4 6-.1 9.8 4.6 9.8 14.4zm-9.7 9.4c2.8 0 4.1-3.2 4.1-9.4s-1.3-9.4-4.1-9.4-4.1 3.2-4.1 9.4 1.3 9.4 4.1 9.4z"/><path d="m276.8 680.3-2-2.8 23.4-18 2.1 2.7zm4.9-25c3.6 0 6.6 3 6.6 6.6s-3 6.6-6.6 6.6c-3.7 0-6.7-3-6.7-6.6s3-6.6 6.7-6.6zm0 9.5c1.4 0 2.6-1.3 2.6-2.8 0-1.6-1.2-2.8-2.6-2.8s-2.6 1.2-2.6 2.8c-.1 1.5 1.1 2.8 2.6 2.8zm11.9 19.5c-3.7 0-6.7-2.9-6.7-6.5s3-6.6 6.7-6.6 6.7 3 6.7 6.6-3 6.5-6.7 6.5zm0-9.4c-1.4 0-2.6 1.2-2.6 2.8s1.2 2.8 2.6 2.8 2.6-1.3 2.6-2.8-1.2-2.8-2.6-2.8z"/><path d="m234.6 512.8 10-23.2h-12.6v-4.8h18v4.8l-9.2 23.2z"/><path d="m262.3 508.7c2.7 0 3.7-2.1 3.7-4.8 0-2.8-1.1-4.9-3.8-4.9-1.4 0-2.6.6-3.2 1.2l-4.7-.5v-14.8h16.4v4.8h-11.6v5.8h.2c1-.7 2.8-1 4-1 5.3 0 8.4 3.8 8.4 9.2 0 5.7-3.2 9.8-9.3 9.8-6 0-9.3-3.6-9.3-8.5v-1.2h5.7v1.2c0 1.8.9 3.7 3.5 3.7z"/><path d="m276.8 509.3-2-2.8 23.4-18 2.1 2.7zm4.9-25c3.6 0 6.6 3 6.6 6.6s-3 6.6-6.6 6.6c-3.7 0-6.7-3-6.7-6.6s3-6.6 6.7-6.6zm0 9.5c1.4 0 2.6-1.3 2.6-2.8 0-1.6-1.2-2.8-2.6-2.8s-2.6 1.2-2.6 2.8c-.1 1.5 1.1 2.8 2.6 2.8zm11.9 19.5c-3.7 0-6.7-2.9-6.7-6.5s3-6.6 6.7-6.6 6.7 3 6.7 6.6-3 6.5-6.7 6.5zm0-9.4c-1.4 0-2.6 1.2-2.6 2.8s1.2 2.8 2.6 2.8 2.6-1.3 2.6-2.8-1.2-2.8-2.6-2.8z"/><path d="m211.9 313.8h10.7v23.2h5.4v4.8h-16.4v-4.8h5.4v-18.4h-5.1z"/><path d="m250.7 327.8c0 10-3.9 14.5-9.8 14.5s-9.8-4.6-9.8-14.5c0-9.8 3.9-14.4 9.8-14.4 5.9-.1 9.8 4.6 9.8 14.4zm-9.8 9.4c2.8 0 4.1-3.2 4.1-9.4s-1.3-9.4-4.1-9.4-4.1 3.2-4.1 9.4 1.3 9.4 4.1 9.4z"/><path d="m272.2 327.8c0 10-3.9 14.5-9.8 14.5s-9.8-4.6-9.8-14.5c0-9.8 3.9-14.4 9.8-14.4 6-.1 9.8 4.6 9.8 14.4zm-9.7 9.4c2.8 0 4.1-3.2 4.1-9.4s-1.3-9.4-4.1-9.4-4.1 3.2-4.1 9.4 1.3 9.4 4.1 9.4z"/><path d="m276.8 338.3-2-2.8 23.4-18 2.1 2.7zm4.9-25c3.6 0 6.6 3 6.6 6.6s-3 6.6-6.6 6.6c-3.7 0-6.7-3-6.7-6.6s3-6.6 6.7-6.6zm0 9.5c1.4 0 2.6-1.3 2.6-2.8 0-1.6-1.2-2.8-2.6-2.8s-2.6 1.2-2.6 2.8c-.1 1.5 1.1 2.8 2.6 2.8zm11.9 19.5c-3.7 0-6.7-2.9-6.7-6.5s3-6.6 6.7-6.6 6.7 3 6.7 6.6-3 6.5-6.7 6.5zm0-9.4c-1.4 0-2.6 1.2-2.6 2.8s1.2 2.8 2.6 2.8 2.6-1.3 2.6-2.8-1.2-2.8-2.6-2.8z"/></svg>